<?xml version="1.0" encoding="UTF-8"?>
<svg id="Layer_1" data-name="Layer 1" xmlns="http://www.w3.org/2000/svg" viewBox="0 0 417.67 216.47">
  <defs>
    <style>
      .cls-1 {
        stroke: #ddd;
      }

      .cls-1, .cls-2, .cls-3, .cls-4, .cls-5, .cls-6 {
        stroke-miterlimit: 10;
      }

      .cls-1, .cls-2, .cls-5, .cls-6 {
        stroke-width: .4px;
      }

      .cls-1, .cls-5 {
        fill: #fff;
      }

      .cls-2 {
        stroke: #d9d9d9;
      }

      .cls-2, .cls-3, .cls-4, .cls-7, .cls-6, .cls-8 {
        fill: none;
      }

      .cls-9 {
        letter-spacing: -.02em;
      }

      .cls-10 {
        letter-spacing: 0em;
      }

      .cls-11 {
        fill: red;
      }

      .cls-11, .cls-12 {
        font-size: 9.96px;
      }

      .cls-11, .cls-12, .cls-13, .cls-14 {
        font-family: HelveticaNeue-Light, 'Helvetica Neue';
        font-weight: 300;
      }

      .cls-3 {
        stroke: red;
      }

      .cls-3, .cls-4 {
        stroke-width: .8px;
      }

      .cls-15 {
        letter-spacing: -.05em;
      }

      .cls-16 {
        letter-spacing: .28em;
      }

      .cls-17 {
        letter-spacing: -.01em;
      }

      .cls-4, .cls-6, .cls-8 {
        stroke: #dadada;
      }

      .cls-12, .cls-13, .cls-18, .cls-14 {
        fill: #dcdcdc;
      }

      .cls-19 {
        letter-spacing: .28em;
      }

      .cls-7 {
        stroke: #d3d3d3;
      }

      .cls-7, .cls-8 {
        stroke-linecap: round;
        stroke-linejoin: round;
        stroke-width: .32px;
      }

      .cls-20 {
        letter-spacing: .02em;
      }

      .cls-5 {
        stroke: #dcdcdc;
      }

      .cls-21 {
        letter-spacing: 0em;
      }

      .cls-22 {
        letter-spacing: 0em;
      }

      .cls-23 {
        letter-spacing: .28em;
      }

      .cls-13 {
        font-size: 10px;
      }

      .cls-24 {
        letter-spacing: .28em;
      }

      .cls-25 {
        letter-spacing: -.04em;
      }

      .cls-14 {
        font-size: 9.96px;
      }

      .cls-26 {
        letter-spacing: 0em;
      }
    </style>
  </defs>
  <line class="cls-1" x1="38.75" y1="176.92" x2="378.46" y2="176.92"/>
  <path class="cls-8" d="M377.26,175.32c.1.6,1.2,1.49,1.49,1.59-.3.1-1.39,1-1.49,1.59"/>
  <line class="cls-5" x1="38.75" y1="176.92" x2="38.75" y2="7.3"/>
  <path class="cls-7" d="M37.16,8.49c.6-.1,1.49-1.2,1.59-1.49.1.3,1,1.39,1.59,1.49"/>
  <line class="cls-6" x1="38.75" y1="179.75" x2="38.75" y2="176.92"/>
  <text class="cls-13" transform="translate(13.83 194.12)"><tspan x="0" y="0">Conceptual</tspan><tspan x="9.91" y="12">Design</tspan></text>
  <line class="cls-2" x1="38.75" y1="176.92" x2="38.75" y2="35.18"/>
  <line class="cls-6" x1="123.79" y1="179.75" x2="123.79" y2="176.92"/>
  <g>
    <path class="cls-18" d="M102.39,191.77c0,.37.05.67.17.92.12.25.28.44.49.59s.46.25.75.32c.29.06.59.09.92.09.19,0,.39-.03.61-.08.22-.05.42-.14.61-.25s.35-.27.47-.45c.13-.18.19-.41.19-.67,0-.2-.05-.37-.14-.52s-.21-.27-.35-.37-.3-.18-.47-.25c-.17-.06-.34-.11-.51-.15l-1.59-.39c-.21-.05-.41-.12-.6-.2-.2-.08-.37-.19-.51-.32-.15-.13-.27-.3-.36-.49s-.13-.43-.13-.71c0-.17.03-.38.1-.61.07-.23.19-.45.38-.66.18-.21.43-.38.75-.52.32-.14.73-.21,1.23-.21.35,0,.69.05,1.01.14.32.09.6.23.84.42s.43.42.58.7c.14.28.21.6.21.96h-.68c-.01-.27-.08-.51-.19-.71-.11-.2-.25-.37-.43-.51-.18-.14-.38-.24-.61-.31-.23-.07-.47-.1-.72-.1-.23,0-.46.02-.67.07-.22.05-.41.13-.57.24-.16.11-.29.25-.39.43-.1.18-.15.4-.15.67,0,.17.03.31.08.43s.13.23.24.32c.1.09.21.16.34.21.13.05.27.1.41.13l1.74.43c.25.07.49.15.71.24.22.1.42.22.59.36s.3.32.4.52c.1.21.14.46.14.75,0,.08,0,.19-.02.32-.02.13-.06.28-.12.42-.06.15-.15.3-.27.46-.12.15-.28.29-.48.42-.2.12-.46.22-.75.3-.3.08-.66.11-1.08.11s-.81-.05-1.17-.14c-.36-.1-.67-.25-.92-.45-.25-.2-.45-.46-.58-.77-.14-.31-.2-.69-.17-1.13h.68Z"/>
    <path class="cls-18" d="M111.89,190.58c-.09-.39-.25-.69-.48-.91-.23-.22-.56-.33-.98-.33-.3,0-.56.06-.79.19-.23.13-.42.29-.56.5-.15.21-.26.44-.34.71-.08.26-.12.53-.12.8s.04.54.12.8c.08.26.19.5.34.71.15.21.34.37.56.5.23.13.49.19.79.19.19,0,.38-.04.55-.11.17-.07.33-.18.46-.31.13-.13.24-.28.33-.46.09-.18.14-.38.16-.59h.63c-.09.63-.32,1.11-.69,1.46s-.85.52-1.44.52c-.39,0-.74-.07-1.04-.21-.3-.14-.56-.34-.76-.58-.21-.25-.36-.54-.47-.87-.11-.33-.16-.68-.16-1.05s.05-.72.16-1.05.26-.62.47-.86c.21-.25.46-.44.76-.59.3-.15.65-.22,1.04-.22.55,0,1.02.15,1.4.44.38.29.61.74.68,1.33h-.63Z"/>
    <path class="cls-18" d="M113.43,186.98h.63v2.87h.02c.12-.31.33-.56.64-.75.31-.19.64-.28,1.01-.28s.66.05.91.14c.24.09.44.22.58.39.15.17.25.38.31.62.06.25.09.52.09.83v3.32h-.63v-3.22c0-.22-.02-.42-.06-.62-.04-.19-.11-.35-.21-.49-.1-.14-.24-.25-.41-.33s-.38-.12-.63-.12-.48.04-.67.13c-.2.09-.36.21-.5.37-.14.16-.24.34-.32.56-.08.22-.12.45-.12.7v3.01h-.63v-7.14Z"/>
    <path class="cls-18" d="M119.18,191.71c0,.23.03.46.1.7s.17.46.3.65c.14.19.32.35.53.48.21.13.47.19.77.19.46,0,.82-.12,1.08-.36.26-.24.44-.56.54-.96h.63c-.13.59-.38,1.04-.73,1.36-.36.32-.86.48-1.51.48-.41,0-.76-.07-1.05-.21-.3-.14-.54-.34-.72-.59-.19-.25-.33-.54-.42-.87s-.13-.68-.13-1.04c0-.34.04-.67.13-1s.23-.62.42-.87c.19-.26.43-.46.72-.62.3-.16.65-.23,1.05-.23s.77.08,1.06.25c.29.17.53.38.71.66.18.27.31.58.39.93.08.35.11.7.1,1.06h-3.97ZM122.52,191.18c0-.24-.05-.47-.12-.69-.08-.22-.18-.42-.33-.58-.14-.17-.31-.31-.51-.41-.2-.1-.43-.16-.68-.16s-.49.05-.69.16c-.2.1-.37.24-.51.41s-.25.37-.33.59c-.08.22-.14.45-.17.68h3.34Z"/>
    <path class="cls-18" d="M124,188.96h.58v.87h.03c.17-.32.38-.57.65-.75s.61-.27,1.03-.27c.34,0,.65.08.92.25.28.17.46.42.55.76.15-.34.38-.59.68-.76.3-.17.62-.25.96-.25,1.14,0,1.71.6,1.71,1.81v3.5h-.63v-3.47c0-.43-.09-.75-.27-.97-.18-.22-.5-.33-.95-.33-.27,0-.5.05-.68.16-.18.1-.32.24-.43.41-.11.17-.18.37-.22.59-.04.22-.07.46-.07.7v2.92h-.63v-3.5c0-.17-.02-.34-.05-.5-.04-.16-.1-.29-.18-.41-.08-.12-.2-.21-.33-.28-.14-.07-.31-.1-.51-.1-.27,0-.5.05-.69.14s-.36.23-.48.4c-.12.17-.21.37-.28.6-.06.23-.09.48-.09.75v2.88h-.63v-5.16Z"/>
    <path class="cls-18" d="M132.27,190.54c.02-.3.08-.56.19-.78s.25-.4.43-.54.4-.24.64-.31c.25-.07.52-.1.82-.1.23,0,.45.02.68.06s.43.12.61.25c.18.12.33.29.44.5.11.22.17.5.17.84v2.74c0,.25.12.38.37.38.07,0,.14-.01.2-.04v.53c-.07.01-.14.02-.19.03s-.13,0-.21,0c-.16,0-.29-.02-.38-.07-.1-.04-.17-.1-.23-.18-.05-.08-.09-.17-.1-.29-.02-.11-.03-.23-.03-.36h-.02c-.11.17-.23.31-.34.44-.12.13-.25.24-.39.33-.14.09-.31.15-.49.2-.18.05-.4.07-.65.07s-.46-.03-.67-.08-.39-.15-.55-.27-.28-.28-.37-.47c-.09-.19-.13-.42-.13-.67,0-.36.08-.64.24-.84s.37-.36.63-.46c.26-.11.56-.18.89-.22.33-.04.66-.08,1-.12.13-.01.25-.03.35-.05.1-.02.18-.05.25-.1.07-.05.12-.12.16-.21.04-.09.05-.2.05-.34,0-.21-.04-.39-.1-.52-.07-.14-.17-.25-.29-.33s-.27-.13-.43-.17-.34-.04-.52-.04c-.4,0-.73.09-.98.29-.25.19-.39.49-.4.91h-.63ZM135.63,191.3h-.02c-.04.07-.12.13-.23.16s-.21.06-.3.07c-.27.05-.54.09-.82.12-.28.04-.54.09-.77.17s-.42.18-.58.31c-.15.14-.22.33-.22.58,0,.16.03.3.09.42s.15.23.25.32.23.16.37.2c.14.05.28.07.43.07.24,0,.47-.04.69-.11.22-.07.41-.18.58-.32.16-.14.29-.31.39-.51s.14-.43.14-.68v-.82Z"/>
    <path class="cls-18" d="M138.52,188.96h1.05v.53h-1.05v3.48c0,.21.03.37.08.48.06.12.2.18.42.2.18,0,.36,0,.54-.03v.53c-.09,0-.19,0-.28,0-.09,0-.19,0-.28,0-.42,0-.71-.08-.88-.25-.17-.16-.25-.46-.24-.9v-3.53h-.9v-.53h.9v-1.55h.63v1.55Z"/>
    <path class="cls-18" d="M140.49,186.98h.63v1.01h-.63v-1.01ZM140.49,188.96h.63v5.16h-.63v-5.16Z"/>
    <path class="cls-18" d="M145.97,190.58c-.09-.39-.25-.69-.48-.91s-.56-.33-.98-.33c-.3,0-.56.06-.79.19-.23.13-.41.29-.56.5-.15.21-.26.44-.34.71-.08.26-.12.53-.12.8s.04.54.12.8c.08.26.19.5.34.71.15.21.34.37.56.5.23.13.49.19.79.19.19,0,.38-.04.55-.11.17-.07.33-.18.46-.31.13-.13.24-.28.33-.46.09-.18.14-.38.16-.59h.63c-.09.63-.32,1.11-.69,1.46s-.85.52-1.44.52c-.39,0-.74-.07-1.04-.21-.3-.14-.56-.34-.76-.58-.21-.25-.36-.54-.47-.87-.11-.33-.16-.68-.16-1.05s.05-.72.16-1.05c.11-.33.26-.62.47-.86.21-.25.46-.44.76-.59.3-.15.65-.22,1.04-.22.55,0,1.02.15,1.4.44s.61.74.68,1.33h-.63Z"/>
    <path class="cls-18" d="M110.04,198.98h2.47c1.09.03,1.9.33,2.45.91.55.58.82,1.47.82,2.65s-.28,2.07-.82,2.65c-.55.58-1.37.89-2.45.91h-2.47v-7.14ZM110.72,205.54h1.45c.51,0,.95-.05,1.32-.16.37-.11.67-.29.92-.53s.42-.55.53-.93c.11-.38.17-.84.17-1.37s-.06-.99-.17-1.37-.29-.69-.53-.93c-.24-.24-.54-.41-.92-.52-.37-.11-.81-.17-1.32-.17h-1.45v5.98Z"/>
    <path class="cls-18" d="M117.14,203.71c0,.23.03.46.1.7s.17.46.3.65c.14.19.32.35.53.48.21.13.47.19.77.19.46,0,.82-.12,1.08-.36.26-.24.44-.56.54-.96h.63c-.13.59-.38,1.04-.73,1.36-.36.32-.86.48-1.51.48-.41,0-.76-.07-1.05-.21-.3-.14-.54-.34-.72-.59-.19-.25-.33-.54-.42-.87s-.13-.68-.13-1.04c0-.34.04-.67.13-1s.23-.62.42-.87c.19-.26.43-.46.72-.62.3-.16.65-.23,1.05-.23s.77.08,1.06.25c.29.17.53.38.71.66.18.27.31.58.39.93.08.35.11.7.1,1.06h-3.97ZM120.48,203.18c0-.24-.05-.47-.12-.69-.08-.22-.18-.42-.33-.58-.14-.17-.31-.31-.51-.41-.2-.1-.43-.16-.68-.16s-.49.05-.69.16c-.2.1-.37.24-.51.41s-.25.37-.33.59c-.08.22-.14.45-.17.68h3.34Z"/>
    <path class="cls-18" d="M125.05,202.47c0-.19-.05-.36-.12-.5-.07-.14-.17-.26-.29-.36-.12-.09-.26-.16-.42-.21-.16-.04-.33-.06-.51-.06-.14,0-.28.01-.42.04s-.27.08-.39.15c-.12.07-.22.16-.29.27s-.11.25-.11.42c0,.14.03.26.1.35s.16.18.26.25.22.12.35.17c.13.04.24.08.35.1l.84.19c.18.03.36.07.54.14s.33.16.47.28.25.25.33.42c.09.17.13.36.13.59,0,.28-.06.52-.19.71-.13.2-.29.36-.48.48s-.42.21-.67.26c-.25.05-.49.08-.73.08-.61,0-1.1-.14-1.47-.43-.38-.29-.59-.75-.64-1.38h.63c.03.43.18.75.46.96.28.22.63.33,1.05.33.15,0,.31-.02.47-.05s.31-.09.46-.17c.14-.08.25-.18.34-.3s.13-.28.13-.46c0-.15-.03-.28-.09-.38s-.15-.19-.25-.26-.23-.13-.37-.17-.27-.09-.42-.12l-.81-.18c-.21-.05-.4-.12-.57-.18-.17-.07-.32-.16-.46-.26-.13-.1-.23-.23-.3-.38-.07-.15-.11-.33-.11-.55,0-.26.06-.48.17-.67.12-.19.27-.34.46-.45.19-.11.39-.2.62-.25.23-.05.46-.08.68-.08.26,0,.5.03.72.1.22.07.42.17.59.31s.3.31.41.52c.1.21.16.45.17.73h-.63Z"/>
    <path class="cls-18" d="M126.78,198.98h.63v1.01h-.63v-1.01ZM126.78,200.96h.63v5.16h-.63v-5.16Z"/>
    <path class="cls-18" d="M132.98,205.7c0,.38-.04.72-.12,1.03s-.21.57-.39.78c-.18.21-.42.38-.71.49-.29.11-.64.17-1.06.17-.26,0-.51-.03-.76-.09-.25-.06-.47-.15-.67-.28-.2-.13-.36-.29-.49-.48-.13-.2-.2-.43-.22-.71h.63c.03.19.1.36.2.49.1.13.21.23.35.31s.29.14.45.17c.17.04.34.06.51.06.59,0,1.01-.17,1.27-.5s.39-.81.39-1.44v-.7h-.02c-.15.32-.36.58-.64.77s-.62.29-1,.29c-.41,0-.77-.07-1.06-.21-.29-.14-.53-.33-.72-.56-.19-.24-.33-.52-.42-.84-.09-.32-.13-.67-.13-1.04s.05-.69.15-1c.1-.32.25-.59.45-.83.2-.24.44-.42.73-.56s.62-.2.99-.2c.19,0,.38.03.54.08.17.05.33.13.46.23s.26.21.38.33c.11.13.19.26.25.4h.02v-.89h.63v4.74ZM130.69,205.53c.27,0,.51-.06.72-.17.21-.12.38-.27.52-.46.14-.19.25-.41.32-.65.07-.25.1-.5.1-.76s-.03-.51-.09-.76c-.06-.25-.16-.48-.29-.69-.13-.21-.3-.37-.51-.5-.21-.13-.46-.19-.76-.19s-.56.06-.77.18c-.21.12-.39.29-.53.49-.14.2-.24.43-.3.68-.06.26-.1.52-.1.78s.03.51.1.76c.07.25.17.46.31.65.14.19.32.34.53.46.21.12.47.17.76.17Z"/>
    <path class="cls-18" d="M134.17,200.96h.63v.89h.02c.12-.31.33-.56.64-.75.31-.19.64-.28,1.01-.28s.66.05.9.14c.24.09.44.22.58.39s.25.38.31.62c.06.25.09.52.09.83v3.32h-.63v-3.22c0-.22-.02-.42-.06-.62-.04-.19-.11-.35-.21-.49-.1-.14-.23-.25-.4-.33s-.38-.12-.63-.12-.48.04-.67.13-.36.21-.5.37c-.14.16-.24.34-.32.56-.08.22-.12.45-.12.7v3.01h-.63v-5.16Z"/>
  </g>
  <line class="cls-2" x1="123.79" y1="176.92" x2="123.79" y2="35.18"/>
  <line class="cls-6" x1="208.83" y1="179.75" x2="208.83" y2="176.92"/>
  <text class="cls-13" transform="translate(194.47 193.97)"><tspan x="0" y="0">Design</tspan></text>
  <text class="cls-13" transform="translate(180.9 205.93)"><tspan x="0" y="0">Development</tspan></text>
  <line class="cls-2" x1="208.83" y1="176.92" x2="208.83" y2="35.18"/>
  <line class="cls-6" x1="293.88" y1="179.75" x2="293.88" y2="176.92"/>
  <text class="cls-13" transform="translate(265.84 194.12)"><tspan x="0" y="0">Const</tspan><tspan class="cls-20" x="25.74" y="0">r</tspan><tspan x="29.04" y="0">uction</tspan></text>
  <line class="cls-2" x1="293.88" y1="176.92" x2="293.88" y2="35.18"/>
  <line class="cls-6" x1="378.92" y1="179.75" x2="378.92" y2="176.92"/>
  <text class="cls-13" transform="translate(367.53 193.97)"><tspan class="cls-15" x="0" y="0">P</tspan><tspan class="cls-21" x="5.81" y="0">ost-</tspan></text>
  <text class="cls-13" transform="translate(354 205.93)"><tspan x="0" y="0">Occupancy</tspan></text>
  <line class="cls-2" x1="378.92" y1="176.92" x2="378.92" y2="35.18"/>
  <path class="cls-4" d="M38.75,35.18c113.39,56.69,226.77,99.21,340.16,120.47"/>
  <path class="cls-3" d="M38.75,155.66c113.39-21.26,226.77-85.04,340.16-120.47"/>
  <text class="cls-12" transform="translate(61.4 24.57)"><tspan x="0" y="0">Majo</tspan><tspan class="cls-23" x="20.85" y="0">r</tspan><tspan x="26.76" y="0">Inﬂuence</tspan></text>
  <text class="cls-12" transform="translate(143.05 24.57)"><tspan x="0" y="0" xml:space="preserve">        Decreasin</tspan><tspan class="cls-23" x="64.79" y="0">g</tspan><tspan x="73.09" y="0">Inﬂuence</tspan></text>
  <text class="cls-12" transform="translate(291.56 24.57)"><tspan x="0" y="0">L</tspan><tspan class="cls-17" x="5.35" y="0">o</tspan><tspan class="cls-19" x="10.74" y="0">w</tspan><tspan class="cls-22" x="20.89" y="0">Inﬂuence</tspan></text>
  <text class="cls-14" transform="translate(55.78 40.75) rotate(23.5)"><tspan x="0" y="0">ABILIT</tspan><tspan class="cls-16" x="28.23" y="0">Y</tspan><tspan class="cls-25" x="37.09" y="0">T</tspan><tspan class="cls-24" x="42.23" y="0">O</tspan><tspan x="52.38" y="0">INFLUENC</tspan><tspan class="cls-24" x="99.06" y="0">E</tspan><tspan class="cls-10" x="107.74" y="0">COST</tspan></text>
  <text class="cls-11" transform="translate(220.9 109.65) rotate(-22)"><tspan x="0" y="0">CONST</tspan><tspan class="cls-9" x="33.22" y="0">R</tspan><tspan x="39.68" y="0">UCTIO</tspan><tspan class="cls-23" x="68.65" y="0">N</tspan><tspan class="cls-26" x="78.43" y="0">EXPENDITURES</tspan></text>
</svg>