<?xml version="1.0" encoding="utf-8" standalone="no"?>
<!DOCTYPE svg PUBLIC "-//W3C//DTD SVG 1.1//EN"
  "http://www.w3.org/Graphics/SVG/1.1/DTD/svg11.dtd">
<svg xmlns:xlink="http://www.w3.org/1999/xlink" width="605.683313pt" height="154.503125pt" viewBox="0 0 605.683313 154.503125" xmlns="http://www.w3.org/2000/svg" version="1.1">
 <metadata>
  <rdf:RDF xmlns:dc="http://purl.org/dc/elements/1.1/" xmlns:cc="http://creativecommons.org/ns#" xmlns:rdf="http://www.w3.org/1999/02/22-rdf-syntax-ns#">
   <cc:Work>
    <dc:type rdf:resource="http://purl.org/dc/dcmitype/StillImage"/>
    <dc:date>2025-02-07T03:27:44.723377</dc:date>
    <dc:format>image/svg+xml</dc:format>
    <dc:creator>
     <cc:Agent>
      <dc:title>Matplotlib v3.9.2, https://matplotlib.org/</dc:title>
     </cc:Agent>
    </dc:creator>
   </cc:Work>
  </rdf:RDF>
 </metadata>
 <defs>
  <style type="text/css">*{stroke-linejoin: round; stroke-linecap: butt}</style>
 </defs>
 <g id="figure_1">
  <g id="patch_1">
   <path d="M 0 154.503125 
L 605.683313 154.503125 
L 605.683313 0 
L 0 0 
z
" style="fill: #ffffff"/>
  </g>
  <g id="axes_1">
   <g id="patch_2">
    <path d="M 32.0125 62.64 
L 489.5725 62.64 
L 489.5725 7.2 
L 32.0125 7.2 
z
" style="fill: #ffffff"/>
   </g>
   <g id="matplotlib.axis_1">
    <g id="xtick_1">
     <g id="text_1">
      <!-- activity -->
      <g transform="translate(40.351875 106.500937) rotate(-90) scale(0.1 -0.1)">
       <defs>
        <path id="DejaVuSans-61" d="M 2194 1759 
Q 1497 1759 1228 1600 
Q 959 1441 959 1056 
Q 959 750 1161 570 
Q 1363 391 1709 391 
Q 2188 391 2477 730 
Q 2766 1069 2766 1631 
L 2766 1759 
L 2194 1759 
z
M 3341 1997 
L 3341 0 
L 2766 0 
L 2766 531 
Q 2569 213 2275 61 
Q 1981 -91 1556 -91 
Q 1019 -91 701 211 
Q 384 513 384 1019 
Q 384 1609 779 1909 
Q 1175 2209 1959 2209 
L 2766 2209 
L 2766 2266 
Q 2766 2663 2505 2880 
Q 2244 3097 1772 3097 
Q 1472 3097 1187 3025 
Q 903 2953 641 2809 
L 641 3341 
Q 956 3463 1253 3523 
Q 1550 3584 1831 3584 
Q 2591 3584 2966 3190 
Q 3341 2797 3341 1997 
z
" transform="scale(0.015625)"/>
        <path id="DejaVuSans-63" d="M 3122 3366 
L 3122 2828 
Q 2878 2963 2633 3030 
Q 2388 3097 2138 3097 
Q 1578 3097 1268 2742 
Q 959 2388 959 1747 
Q 959 1106 1268 751 
Q 1578 397 2138 397 
Q 2388 397 2633 464 
Q 2878 531 3122 666 
L 3122 134 
Q 2881 22 2623 -34 
Q 2366 -91 2075 -91 
Q 1284 -91 818 406 
Q 353 903 353 1747 
Q 353 2603 823 3093 
Q 1294 3584 2113 3584 
Q 2378 3584 2631 3529 
Q 2884 3475 3122 3366 
z
" transform="scale(0.015625)"/>
        <path id="DejaVuSans-74" d="M 1172 4494 
L 1172 3500 
L 2356 3500 
L 2356 3053 
L 1172 3053 
L 1172 1153 
Q 1172 725 1289 603 
Q 1406 481 1766 481 
L 2356 481 
L 2356 0 
L 1766 0 
Q 1100 0 847 248 
Q 594 497 594 1153 
L 594 3053 
L 172 3053 
L 172 3500 
L 594 3500 
L 594 4494 
L 1172 4494 
z
" transform="scale(0.015625)"/>
        <path id="DejaVuSans-69" d="M 603 3500 
L 1178 3500 
L 1178 0 
L 603 0 
L 603 3500 
z
M 603 4863 
L 1178 4863 
L 1178 4134 
L 603 4134 
L 603 4863 
z
" transform="scale(0.015625)"/>
        <path id="DejaVuSans-76" d="M 191 3500 
L 800 3500 
L 1894 563 
L 2988 3500 
L 3597 3500 
L 2284 0 
L 1503 0 
L 191 3500 
z
" transform="scale(0.015625)"/>
        <path id="DejaVuSans-79" d="M 2059 -325 
Q 1816 -950 1584 -1140 
Q 1353 -1331 966 -1331 
L 506 -1331 
L 506 -850 
L 844 -850 
Q 1081 -850 1212 -737 
Q 1344 -625 1503 -206 
L 1606 56 
L 191 3500 
L 800 3500 
L 1894 763 
L 2988 3500 
L 3597 3500 
L 2059 -325 
z
" transform="scale(0.015625)"/>
       </defs>
       <use xlink:href="#DejaVuSans-61"/>
       <use xlink:href="#DejaVuSans-63" x="61.279297"/>
       <use xlink:href="#DejaVuSans-74" x="116.259766"/>
       <use xlink:href="#DejaVuSans-69" x="155.46875"/>
       <use xlink:href="#DejaVuSans-76" x="183.251953"/>
       <use xlink:href="#DejaVuSans-69" x="242.431641"/>
       <use xlink:href="#DejaVuSans-74" x="270.214844"/>
       <use xlink:href="#DejaVuSans-79" x="309.423828"/>
      </g>
     </g>
    </g>
    <g id="xtick_2">
     <g id="text_2">
      <!-- beneficial -->
      <g transform="translate(51.511875 118.113437) rotate(-90) scale(0.1 -0.1)">
       <defs>
        <path id="DejaVuSans-62" d="M 3116 1747 
Q 3116 2381 2855 2742 
Q 2594 3103 2138 3103 
Q 1681 3103 1420 2742 
Q 1159 2381 1159 1747 
Q 1159 1113 1420 752 
Q 1681 391 2138 391 
Q 2594 391 2855 752 
Q 3116 1113 3116 1747 
z
M 1159 2969 
Q 1341 3281 1617 3432 
Q 1894 3584 2278 3584 
Q 2916 3584 3314 3078 
Q 3713 2572 3713 1747 
Q 3713 922 3314 415 
Q 2916 -91 2278 -91 
Q 1894 -91 1617 61 
Q 1341 213 1159 525 
L 1159 0 
L 581 0 
L 581 4863 
L 1159 4863 
L 1159 2969 
z
" transform="scale(0.015625)"/>
        <path id="DejaVuSans-65" d="M 3597 1894 
L 3597 1613 
L 953 1613 
Q 991 1019 1311 708 
Q 1631 397 2203 397 
Q 2534 397 2845 478 
Q 3156 559 3463 722 
L 3463 178 
Q 3153 47 2828 -22 
Q 2503 -91 2169 -91 
Q 1331 -91 842 396 
Q 353 884 353 1716 
Q 353 2575 817 3079 
Q 1281 3584 2069 3584 
Q 2775 3584 3186 3129 
Q 3597 2675 3597 1894 
z
M 3022 2063 
Q 3016 2534 2758 2815 
Q 2500 3097 2075 3097 
Q 1594 3097 1305 2825 
Q 1016 2553 972 2059 
L 3022 2063 
z
" transform="scale(0.015625)"/>
        <path id="DejaVuSans-6e" d="M 3513 2113 
L 3513 0 
L 2938 0 
L 2938 2094 
Q 2938 2591 2744 2837 
Q 2550 3084 2163 3084 
Q 1697 3084 1428 2787 
Q 1159 2491 1159 1978 
L 1159 0 
L 581 0 
L 581 3500 
L 1159 3500 
L 1159 2956 
Q 1366 3272 1645 3428 
Q 1925 3584 2291 3584 
Q 2894 3584 3203 3211 
Q 3513 2838 3513 2113 
z
" transform="scale(0.015625)"/>
        <path id="DejaVuSans-66" d="M 2375 4863 
L 2375 4384 
L 1825 4384 
Q 1516 4384 1395 4259 
Q 1275 4134 1275 3809 
L 1275 3500 
L 2222 3500 
L 2222 3053 
L 1275 3053 
L 1275 0 
L 697 0 
L 697 3053 
L 147 3053 
L 147 3500 
L 697 3500 
L 697 3744 
Q 697 4328 969 4595 
Q 1241 4863 1831 4863 
L 2375 4863 
z
" transform="scale(0.015625)"/>
        <path id="DejaVuSans-6c" d="M 603 4863 
L 1178 4863 
L 1178 0 
L 603 0 
L 603 4863 
z
" transform="scale(0.015625)"/>
       </defs>
       <use xlink:href="#DejaVuSans-62"/>
       <use xlink:href="#DejaVuSans-65" x="63.476562"/>
       <use xlink:href="#DejaVuSans-6e" x="125"/>
       <use xlink:href="#DejaVuSans-65" x="188.378906"/>
       <use xlink:href="#DejaVuSans-66" x="249.902344"/>
       <use xlink:href="#DejaVuSans-69" x="285.107422"/>
       <use xlink:href="#DejaVuSans-63" x="312.890625"/>
       <use xlink:href="#DejaVuSans-69" x="367.871094"/>
       <use xlink:href="#DejaVuSans-61" x="395.654297"/>
       <use xlink:href="#DejaVuSans-6c" x="456.933594"/>
      </g>
     </g>
    </g>
    <g id="xtick_3">
     <g id="text_3">
      <!-- comfort -->
      <g transform="translate(62.671875 108.668125) rotate(-90) scale(0.1 -0.1)">
       <defs>
        <path id="DejaVuSans-6f" d="M 1959 3097 
Q 1497 3097 1228 2736 
Q 959 2375 959 1747 
Q 959 1119 1226 758 
Q 1494 397 1959 397 
Q 2419 397 2687 759 
Q 2956 1122 2956 1747 
Q 2956 2369 2687 2733 
Q 2419 3097 1959 3097 
z
M 1959 3584 
Q 2709 3584 3137 3096 
Q 3566 2609 3566 1747 
Q 3566 888 3137 398 
Q 2709 -91 1959 -91 
Q 1206 -91 779 398 
Q 353 888 353 1747 
Q 353 2609 779 3096 
Q 1206 3584 1959 3584 
z
" transform="scale(0.015625)"/>
        <path id="DejaVuSans-6d" d="M 3328 2828 
Q 3544 3216 3844 3400 
Q 4144 3584 4550 3584 
Q 5097 3584 5394 3201 
Q 5691 2819 5691 2113 
L 5691 0 
L 5113 0 
L 5113 2094 
Q 5113 2597 4934 2840 
Q 4756 3084 4391 3084 
Q 3944 3084 3684 2787 
Q 3425 2491 3425 1978 
L 3425 0 
L 2847 0 
L 2847 2094 
Q 2847 2600 2669 2842 
Q 2491 3084 2119 3084 
Q 1678 3084 1418 2786 
Q 1159 2488 1159 1978 
L 1159 0 
L 581 0 
L 581 3500 
L 1159 3500 
L 1159 2956 
Q 1356 3278 1631 3431 
Q 1906 3584 2284 3584 
Q 2666 3584 2933 3390 
Q 3200 3197 3328 2828 
z
" transform="scale(0.015625)"/>
        <path id="DejaVuSans-72" d="M 2631 2963 
Q 2534 3019 2420 3045 
Q 2306 3072 2169 3072 
Q 1681 3072 1420 2755 
Q 1159 2438 1159 1844 
L 1159 0 
L 581 0 
L 581 3500 
L 1159 3500 
L 1159 2956 
Q 1341 3275 1631 3429 
Q 1922 3584 2338 3584 
Q 2397 3584 2469 3576 
Q 2541 3569 2628 3553 
L 2631 2963 
z
" transform="scale(0.015625)"/>
       </defs>
       <use xlink:href="#DejaVuSans-63"/>
       <use xlink:href="#DejaVuSans-6f" x="54.980469"/>
       <use xlink:href="#DejaVuSans-6d" x="116.162109"/>
       <use xlink:href="#DejaVuSans-66" x="213.574219"/>
       <use xlink:href="#DejaVuSans-6f" x="248.779297"/>
       <use xlink:href="#DejaVuSans-72" x="309.960938"/>
       <use xlink:href="#DejaVuSans-74" x="351.074219"/>
      </g>
     </g>
    </g>
    <g id="xtick_4">
     <g id="text_4">
      <!-- behavior -->
      <g transform="translate(73.831875 113.53375) rotate(-90) scale(0.1 -0.1)">
       <defs>
        <path id="DejaVuSans-68" d="M 3513 2113 
L 3513 0 
L 2938 0 
L 2938 2094 
Q 2938 2591 2744 2837 
Q 2550 3084 2163 3084 
Q 1697 3084 1428 2787 
Q 1159 2491 1159 1978 
L 1159 0 
L 581 0 
L 581 4863 
L 1159 4863 
L 1159 2956 
Q 1366 3272 1645 3428 
Q 1925 3584 2291 3584 
Q 2894 3584 3203 3211 
Q 3513 2838 3513 2113 
z
" transform="scale(0.015625)"/>
       </defs>
       <use xlink:href="#DejaVuSans-62"/>
       <use xlink:href="#DejaVuSans-65" x="63.476562"/>
       <use xlink:href="#DejaVuSans-68" x="125"/>
       <use xlink:href="#DejaVuSans-61" x="188.378906"/>
       <use xlink:href="#DejaVuSans-76" x="249.658203"/>
       <use xlink:href="#DejaVuSans-69" x="308.837891"/>
       <use xlink:href="#DejaVuSans-6f" x="336.621094"/>
       <use xlink:href="#DejaVuSans-72" x="397.802734"/>
      </g>
     </g>
    </g>
    <g id="xtick_5">
     <g id="text_5">
      <!-- perception -->
      <g transform="translate(84.991875 123.182187) rotate(-90) scale(0.1 -0.1)">
       <defs>
        <path id="DejaVuSans-70" d="M 1159 525 
L 1159 -1331 
L 581 -1331 
L 581 3500 
L 1159 3500 
L 1159 2969 
Q 1341 3281 1617 3432 
Q 1894 3584 2278 3584 
Q 2916 3584 3314 3078 
Q 3713 2572 3713 1747 
Q 3713 922 3314 415 
Q 2916 -91 2278 -91 
Q 1894 -91 1617 61 
Q 1341 213 1159 525 
z
M 3116 1747 
Q 3116 2381 2855 2742 
Q 2594 3103 2138 3103 
Q 1681 3103 1420 2742 
Q 1159 2381 1159 1747 
Q 1159 1113 1420 752 
Q 1681 391 2138 391 
Q 2594 391 2855 752 
Q 3116 1113 3116 1747 
z
" transform="scale(0.015625)"/>
       </defs>
       <use xlink:href="#DejaVuSans-70"/>
       <use xlink:href="#DejaVuSans-65" x="63.476562"/>
       <use xlink:href="#DejaVuSans-72" x="125"/>
       <use xlink:href="#DejaVuSans-63" x="163.863281"/>
       <use xlink:href="#DejaVuSans-65" x="218.84375"/>
       <use xlink:href="#DejaVuSans-70" x="280.367188"/>
       <use xlink:href="#DejaVuSans-74" x="343.84375"/>
       <use xlink:href="#DejaVuSans-69" x="383.052734"/>
       <use xlink:href="#DejaVuSans-6f" x="410.835938"/>
       <use xlink:href="#DejaVuSans-6e" x="472.017578"/>
      </g>
     </g>
    </g>
    <g id="xtick_6">
     <g id="text_6">
      <!-- exercise -->
      <g transform="translate(96.151875 110.9025) rotate(-90) scale(0.1 -0.1)">
       <defs>
        <path id="DejaVuSans-78" d="M 3513 3500 
L 2247 1797 
L 3578 0 
L 2900 0 
L 1881 1375 
L 863 0 
L 184 0 
L 1544 1831 
L 300 3500 
L 978 3500 
L 1906 2253 
L 2834 3500 
L 3513 3500 
z
" transform="scale(0.015625)"/>
        <path id="DejaVuSans-73" d="M 2834 3397 
L 2834 2853 
Q 2591 2978 2328 3040 
Q 2066 3103 1784 3103 
Q 1356 3103 1142 2972 
Q 928 2841 928 2578 
Q 928 2378 1081 2264 
Q 1234 2150 1697 2047 
L 1894 2003 
Q 2506 1872 2764 1633 
Q 3022 1394 3022 966 
Q 3022 478 2636 193 
Q 2250 -91 1575 -91 
Q 1294 -91 989 -36 
Q 684 19 347 128 
L 347 722 
Q 666 556 975 473 
Q 1284 391 1588 391 
Q 1994 391 2212 530 
Q 2431 669 2431 922 
Q 2431 1156 2273 1281 
Q 2116 1406 1581 1522 
L 1381 1569 
Q 847 1681 609 1914 
Q 372 2147 372 2553 
Q 372 3047 722 3315 
Q 1072 3584 1716 3584 
Q 2034 3584 2315 3537 
Q 2597 3491 2834 3397 
z
" transform="scale(0.015625)"/>
       </defs>
       <use xlink:href="#DejaVuSans-65"/>
       <use xlink:href="#DejaVuSans-78" x="59.773438"/>
       <use xlink:href="#DejaVuSans-65" x="115.828125"/>
       <use xlink:href="#DejaVuSans-72" x="177.351562"/>
       <use xlink:href="#DejaVuSans-63" x="216.214844"/>
       <use xlink:href="#DejaVuSans-69" x="271.195312"/>
       <use xlink:href="#DejaVuSans-73" x="298.978516"/>
       <use xlink:href="#DejaVuSans-65" x="351.078125"/>
      </g>
     </g>
    </g>
    <g id="xtick_7">
     <g id="text_7">
      <!-- depression -->
      <g transform="translate(107.311875 124.182187) rotate(-90) scale(0.1 -0.1)">
       <defs>
        <path id="DejaVuSans-64" d="M 2906 2969 
L 2906 4863 
L 3481 4863 
L 3481 0 
L 2906 0 
L 2906 525 
Q 2725 213 2448 61 
Q 2172 -91 1784 -91 
Q 1150 -91 751 415 
Q 353 922 353 1747 
Q 353 2572 751 3078 
Q 1150 3584 1784 3584 
Q 2172 3584 2448 3432 
Q 2725 3281 2906 2969 
z
M 947 1747 
Q 947 1113 1208 752 
Q 1469 391 1925 391 
Q 2381 391 2643 752 
Q 2906 1113 2906 1747 
Q 2906 2381 2643 2742 
Q 2381 3103 1925 3103 
Q 1469 3103 1208 2742 
Q 947 2381 947 1747 
z
" transform="scale(0.015625)"/>
       </defs>
       <use xlink:href="#DejaVuSans-64"/>
       <use xlink:href="#DejaVuSans-65" x="63.476562"/>
       <use xlink:href="#DejaVuSans-70" x="125"/>
       <use xlink:href="#DejaVuSans-72" x="188.476562"/>
       <use xlink:href="#DejaVuSans-65" x="227.339844"/>
       <use xlink:href="#DejaVuSans-73" x="288.863281"/>
       <use xlink:href="#DejaVuSans-73" x="340.962891"/>
       <use xlink:href="#DejaVuSans-69" x="393.0625"/>
       <use xlink:href="#DejaVuSans-6f" x="420.845703"/>
       <use xlink:href="#DejaVuSans-6e" x="482.027344"/>
      </g>
     </g>
    </g>
    <g id="xtick_8">
     <g id="text_8">
      <!-- engagement -->
      <g transform="translate(118.471875 133.260312) rotate(-90) scale(0.1 -0.1)">
       <defs>
        <path id="DejaVuSans-67" d="M 2906 1791 
Q 2906 2416 2648 2759 
Q 2391 3103 1925 3103 
Q 1463 3103 1205 2759 
Q 947 2416 947 1791 
Q 947 1169 1205 825 
Q 1463 481 1925 481 
Q 2391 481 2648 825 
Q 2906 1169 2906 1791 
z
M 3481 434 
Q 3481 -459 3084 -895 
Q 2688 -1331 1869 -1331 
Q 1566 -1331 1297 -1286 
Q 1028 -1241 775 -1147 
L 775 -588 
Q 1028 -725 1275 -790 
Q 1522 -856 1778 -856 
Q 2344 -856 2625 -561 
Q 2906 -266 2906 331 
L 2906 616 
Q 2728 306 2450 153 
Q 2172 0 1784 0 
Q 1141 0 747 490 
Q 353 981 353 1791 
Q 353 2603 747 3093 
Q 1141 3584 1784 3584 
Q 2172 3584 2450 3431 
Q 2728 3278 2906 2969 
L 2906 3500 
L 3481 3500 
L 3481 434 
z
" transform="scale(0.015625)"/>
       </defs>
       <use xlink:href="#DejaVuSans-65"/>
       <use xlink:href="#DejaVuSans-6e" x="61.523438"/>
       <use xlink:href="#DejaVuSans-67" x="124.902344"/>
       <use xlink:href="#DejaVuSans-61" x="188.378906"/>
       <use xlink:href="#DejaVuSans-67" x="249.658203"/>
       <use xlink:href="#DejaVuSans-65" x="313.134766"/>
       <use xlink:href="#DejaVuSans-6d" x="374.658203"/>
       <use xlink:href="#DejaVuSans-65" x="472.070312"/>
       <use xlink:href="#DejaVuSans-6e" x="533.59375"/>
       <use xlink:href="#DejaVuSans-74" x="596.972656"/>
      </g>
     </g>
    </g>
    <g id="xtick_9">
     <g id="text_9">
      <!-- healthy -->
      <g transform="translate(129.631875 107.213437) rotate(-90) scale(0.1 -0.1)">
       <use xlink:href="#DejaVuSans-68"/>
       <use xlink:href="#DejaVuSans-65" x="63.378906"/>
       <use xlink:href="#DejaVuSans-61" x="124.902344"/>
       <use xlink:href="#DejaVuSans-6c" x="186.181641"/>
       <use xlink:href="#DejaVuSans-74" x="213.964844"/>
       <use xlink:href="#DejaVuSans-68" x="253.173828"/>
       <use xlink:href="#DejaVuSans-79" x="316.552734"/>
      </g>
     </g>
    </g>
    <g id="xtick_10">
     <g id="text_10">
      <!-- conditions -->
      <g transform="translate(140.791875 121.085312) rotate(-90) scale(0.1 -0.1)">
       <use xlink:href="#DejaVuSans-63"/>
       <use xlink:href="#DejaVuSans-6f" x="54.980469"/>
       <use xlink:href="#DejaVuSans-6e" x="116.162109"/>
       <use xlink:href="#DejaVuSans-64" x="179.541016"/>
       <use xlink:href="#DejaVuSans-69" x="243.017578"/>
       <use xlink:href="#DejaVuSans-74" x="270.800781"/>
       <use xlink:href="#DejaVuSans-69" x="310.009766"/>
       <use xlink:href="#DejaVuSans-6f" x="337.792969"/>
       <use xlink:href="#DejaVuSans-6e" x="398.974609"/>
       <use xlink:href="#DejaVuSans-73" x="462.353516"/>
      </g>
     </g>
    </g>
    <g id="xtick_11">
     <g id="text_11">
      <!-- restoration -->
      <g transform="translate(151.951875 124.32125) rotate(-90) scale(0.1 -0.1)">
       <use xlink:href="#DejaVuSans-72"/>
       <use xlink:href="#DejaVuSans-65" x="38.863281"/>
       <use xlink:href="#DejaVuSans-73" x="100.386719"/>
       <use xlink:href="#DejaVuSans-74" x="152.486328"/>
       <use xlink:href="#DejaVuSans-6f" x="191.695312"/>
       <use xlink:href="#DejaVuSans-72" x="252.876953"/>
       <use xlink:href="#DejaVuSans-61" x="293.990234"/>
       <use xlink:href="#DejaVuSans-74" x="355.269531"/>
       <use xlink:href="#DejaVuSans-69" x="394.478516"/>
       <use xlink:href="#DejaVuSans-6f" x="422.261719"/>
       <use xlink:href="#DejaVuSans-6e" x="483.443359"/>
      </g>
     </g>
    </g>
    <g id="xtick_12">
     <g id="text_12">
      <!-- disorders -->
      <g transform="translate(163.111875 115.8525) rotate(-90) scale(0.1 -0.1)">
       <use xlink:href="#DejaVuSans-64"/>
       <use xlink:href="#DejaVuSans-69" x="63.476562"/>
       <use xlink:href="#DejaVuSans-73" x="91.259766"/>
       <use xlink:href="#DejaVuSans-6f" x="143.359375"/>
       <use xlink:href="#DejaVuSans-72" x="204.541016"/>
       <use xlink:href="#DejaVuSans-64" x="243.904297"/>
       <use xlink:href="#DejaVuSans-65" x="307.380859"/>
       <use xlink:href="#DejaVuSans-72" x="368.904297"/>
       <use xlink:href="#DejaVuSans-73" x="410.017578"/>
      </g>
     </g>
    </g>
    <g id="xtick_13">
     <g id="text_13">
      <!-- needs -->
      <g transform="translate(174.271875 99.841562) rotate(-90) scale(0.1 -0.1)">
       <use xlink:href="#DejaVuSans-6e"/>
       <use xlink:href="#DejaVuSans-65" x="63.378906"/>
       <use xlink:href="#DejaVuSans-65" x="124.902344"/>
       <use xlink:href="#DejaVuSans-64" x="186.425781"/>
       <use xlink:href="#DejaVuSans-73" x="249.902344"/>
      </g>
     </g>
    </g>
    <g id="xtick_14">
     <g id="text_14">
      <!-- sleep -->
      <g transform="translate(185.431875 96.282187) rotate(-90) scale(0.1 -0.1)">
       <use xlink:href="#DejaVuSans-73"/>
       <use xlink:href="#DejaVuSans-6c" x="52.099609"/>
       <use xlink:href="#DejaVuSans-65" x="79.882812"/>
       <use xlink:href="#DejaVuSans-65" x="141.40625"/>
       <use xlink:href="#DejaVuSans-70" x="202.929688"/>
      </g>
     </g>
    </g>
    <g id="xtick_15">
     <g id="text_15">
      <!-- health -->
      <g transform="translate(196.591875 101.294687) rotate(-90) scale(0.1 -0.1)">
       <use xlink:href="#DejaVuSans-68"/>
       <use xlink:href="#DejaVuSans-65" x="63.378906"/>
       <use xlink:href="#DejaVuSans-61" x="124.902344"/>
       <use xlink:href="#DejaVuSans-6c" x="186.181641"/>
       <use xlink:href="#DejaVuSans-74" x="213.964844"/>
       <use xlink:href="#DejaVuSans-68" x="253.173828"/>
      </g>
     </g>
    </g>
    <g id="xtick_16">
     <g id="text_16">
      <!-- stressors -->
      <g transform="translate(207.751875 114.666562) rotate(-90) scale(0.1 -0.1)">
       <use xlink:href="#DejaVuSans-73"/>
       <use xlink:href="#DejaVuSans-74" x="52.099609"/>
       <use xlink:href="#DejaVuSans-72" x="91.308594"/>
       <use xlink:href="#DejaVuSans-65" x="130.171875"/>
       <use xlink:href="#DejaVuSans-73" x="191.695312"/>
       <use xlink:href="#DejaVuSans-73" x="243.794922"/>
       <use xlink:href="#DejaVuSans-6f" x="295.894531"/>
       <use xlink:href="#DejaVuSans-72" x="357.076172"/>
       <use xlink:href="#DejaVuSans-73" x="398.189453"/>
      </g>
     </g>
    </g>
    <g id="xtick_17">
     <g id="text_17">
      <!-- work -->
      <g transform="translate(218.911875 93.838437) rotate(-90) scale(0.1 -0.1)">
       <defs>
        <path id="DejaVuSans-77" d="M 269 3500 
L 844 3500 
L 1563 769 
L 2278 3500 
L 2956 3500 
L 3675 769 
L 4391 3500 
L 4966 3500 
L 4050 0 
L 3372 0 
L 2619 2869 
L 1863 0 
L 1184 0 
L 269 3500 
z
" transform="scale(0.015625)"/>
        <path id="DejaVuSans-6b" d="M 581 4863 
L 1159 4863 
L 1159 1991 
L 2875 3500 
L 3609 3500 
L 1753 1863 
L 3688 0 
L 2938 0 
L 1159 1709 
L 1159 0 
L 581 0 
L 581 4863 
z
" transform="scale(0.015625)"/>
       </defs>
       <use xlink:href="#DejaVuSans-77"/>
       <use xlink:href="#DejaVuSans-6f" x="81.787109"/>
       <use xlink:href="#DejaVuSans-72" x="142.96875"/>
       <use xlink:href="#DejaVuSans-6b" x="184.082031"/>
      </g>
     </g>
    </g>
    <g id="xtick_18">
     <g id="text_18">
      <!-- experience -->
      <g transform="translate(230.071875 125.069687) rotate(-90) scale(0.1 -0.1)">
       <use xlink:href="#DejaVuSans-65"/>
       <use xlink:href="#DejaVuSans-78" x="59.773438"/>
       <use xlink:href="#DejaVuSans-70" x="118.953125"/>
       <use xlink:href="#DejaVuSans-65" x="182.429688"/>
       <use xlink:href="#DejaVuSans-72" x="243.953125"/>
       <use xlink:href="#DejaVuSans-69" x="285.066406"/>
       <use xlink:href="#DejaVuSans-65" x="312.849609"/>
       <use xlink:href="#DejaVuSans-6e" x="374.373047"/>
       <use xlink:href="#DejaVuSans-63" x="437.751953"/>
       <use xlink:href="#DejaVuSans-65" x="492.732422"/>
      </g>
     </g>
    </g>
    <g id="xtick_19">
     <g id="text_19">
      <!-- positive -->
      <g transform="translate(241.231875 108.865) rotate(-90) scale(0.1 -0.1)">
       <use xlink:href="#DejaVuSans-70"/>
       <use xlink:href="#DejaVuSans-6f" x="63.476562"/>
       <use xlink:href="#DejaVuSans-73" x="124.658203"/>
       <use xlink:href="#DejaVuSans-69" x="176.757812"/>
       <use xlink:href="#DejaVuSans-74" x="204.541016"/>
       <use xlink:href="#DejaVuSans-69" x="243.75"/>
       <use xlink:href="#DejaVuSans-76" x="271.533203"/>
       <use xlink:href="#DejaVuSans-65" x="330.712891"/>
      </g>
     </g>
    </g>
    <g id="xtick_20">
     <g id="text_20">
      <!-- subjective -->
      <g transform="translate(252.391875 120.735312) rotate(-90) scale(0.1 -0.1)">
       <defs>
        <path id="DejaVuSans-75" d="M 544 1381 
L 544 3500 
L 1119 3500 
L 1119 1403 
Q 1119 906 1312 657 
Q 1506 409 1894 409 
Q 2359 409 2629 706 
Q 2900 1003 2900 1516 
L 2900 3500 
L 3475 3500 
L 3475 0 
L 2900 0 
L 2900 538 
Q 2691 219 2414 64 
Q 2138 -91 1772 -91 
Q 1169 -91 856 284 
Q 544 659 544 1381 
z
M 1991 3584 
L 1991 3584 
z
" transform="scale(0.015625)"/>
        <path id="DejaVuSans-6a" d="M 603 3500 
L 1178 3500 
L 1178 -63 
Q 1178 -731 923 -1031 
Q 669 -1331 103 -1331 
L -116 -1331 
L -116 -844 
L 38 -844 
Q 366 -844 484 -692 
Q 603 -541 603 -63 
L 603 3500 
z
M 603 4863 
L 1178 4863 
L 1178 4134 
L 603 4134 
L 603 4863 
z
" transform="scale(0.015625)"/>
       </defs>
       <use xlink:href="#DejaVuSans-73"/>
       <use xlink:href="#DejaVuSans-75" x="52.099609"/>
       <use xlink:href="#DejaVuSans-62" x="115.478516"/>
       <use xlink:href="#DejaVuSans-6a" x="178.955078"/>
       <use xlink:href="#DejaVuSans-65" x="206.738281"/>
       <use xlink:href="#DejaVuSans-63" x="268.261719"/>
       <use xlink:href="#DejaVuSans-74" x="323.242188"/>
       <use xlink:href="#DejaVuSans-69" x="362.451172"/>
       <use xlink:href="#DejaVuSans-76" x="390.234375"/>
       <use xlink:href="#DejaVuSans-65" x="449.414062"/>
      </g>
     </g>
    </g>
    <g id="xtick_21">
     <g id="text_21">
      <!-- attention -->
      <g transform="translate(263.551875 115.254062) rotate(-90) scale(0.1 -0.1)">
       <use xlink:href="#DejaVuSans-61"/>
       <use xlink:href="#DejaVuSans-74" x="61.279297"/>
       <use xlink:href="#DejaVuSans-74" x="100.488281"/>
       <use xlink:href="#DejaVuSans-65" x="139.697266"/>
       <use xlink:href="#DejaVuSans-6e" x="201.220703"/>
       <use xlink:href="#DejaVuSans-74" x="264.599609"/>
       <use xlink:href="#DejaVuSans-69" x="303.808594"/>
       <use xlink:href="#DejaVuSans-6f" x="331.591797"/>
       <use xlink:href="#DejaVuSans-6e" x="392.773438"/>
      </g>
     </g>
    </g>
    <g id="xtick_22">
     <g id="text_22">
      <!-- satisfaction -->
      <g transform="translate(274.711875 127.186875) rotate(-90) scale(0.1 -0.1)">
       <use xlink:href="#DejaVuSans-73"/>
       <use xlink:href="#DejaVuSans-61" x="52.099609"/>
       <use xlink:href="#DejaVuSans-74" x="113.378906"/>
       <use xlink:href="#DejaVuSans-69" x="152.587891"/>
       <use xlink:href="#DejaVuSans-73" x="180.371094"/>
       <use xlink:href="#DejaVuSans-66" x="232.470703"/>
       <use xlink:href="#DejaVuSans-61" x="267.675781"/>
       <use xlink:href="#DejaVuSans-63" x="328.955078"/>
       <use xlink:href="#DejaVuSans-74" x="383.935547"/>
       <use xlink:href="#DejaVuSans-69" x="423.144531"/>
       <use xlink:href="#DejaVuSans-6f" x="450.927734"/>
       <use xlink:href="#DejaVuSans-6e" x="512.109375"/>
      </g>
     </g>
    </g>
    <g id="xtick_23">
     <g id="text_23">
      <!-- risk -->
      <g transform="translate(285.871875 87.529062) rotate(-90) scale(0.1 -0.1)">
       <use xlink:href="#DejaVuSans-72"/>
       <use xlink:href="#DejaVuSans-69" x="41.113281"/>
       <use xlink:href="#DejaVuSans-73" x="68.896484"/>
       <use xlink:href="#DejaVuSans-6b" x="120.996094"/>
      </g>
     </g>
    </g>
    <g id="xtick_24">
     <g id="text_24">
      <!-- issues -->
      <g transform="translate(297.031875 100.536875) rotate(-90) scale(0.1 -0.1)">
       <use xlink:href="#DejaVuSans-69"/>
       <use xlink:href="#DejaVuSans-73" x="27.783203"/>
       <use xlink:href="#DejaVuSans-73" x="79.882812"/>
       <use xlink:href="#DejaVuSans-75" x="131.982422"/>
       <use xlink:href="#DejaVuSans-65" x="195.361328"/>
       <use xlink:href="#DejaVuSans-73" x="256.884766"/>
      </g>
     </g>
    </g>
    <g id="xtick_25">
     <g id="text_25">
      <!-- care -->
      <g transform="translate(308.191875 91.305625) rotate(-90) scale(0.1 -0.1)">
       <use xlink:href="#DejaVuSans-63"/>
       <use xlink:href="#DejaVuSans-61" x="54.980469"/>
       <use xlink:href="#DejaVuSans-72" x="116.259766"/>
       <use xlink:href="#DejaVuSans-65" x="155.123047"/>
      </g>
     </g>
    </g>
    <g id="xtick_26">
     <g id="text_26">
      <!-- wellbeing -->
      <g transform="translate(319.351875 117.493125) rotate(-90) scale(0.1 -0.1)">
       <use xlink:href="#DejaVuSans-77"/>
       <use xlink:href="#DejaVuSans-65" x="81.787109"/>
       <use xlink:href="#DejaVuSans-6c" x="143.310547"/>
       <use xlink:href="#DejaVuSans-6c" x="171.09375"/>
       <use xlink:href="#DejaVuSans-62" x="198.876953"/>
       <use xlink:href="#DejaVuSans-65" x="262.353516"/>
       <use xlink:href="#DejaVuSans-69" x="323.876953"/>
       <use xlink:href="#DejaVuSans-6e" x="351.660156"/>
       <use xlink:href="#DejaVuSans-67" x="415.039062"/>
      </g>
     </g>
    </g>
    <g id="xtick_27">
     <g id="text_27">
      <!-- psychological -->
      <g transform="translate(330.511875 137.499375) rotate(-90) scale(0.1 -0.1)">
       <use xlink:href="#DejaVuSans-70"/>
       <use xlink:href="#DejaVuSans-73" x="63.476562"/>
       <use xlink:href="#DejaVuSans-79" x="115.576172"/>
       <use xlink:href="#DejaVuSans-63" x="174.755859"/>
       <use xlink:href="#DejaVuSans-68" x="229.736328"/>
       <use xlink:href="#DejaVuSans-6f" x="293.115234"/>
       <use xlink:href="#DejaVuSans-6c" x="354.296875"/>
       <use xlink:href="#DejaVuSans-6f" x="382.080078"/>
       <use xlink:href="#DejaVuSans-67" x="443.261719"/>
       <use xlink:href="#DejaVuSans-69" x="506.738281"/>
       <use xlink:href="#DejaVuSans-63" x="534.521484"/>
       <use xlink:href="#DejaVuSans-61" x="589.501953"/>
       <use xlink:href="#DejaVuSans-6c" x="650.78125"/>
      </g>
     </g>
    </g>
    <g id="xtick_28">
     <g id="text_28">
      <!-- mental -->
      <g transform="translate(341.671875 104.697812) rotate(-90) scale(0.1 -0.1)">
       <use xlink:href="#DejaVuSans-6d"/>
       <use xlink:href="#DejaVuSans-65" x="97.412109"/>
       <use xlink:href="#DejaVuSans-6e" x="158.935547"/>
       <use xlink:href="#DejaVuSans-74" x="222.314453"/>
       <use xlink:href="#DejaVuSans-61" x="261.523438"/>
       <use xlink:href="#DejaVuSans-6c" x="322.802734"/>
      </g>
     </g>
    </g>
    <g id="xtick_29">
     <g id="text_29">
      <!-- support -->
      <g transform="translate(352.831875 108.03375) rotate(-90) scale(0.1 -0.1)">
       <use xlink:href="#DejaVuSans-73"/>
       <use xlink:href="#DejaVuSans-75" x="52.099609"/>
       <use xlink:href="#DejaVuSans-70" x="115.478516"/>
       <use xlink:href="#DejaVuSans-70" x="178.955078"/>
       <use xlink:href="#DejaVuSans-6f" x="242.431641"/>
       <use xlink:href="#DejaVuSans-72" x="303.613281"/>
       <use xlink:href="#DejaVuSans-74" x="344.726562"/>
      </g>
     </g>
    </g>
    <g id="xtick_30">
     <g id="text_30">
      <!-- physical -->
      <g transform="translate(363.991875 110.636875) rotate(-90) scale(0.1 -0.1)">
       <use xlink:href="#DejaVuSans-70"/>
       <use xlink:href="#DejaVuSans-68" x="63.476562"/>
       <use xlink:href="#DejaVuSans-79" x="126.855469"/>
       <use xlink:href="#DejaVuSans-73" x="186.035156"/>
       <use xlink:href="#DejaVuSans-69" x="238.134766"/>
       <use xlink:href="#DejaVuSans-63" x="265.917969"/>
       <use xlink:href="#DejaVuSans-61" x="320.898438"/>
       <use xlink:href="#DejaVuSans-6c" x="382.177734"/>
      </g>
     </g>
    </g>
    <g id="xtick_31">
     <g id="text_31">
      <!-- disease -->
      <g transform="translate(375.151875 107.619687) rotate(-90) scale(0.1 -0.1)">
       <use xlink:href="#DejaVuSans-64"/>
       <use xlink:href="#DejaVuSans-69" x="63.476562"/>
       <use xlink:href="#DejaVuSans-73" x="91.259766"/>
       <use xlink:href="#DejaVuSans-65" x="143.359375"/>
       <use xlink:href="#DejaVuSans-61" x="204.882812"/>
       <use xlink:href="#DejaVuSans-73" x="266.162109"/>
       <use xlink:href="#DejaVuSans-65" x="318.261719"/>
      </g>
     </g>
    </g>
    <g id="xtick_32">
     <g id="text_32">
      <!-- vulnerable -->
      <g transform="translate(386.311875 122.68375) rotate(-90) scale(0.1 -0.1)">
       <use xlink:href="#DejaVuSans-76"/>
       <use xlink:href="#DejaVuSans-75" x="59.179688"/>
       <use xlink:href="#DejaVuSans-6c" x="122.558594"/>
       <use xlink:href="#DejaVuSans-6e" x="150.341797"/>
       <use xlink:href="#DejaVuSans-65" x="213.720703"/>
       <use xlink:href="#DejaVuSans-72" x="275.244141"/>
       <use xlink:href="#DejaVuSans-61" x="316.357422"/>
       <use xlink:href="#DejaVuSans-62" x="377.636719"/>
       <use xlink:href="#DejaVuSans-6c" x="441.113281"/>
       <use xlink:href="#DejaVuSans-65" x="468.896484"/>
      </g>
     </g>
    </g>
    <g id="xtick_33">
     <g id="text_33">
      <!-- life -->
      <g transform="translate(397.471875 84.869687) rotate(-90) scale(0.1 -0.1)">
       <use xlink:href="#DejaVuSans-6c"/>
       <use xlink:href="#DejaVuSans-69" x="27.783203"/>
       <use xlink:href="#DejaVuSans-66" x="55.566406"/>
       <use xlink:href="#DejaVuSans-65" x="90.771484"/>
      </g>
     </g>
    </g>
    <g id="xtick_34">
     <g id="text_34">
      <!-- stress -->
      <g transform="translate(408.631875 99.2275) rotate(-90) scale(0.1 -0.1)">
       <use xlink:href="#DejaVuSans-73"/>
       <use xlink:href="#DejaVuSans-74" x="52.099609"/>
       <use xlink:href="#DejaVuSans-72" x="91.308594"/>
       <use xlink:href="#DejaVuSans-65" x="130.171875"/>
       <use xlink:href="#DejaVuSans-73" x="191.695312"/>
       <use xlink:href="#DejaVuSans-73" x="243.794922"/>
      </g>
     </g>
    </g>
    <g id="xtick_35">
     <g id="text_35">
      <!-- medical -->
      <g transform="translate(419.791875 109.065) rotate(-90) scale(0.1 -0.1)">
       <use xlink:href="#DejaVuSans-6d"/>
       <use xlink:href="#DejaVuSans-65" x="97.412109"/>
       <use xlink:href="#DejaVuSans-64" x="158.935547"/>
       <use xlink:href="#DejaVuSans-69" x="222.412109"/>
       <use xlink:href="#DejaVuSans-63" x="250.195312"/>
       <use xlink:href="#DejaVuSans-61" x="305.175781"/>
       <use xlink:href="#DejaVuSans-6c" x="366.455078"/>
      </g>
     </g>
    </g>
    <g id="xtick_36">
     <g id="text_36">
      <!-- feelings -->
      <g transform="translate(430.951875 108.918125) rotate(-90) scale(0.1 -0.1)">
       <use xlink:href="#DejaVuSans-66"/>
       <use xlink:href="#DejaVuSans-65" x="35.205078"/>
       <use xlink:href="#DejaVuSans-65" x="96.728516"/>
       <use xlink:href="#DejaVuSans-6c" x="158.251953"/>
       <use xlink:href="#DejaVuSans-69" x="186.035156"/>
       <use xlink:href="#DejaVuSans-6e" x="213.818359"/>
       <use xlink:href="#DejaVuSans-67" x="277.197266"/>
       <use xlink:href="#DejaVuSans-73" x="340.673828"/>
      </g>
     </g>
    </g>
    <g id="xtick_37">
     <g id="text_37">
      <!-- symptoms -->
      <g transform="translate(442.111875 121.84625) rotate(-90) scale(0.1 -0.1)">
       <use xlink:href="#DejaVuSans-73"/>
       <use xlink:href="#DejaVuSans-79" x="52.099609"/>
       <use xlink:href="#DejaVuSans-6d" x="111.279297"/>
       <use xlink:href="#DejaVuSans-70" x="208.691406"/>
       <use xlink:href="#DejaVuSans-74" x="272.167969"/>
       <use xlink:href="#DejaVuSans-6f" x="311.376953"/>
       <use xlink:href="#DejaVuSans-6d" x="372.558594"/>
       <use xlink:href="#DejaVuSans-73" x="469.970703"/>
      </g>
     </g>
    </g>
    <g id="xtick_38">
     <g id="text_38">
      <!-- healthcare -->
      <g transform="translate(453.271875 122.960312) rotate(-90) scale(0.1 -0.1)">
       <use xlink:href="#DejaVuSans-68"/>
       <use xlink:href="#DejaVuSans-65" x="63.378906"/>
       <use xlink:href="#DejaVuSans-61" x="124.902344"/>
       <use xlink:href="#DejaVuSans-6c" x="186.181641"/>
       <use xlink:href="#DejaVuSans-74" x="213.964844"/>
       <use xlink:href="#DejaVuSans-68" x="253.173828"/>
       <use xlink:href="#DejaVuSans-63" x="316.552734"/>
       <use xlink:href="#DejaVuSans-61" x="371.533203"/>
       <use xlink:href="#DejaVuSans-72" x="432.8125"/>
       <use xlink:href="#DejaVuSans-65" x="471.675781"/>
      </g>
     </g>
    </g>
    <g id="xtick_39">
     <g id="text_39">
      <!-- cognitive -->
      <g transform="translate(464.431875 115.491562) rotate(-90) scale(0.1 -0.1)">
       <use xlink:href="#DejaVuSans-63"/>
       <use xlink:href="#DejaVuSans-6f" x="54.980469"/>
       <use xlink:href="#DejaVuSans-67" x="116.162109"/>
       <use xlink:href="#DejaVuSans-6e" x="179.638672"/>
       <use xlink:href="#DejaVuSans-69" x="243.017578"/>
       <use xlink:href="#DejaVuSans-74" x="270.800781"/>
       <use xlink:href="#DejaVuSans-69" x="310.009766"/>
       <use xlink:href="#DejaVuSans-76" x="337.792969"/>
       <use xlink:href="#DejaVuSans-65" x="396.972656"/>
      </g>
     </g>
    </g>
    <g id="xtick_40">
     <g id="text_40">
      <!-- perceived -->
      <g transform="translate(475.591875 118.8775) rotate(-90) scale(0.1 -0.1)">
       <use xlink:href="#DejaVuSans-70"/>
       <use xlink:href="#DejaVuSans-65" x="63.476562"/>
       <use xlink:href="#DejaVuSans-72" x="125"/>
       <use xlink:href="#DejaVuSans-63" x="163.863281"/>
       <use xlink:href="#DejaVuSans-65" x="218.84375"/>
       <use xlink:href="#DejaVuSans-69" x="280.367188"/>
       <use xlink:href="#DejaVuSans-76" x="308.150391"/>
       <use xlink:href="#DejaVuSans-65" x="367.330078"/>
       <use xlink:href="#DejaVuSans-64" x="428.853516"/>
      </g>
     </g>
    </g>
    <g id="xtick_41">
     <g id="text_41">
      <!-- anxiety -->
      <g transform="translate(486.751875 106.794687) rotate(-90) scale(0.1 -0.1)">
       <use xlink:href="#DejaVuSans-61"/>
       <use xlink:href="#DejaVuSans-6e" x="61.279297"/>
       <use xlink:href="#DejaVuSans-78" x="124.658203"/>
       <use xlink:href="#DejaVuSans-69" x="183.837891"/>
       <use xlink:href="#DejaVuSans-65" x="211.621094"/>
       <use xlink:href="#DejaVuSans-74" x="273.144531"/>
       <use xlink:href="#DejaVuSans-79" x="312.353516"/>
      </g>
     </g>
    </g>
   </g>
   <g id="matplotlib.axis_2">
    <g id="ytick_1">
     <g id="line2d_1">
      <defs>
       <path id="m27143e35d6" d="M 0 0 
L -3.5 0 
" style="stroke: #000000; stroke-width: 0.8"/>
      </defs>
      <g>
       <use xlink:href="#m27143e35d6" x="32.0125" y="62.64" style="stroke: #000000; stroke-width: 0.8"/>
      </g>
     </g>
     <g id="text_42">
      <!-- 0.00 -->
      <g transform="translate(7.2 65.679375) scale(0.08 -0.08)">
       <defs>
        <path id="DejaVuSans-30" d="M 2034 4250 
Q 1547 4250 1301 3770 
Q 1056 3291 1056 2328 
Q 1056 1369 1301 889 
Q 1547 409 2034 409 
Q 2525 409 2770 889 
Q 3016 1369 3016 2328 
Q 3016 3291 2770 3770 
Q 2525 4250 2034 4250 
z
M 2034 4750 
Q 2819 4750 3233 4129 
Q 3647 3509 3647 2328 
Q 3647 1150 3233 529 
Q 2819 -91 2034 -91 
Q 1250 -91 836 529 
Q 422 1150 422 2328 
Q 422 3509 836 4129 
Q 1250 4750 2034 4750 
z
" transform="scale(0.015625)"/>
        <path id="DejaVuSans-2e" d="M 684 794 
L 1344 794 
L 1344 0 
L 684 0 
L 684 794 
z
" transform="scale(0.015625)"/>
       </defs>
       <use xlink:href="#DejaVuSans-30"/>
       <use xlink:href="#DejaVuSans-2e" x="63.623047"/>
       <use xlink:href="#DejaVuSans-30" x="95.410156"/>
       <use xlink:href="#DejaVuSans-30" x="159.033203"/>
      </g>
     </g>
    </g>
    <g id="ytick_2">
     <g id="line2d_2">
      <g>
       <use xlink:href="#m27143e35d6" x="32.0125" y="39.55287" style="stroke: #000000; stroke-width: 0.8"/>
      </g>
     </g>
     <g id="text_43">
      <!-- 0.05 -->
      <g transform="translate(7.2 42.592245) scale(0.08 -0.08)">
       <defs>
        <path id="DejaVuSans-35" d="M 691 4666 
L 3169 4666 
L 3169 4134 
L 1269 4134 
L 1269 2991 
Q 1406 3038 1543 3061 
Q 1681 3084 1819 3084 
Q 2600 3084 3056 2656 
Q 3513 2228 3513 1497 
Q 3513 744 3044 326 
Q 2575 -91 1722 -91 
Q 1428 -91 1123 -41 
Q 819 9 494 109 
L 494 744 
Q 775 591 1075 516 
Q 1375 441 1709 441 
Q 2250 441 2565 725 
Q 2881 1009 2881 1497 
Q 2881 1984 2565 2268 
Q 2250 2553 1709 2553 
Q 1456 2553 1204 2497 
Q 953 2441 691 2322 
L 691 4666 
z
" transform="scale(0.015625)"/>
       </defs>
       <use xlink:href="#DejaVuSans-30"/>
       <use xlink:href="#DejaVuSans-2e" x="63.623047"/>
       <use xlink:href="#DejaVuSans-30" x="95.410156"/>
       <use xlink:href="#DejaVuSans-35" x="159.033203"/>
      </g>
     </g>
    </g>
    <g id="ytick_3">
     <g id="line2d_3">
      <g>
       <use xlink:href="#m27143e35d6" x="32.0125" y="16.465739" style="stroke: #000000; stroke-width: 0.8"/>
      </g>
     </g>
     <g id="text_44">
      <!-- 0.10 -->
      <g transform="translate(7.2 19.505114) scale(0.08 -0.08)">
       <defs>
        <path id="DejaVuSans-31" d="M 794 531 
L 1825 531 
L 1825 4091 
L 703 3866 
L 703 4441 
L 1819 4666 
L 2450 4666 
L 2450 531 
L 3481 531 
L 3481 0 
L 794 0 
L 794 531 
z
" transform="scale(0.015625)"/>
       </defs>
       <use xlink:href="#DejaVuSans-30"/>
       <use xlink:href="#DejaVuSans-2e" x="63.623047"/>
       <use xlink:href="#DejaVuSans-31" x="95.410156"/>
       <use xlink:href="#DejaVuSans-30" x="159.033203"/>
      </g>
     </g>
    </g>
   </g>
   <g id="LineCollection_1">
    <path d="M 37.5925 62.64 
L 37.5925 26.926913 
L 48.7525 26.926913 
L 48.7525 62.64 
" clip-path="url(#pb0e2e99c35)" style="fill: none; stroke: #ff7f0e; stroke-width: 1.5"/>
    <path d="M 59.9125 62.64 
L 59.9125 29.62404 
L 71.0725 29.62404 
L 71.0725 62.64 
" clip-path="url(#pb0e2e99c35)" style="fill: none; stroke: #ff7f0e; stroke-width: 1.5"/>
    <path d="M 82.2325 62.64 
L 82.2325 30.432265 
L 93.3925 30.432265 
L 93.3925 62.64 
" clip-path="url(#pb0e2e99c35)" style="fill: none; stroke: #ff7f0e; stroke-width: 1.5"/>
    <path d="M 87.8125 30.432265 
L 87.8125 25.322515 
L 104.5525 25.322515 
L 104.5525 62.64 
" clip-path="url(#pb0e2e99c35)" style="fill: none; stroke: #ff7f0e; stroke-width: 1.5"/>
    <path d="M 65.4925 29.62404 
L 65.4925 24.633106 
L 96.1825 24.633106 
L 96.1825 25.322515 
" clip-path="url(#pb0e2e99c35)" style="fill: none; stroke: #ff7f0e; stroke-width: 1.5"/>
    <path d="M 43.1725 26.926913 
L 43.1725 20.712962 
L 80.8375 20.712962 
L 80.8375 24.633106 
" clip-path="url(#pb0e2e99c35)" style="fill: none; stroke: #ff7f0e; stroke-width: 1.5"/>
   </g>
   <g id="LineCollection_2">
    <path d="M 115.7125 62.64 
L 115.7125 29.636504 
L 126.8725 29.636504 
L 126.8725 62.64 
" clip-path="url(#pb0e2e99c35)" style="fill: none; stroke: #2ca02c; stroke-width: 1.5"/>
    <path d="M 138.0325 62.64 
L 138.0325 28.57864 
L 149.1925 28.57864 
L 149.1925 62.64 
" clip-path="url(#pb0e2e99c35)" style="fill: none; stroke: #2ca02c; stroke-width: 1.5"/>
    <path d="M 121.2925 29.636504 
L 121.2925 25.057994 
L 143.6125 25.057994 
L 143.6125 28.57864 
" clip-path="url(#pb0e2e99c35)" style="fill: none; stroke: #2ca02c; stroke-width: 1.5"/>
   </g>
   <g id="LineCollection_3">
    <path d="M 160.3525 62.64 
L 160.3525 29.622086 
L 171.5125 29.622086 
L 171.5125 62.64 
" clip-path="url(#pb0e2e99c35)" style="fill: none; stroke: #d62728; stroke-width: 1.5"/>
    <path d="M 182.6725 62.64 
L 182.6725 27.482354 
L 193.8325 27.482354 
L 193.8325 62.64 
" clip-path="url(#pb0e2e99c35)" style="fill: none; stroke: #d62728; stroke-width: 1.5"/>
    <path d="M 204.9925 62.64 
L 204.9925 27.170735 
L 216.1525 27.170735 
L 216.1525 62.64 
" clip-path="url(#pb0e2e99c35)" style="fill: none; stroke: #d62728; stroke-width: 1.5"/>
    <path d="M 188.2525 27.482354 
L 188.2525 24.162003 
L 210.5725 24.162003 
L 210.5725 27.170735 
" clip-path="url(#pb0e2e99c35)" style="fill: none; stroke: #d62728; stroke-width: 1.5"/>
    <path d="M 227.3125 62.64 
L 227.3125 29.65111 
L 238.4725 29.65111 
L 238.4725 62.64 
" clip-path="url(#pb0e2e99c35)" style="fill: none; stroke: #d62728; stroke-width: 1.5"/>
    <path d="M 199.4125 24.162003 
L 199.4125 23.237431 
L 232.8925 23.237431 
L 232.8925 29.65111 
" clip-path="url(#pb0e2e99c35)" style="fill: none; stroke: #d62728; stroke-width: 1.5"/>
    <path d="M 165.9325 29.622086 
L 165.9325 21.643573 
L 216.1525 21.643573 
L 216.1525 23.237431 
" clip-path="url(#pb0e2e99c35)" style="fill: none; stroke: #d62728; stroke-width: 1.5"/>
   </g>
   <g id="LineCollection_4">
    <path d="M 249.6325 62.64 
L 249.6325 25.414866 
L 260.7925 25.414866 
L 260.7925 62.64 
" clip-path="url(#pb0e2e99c35)" style="fill: none; stroke: #9467bd; stroke-width: 1.5"/>
    <path d="M 271.9525 62.64 
L 271.9525 29.955373 
L 283.1125 29.955373 
L 283.1125 62.64 
" clip-path="url(#pb0e2e99c35)" style="fill: none; stroke: #9467bd; stroke-width: 1.5"/>
    <path d="M 277.5325 29.955373 
L 277.5325 27.06165 
L 294.2725 27.06165 
L 294.2725 62.64 
" clip-path="url(#pb0e2e99c35)" style="fill: none; stroke: #9467bd; stroke-width: 1.5"/>
    <path d="M 255.2125 25.414866 
L 255.2125 23.730718 
L 285.9025 23.730718 
L 285.9025 27.06165 
" clip-path="url(#pb0e2e99c35)" style="fill: none; stroke: #9467bd; stroke-width: 1.5"/>
    <path d="M 305.4325 62.64 
L 305.4325 27.596794 
L 316.5925 27.596794 
L 316.5925 62.64 
" clip-path="url(#pb0e2e99c35)" style="fill: none; stroke: #9467bd; stroke-width: 1.5"/>
    <path d="M 270.5575 23.730718 
L 270.5575 20.637244 
L 311.0125 20.637244 
L 311.0125 27.596794 
" clip-path="url(#pb0e2e99c35)" style="fill: none; stroke: #9467bd; stroke-width: 1.5"/>
   </g>
   <g id="LineCollection_5">
    <path d="M 327.7525 62.64 
L 327.7525 31.067429 
L 338.9125 31.067429 
L 338.9125 62.64 
" clip-path="url(#pb0e2e99c35)" style="fill: none; stroke: #8c564b; stroke-width: 1.5"/>
    <path d="M 350.0725 62.64 
L 350.0725 29.764662 
L 361.2325 29.764662 
L 361.2325 62.64 
" clip-path="url(#pb0e2e99c35)" style="fill: none; stroke: #8c564b; stroke-width: 1.5"/>
    <path d="M 372.3925 62.64 
L 372.3925 29.807146 
L 383.5525 29.807146 
L 383.5525 62.64 
" clip-path="url(#pb0e2e99c35)" style="fill: none; stroke: #8c564b; stroke-width: 1.5"/>
    <path d="M 377.9725 29.807146 
L 377.9725 26.823239 
L 394.7125 26.823239 
L 394.7125 62.64 
" clip-path="url(#pb0e2e99c35)" style="fill: none; stroke: #8c564b; stroke-width: 1.5"/>
    <path d="M 355.6525 29.764662 
L 355.6525 23.14056 
L 386.3425 23.14056 
L 386.3425 26.823239 
" clip-path="url(#pb0e2e99c35)" style="fill: none; stroke: #8c564b; stroke-width: 1.5"/>
    <path d="M 333.3325 31.067429 
L 333.3325 20.636378 
L 370.9975 20.636378 
L 370.9975 23.14056 
" clip-path="url(#pb0e2e99c35)" style="fill: none; stroke: #8c564b; stroke-width: 1.5"/>
   </g>
   <g id="LineCollection_6">
    <path d="M 405.8725 62.64 
L 405.8725 29.484383 
L 417.0325 29.484383 
L 417.0325 62.64 
" clip-path="url(#pb0e2e99c35)" style="fill: none; stroke: #e377c2; stroke-width: 1.5"/>
    <path d="M 411.4525 29.484383 
L 411.4525 26.964942 
L 428.1925 26.964942 
L 428.1925 62.64 
" clip-path="url(#pb0e2e99c35)" style="fill: none; stroke: #e377c2; stroke-width: 1.5"/>
   </g>
   <g id="LineCollection_7">
    <path d="M 450.5125 62.64 
L 450.5125 29.244111 
L 461.6725 29.244111 
L 461.6725 62.64 
" clip-path="url(#pb0e2e99c35)" style="fill: none; stroke: #7f7f7f; stroke-width: 1.5"/>
    <path d="M 439.3525 62.64 
L 439.3525 28.050957 
L 456.0925 28.050957 
L 456.0925 29.244111 
" clip-path="url(#pb0e2e99c35)" style="fill: none; stroke: #7f7f7f; stroke-width: 1.5"/>
    <path d="M 472.8325 62.64 
L 472.8325 28.713149 
L 483.9925 28.713149 
L 483.9925 62.64 
" clip-path="url(#pb0e2e99c35)" style="fill: none; stroke: #7f7f7f; stroke-width: 1.5"/>
    <path d="M 447.7225 28.050957 
L 447.7225 22.80011 
L 478.4125 22.80011 
L 478.4125 28.713149 
" clip-path="url(#pb0e2e99c35)" style="fill: none; stroke: #7f7f7f; stroke-width: 1.5"/>
   </g>
   <g id="LineCollection_8">
    <path d="M 62.005 20.712962 
L 62.005 18.301533 
L 132.4525 18.301533 
L 132.4525 25.057994 
" clip-path="url(#pb0e2e99c35)" style="fill: none; stroke: #1f77b4; stroke-width: 1.5"/>
    <path d="M 290.785 20.637244 
L 290.785 18.017694 
L 352.165 18.017694 
L 352.165 20.636378 
" clip-path="url(#pb0e2e99c35)" style="fill: none; stroke: #1f77b4; stroke-width: 1.5"/>
    <path d="M 419.8225 26.964942 
L 419.8225 20.085949 
L 463.0675 20.085949 
L 463.0675 22.80011 
" clip-path="url(#pb0e2e99c35)" style="fill: none; stroke: #1f77b4; stroke-width: 1.5"/>
    <path d="M 321.475 18.017694 
L 321.475 15.232061 
L 441.445 15.232061 
L 441.445 20.085949 
" clip-path="url(#pb0e2e99c35)" style="fill: none; stroke: #1f77b4; stroke-width: 1.5"/>
    <path d="M 191.0425 21.643573 
L 191.0425 11.699466 
L 381.46 11.699466 
L 381.46 15.232061 
" clip-path="url(#pb0e2e99c35)" style="fill: none; stroke: #1f77b4; stroke-width: 1.5"/>
    <path d="M 97.22875 18.301533 
L 97.22875 9.84 
L 286.25125 9.84 
L 286.25125 11.699466 
" clip-path="url(#pb0e2e99c35)" style="fill: none; stroke: #1f77b4; stroke-width: 1.5"/>
   </g>
   <g id="patch_3">
    <path d="M 32.0125 62.64 
L 32.0125 7.2 
" style="fill: none; stroke: #000000; stroke-width: 0.8; stroke-linejoin: miter; stroke-linecap: square"/>
   </g>
   <g id="patch_4">
    <path d="M 489.5725 62.64 
L 489.5725 7.2 
" style="fill: none; stroke: #000000; stroke-width: 0.8; stroke-linejoin: miter; stroke-linecap: square"/>
   </g>
   <g id="patch_5">
    <path d="M 32.0125 62.64 
L 489.5725 62.64 
" style="fill: none; stroke: #000000; stroke-width: 0.8; stroke-linejoin: miter; stroke-linecap: square"/>
   </g>
   <g id="patch_6">
    <path d="M 32.0125 7.2 
L 489.5725 7.2 
" style="fill: none; stroke: #000000; stroke-width: 0.8; stroke-linejoin: miter; stroke-linecap: square"/>
   </g>
   <g id="legend_1">
    <g id="patch_7">
     <path d="M 519.4505 147.303125 
L 596.483313 147.303125 
Q 598.483313 147.303125 598.483313 145.303125 
L 598.483313 14.2 
Q 598.483313 12.2 596.483313 12.2 
L 519.4505 12.2 
Q 517.4505 12.2 517.4505 14.2 
L 517.4505 145.303125 
Q 517.4505 147.303125 519.4505 147.303125 
z
" style="fill: #ffffff; opacity: 0.8; stroke: #cccccc; stroke-linejoin: miter"/>
    </g>
    <g id="text_45">
     <!-- Clusters -->
     <g transform="translate(537.616125 23.798437) scale(0.1 -0.1)">
      <defs>
       <path id="DejaVuSans-43" d="M 4122 4306 
L 4122 3641 
Q 3803 3938 3442 4084 
Q 3081 4231 2675 4231 
Q 1875 4231 1450 3742 
Q 1025 3253 1025 2328 
Q 1025 1406 1450 917 
Q 1875 428 2675 428 
Q 3081 428 3442 575 
Q 3803 722 4122 1019 
L 4122 359 
Q 3791 134 3420 21 
Q 3050 -91 2638 -91 
Q 1578 -91 968 557 
Q 359 1206 359 2328 
Q 359 3453 968 4101 
Q 1578 4750 2638 4750 
Q 3056 4750 3426 4639 
Q 3797 4528 4122 4306 
z
" transform="scale(0.015625)"/>
      </defs>
      <use xlink:href="#DejaVuSans-43"/>
      <use xlink:href="#DejaVuSans-6c" x="69.824219"/>
      <use xlink:href="#DejaVuSans-75" x="97.607422"/>
      <use xlink:href="#DejaVuSans-73" x="160.986328"/>
      <use xlink:href="#DejaVuSans-74" x="213.085938"/>
      <use xlink:href="#DejaVuSans-65" x="252.294922"/>
      <use xlink:href="#DejaVuSans-72" x="313.818359"/>
      <use xlink:href="#DejaVuSans-73" x="354.931641"/>
     </g>
    </g>
    <g id="patch_8">
     <path d="M 521.4505 38.476562 
L 541.4505 38.476562 
L 541.4505 31.476562 
L 521.4505 31.476562 
z
" style="fill: #8c564b; stroke: #8c564b; stroke-linejoin: miter"/>
    </g>
    <g id="text_46">
     <!-- Cluster 1 -->
     <g transform="translate(549.4505 38.476562) scale(0.1 -0.1)">
      <defs>
       <path id="DejaVuSans-20" transform="scale(0.015625)"/>
      </defs>
      <use xlink:href="#DejaVuSans-43"/>
      <use xlink:href="#DejaVuSans-6c" x="69.824219"/>
      <use xlink:href="#DejaVuSans-75" x="97.607422"/>
      <use xlink:href="#DejaVuSans-73" x="160.986328"/>
      <use xlink:href="#DejaVuSans-74" x="213.085938"/>
      <use xlink:href="#DejaVuSans-65" x="252.294922"/>
      <use xlink:href="#DejaVuSans-72" x="313.818359"/>
      <use xlink:href="#DejaVuSans-20" x="354.931641"/>
      <use xlink:href="#DejaVuSans-31" x="386.71875"/>
     </g>
    </g>
    <g id="patch_9">
     <path d="M 521.4505 53.154687 
L 541.4505 53.154687 
L 541.4505 46.154687 
L 521.4505 46.154687 
z
" style="fill: #1f77b4; stroke: #1f77b4; stroke-linejoin: miter"/>
    </g>
    <g id="text_47">
     <!-- Cluster 2 -->
     <g transform="translate(549.4505 53.154687) scale(0.1 -0.1)">
      <defs>
       <path id="DejaVuSans-32" d="M 1228 531 
L 3431 531 
L 3431 0 
L 469 0 
L 469 531 
Q 828 903 1448 1529 
Q 2069 2156 2228 2338 
Q 2531 2678 2651 2914 
Q 2772 3150 2772 3378 
Q 2772 3750 2511 3984 
Q 2250 4219 1831 4219 
Q 1534 4219 1204 4116 
Q 875 4013 500 3803 
L 500 4441 
Q 881 4594 1212 4672 
Q 1544 4750 1819 4750 
Q 2544 4750 2975 4387 
Q 3406 4025 3406 3419 
Q 3406 3131 3298 2873 
Q 3191 2616 2906 2266 
Q 2828 2175 2409 1742 
Q 1991 1309 1228 531 
z
" transform="scale(0.015625)"/>
      </defs>
      <use xlink:href="#DejaVuSans-43"/>
      <use xlink:href="#DejaVuSans-6c" x="69.824219"/>
      <use xlink:href="#DejaVuSans-75" x="97.607422"/>
      <use xlink:href="#DejaVuSans-73" x="160.986328"/>
      <use xlink:href="#DejaVuSans-74" x="213.085938"/>
      <use xlink:href="#DejaVuSans-65" x="252.294922"/>
      <use xlink:href="#DejaVuSans-72" x="313.818359"/>
      <use xlink:href="#DejaVuSans-20" x="354.931641"/>
      <use xlink:href="#DejaVuSans-32" x="386.71875"/>
     </g>
    </g>
    <g id="patch_10">
     <path d="M 521.4505 67.832812 
L 541.4505 67.832812 
L 541.4505 60.832812 
L 521.4505 60.832812 
z
" style="fill: #2ca02c; stroke: #2ca02c; stroke-linejoin: miter"/>
    </g>
    <g id="text_48">
     <!-- Cluster 3 -->
     <g transform="translate(549.4505 67.832812) scale(0.1 -0.1)">
      <defs>
       <path id="DejaVuSans-33" d="M 2597 2516 
Q 3050 2419 3304 2112 
Q 3559 1806 3559 1356 
Q 3559 666 3084 287 
Q 2609 -91 1734 -91 
Q 1441 -91 1130 -33 
Q 819 25 488 141 
L 488 750 
Q 750 597 1062 519 
Q 1375 441 1716 441 
Q 2309 441 2620 675 
Q 2931 909 2931 1356 
Q 2931 1769 2642 2001 
Q 2353 2234 1838 2234 
L 1294 2234 
L 1294 2753 
L 1863 2753 
Q 2328 2753 2575 2939 
Q 2822 3125 2822 3475 
Q 2822 3834 2567 4026 
Q 2313 4219 1838 4219 
Q 1578 4219 1281 4162 
Q 984 4106 628 3988 
L 628 4550 
Q 988 4650 1302 4700 
Q 1616 4750 1894 4750 
Q 2613 4750 3031 4423 
Q 3450 4097 3450 3541 
Q 3450 3153 3228 2886 
Q 3006 2619 2597 2516 
z
" transform="scale(0.015625)"/>
      </defs>
      <use xlink:href="#DejaVuSans-43"/>
      <use xlink:href="#DejaVuSans-6c" x="69.824219"/>
      <use xlink:href="#DejaVuSans-75" x="97.607422"/>
      <use xlink:href="#DejaVuSans-73" x="160.986328"/>
      <use xlink:href="#DejaVuSans-74" x="213.085938"/>
      <use xlink:href="#DejaVuSans-65" x="252.294922"/>
      <use xlink:href="#DejaVuSans-72" x="313.818359"/>
      <use xlink:href="#DejaVuSans-20" x="354.931641"/>
      <use xlink:href="#DejaVuSans-33" x="386.71875"/>
     </g>
    </g>
    <g id="patch_11">
     <path d="M 521.4505 82.510937 
L 541.4505 82.510937 
L 541.4505 75.510937 
L 521.4505 75.510937 
z
" style="fill: #7f7f7f; stroke: #7f7f7f; stroke-linejoin: miter"/>
    </g>
    <g id="text_49">
     <!-- Cluster 4 -->
     <g transform="translate(549.4505 82.510937) scale(0.1 -0.1)">
      <defs>
       <path id="DejaVuSans-34" d="M 2419 4116 
L 825 1625 
L 2419 1625 
L 2419 4116 
z
M 2253 4666 
L 3047 4666 
L 3047 1625 
L 3713 1625 
L 3713 1100 
L 3047 1100 
L 3047 0 
L 2419 0 
L 2419 1100 
L 313 1100 
L 313 1709 
L 2253 4666 
z
" transform="scale(0.015625)"/>
      </defs>
      <use xlink:href="#DejaVuSans-43"/>
      <use xlink:href="#DejaVuSans-6c" x="69.824219"/>
      <use xlink:href="#DejaVuSans-75" x="97.607422"/>
      <use xlink:href="#DejaVuSans-73" x="160.986328"/>
      <use xlink:href="#DejaVuSans-74" x="213.085938"/>
      <use xlink:href="#DejaVuSans-65" x="252.294922"/>
      <use xlink:href="#DejaVuSans-72" x="313.818359"/>
      <use xlink:href="#DejaVuSans-20" x="354.931641"/>
      <use xlink:href="#DejaVuSans-34" x="386.71875"/>
     </g>
    </g>
    <g id="patch_12">
     <path d="M 521.4505 97.189062 
L 541.4505 97.189062 
L 541.4505 90.189062 
L 521.4505 90.189062 
z
" style="fill: #ff7f0e; stroke: #ff7f0e; stroke-linejoin: miter"/>
    </g>
    <g id="text_50">
     <!-- Cluster 5 -->
     <g transform="translate(549.4505 97.189062) scale(0.1 -0.1)">
      <use xlink:href="#DejaVuSans-43"/>
      <use xlink:href="#DejaVuSans-6c" x="69.824219"/>
      <use xlink:href="#DejaVuSans-75" x="97.607422"/>
      <use xlink:href="#DejaVuSans-73" x="160.986328"/>
      <use xlink:href="#DejaVuSans-74" x="213.085938"/>
      <use xlink:href="#DejaVuSans-65" x="252.294922"/>
      <use xlink:href="#DejaVuSans-72" x="313.818359"/>
      <use xlink:href="#DejaVuSans-20" x="354.931641"/>
      <use xlink:href="#DejaVuSans-35" x="386.71875"/>
     </g>
    </g>
    <g id="patch_13">
     <path d="M 521.4505 111.867187 
L 541.4505 111.867187 
L 541.4505 104.867187 
L 521.4505 104.867187 
z
" style="fill: #e377c2; stroke: #e377c2; stroke-linejoin: miter"/>
    </g>
    <g id="text_51">
     <!-- Cluster 6 -->
     <g transform="translate(549.4505 111.867187) scale(0.1 -0.1)">
      <defs>
       <path id="DejaVuSans-36" d="M 2113 2584 
Q 1688 2584 1439 2293 
Q 1191 2003 1191 1497 
Q 1191 994 1439 701 
Q 1688 409 2113 409 
Q 2538 409 2786 701 
Q 3034 994 3034 1497 
Q 3034 2003 2786 2293 
Q 2538 2584 2113 2584 
z
M 3366 4563 
L 3366 3988 
Q 3128 4100 2886 4159 
Q 2644 4219 2406 4219 
Q 1781 4219 1451 3797 
Q 1122 3375 1075 2522 
Q 1259 2794 1537 2939 
Q 1816 3084 2150 3084 
Q 2853 3084 3261 2657 
Q 3669 2231 3669 1497 
Q 3669 778 3244 343 
Q 2819 -91 2113 -91 
Q 1303 -91 875 529 
Q 447 1150 447 2328 
Q 447 3434 972 4092 
Q 1497 4750 2381 4750 
Q 2619 4750 2861 4703 
Q 3103 4656 3366 4563 
z
" transform="scale(0.015625)"/>
      </defs>
      <use xlink:href="#DejaVuSans-43"/>
      <use xlink:href="#DejaVuSans-6c" x="69.824219"/>
      <use xlink:href="#DejaVuSans-75" x="97.607422"/>
      <use xlink:href="#DejaVuSans-73" x="160.986328"/>
      <use xlink:href="#DejaVuSans-74" x="213.085938"/>
      <use xlink:href="#DejaVuSans-65" x="252.294922"/>
      <use xlink:href="#DejaVuSans-72" x="313.818359"/>
      <use xlink:href="#DejaVuSans-20" x="354.931641"/>
      <use xlink:href="#DejaVuSans-36" x="386.71875"/>
     </g>
    </g>
    <g id="patch_14">
     <path d="M 521.4505 126.545312 
L 541.4505 126.545312 
L 541.4505 119.545312 
L 521.4505 119.545312 
z
" style="fill: #9467bd; stroke: #9467bd; stroke-linejoin: miter"/>
    </g>
    <g id="text_52">
     <!-- Cluster 7 -->
     <g transform="translate(549.4505 126.545312) scale(0.1 -0.1)">
      <defs>
       <path id="DejaVuSans-37" d="M 525 4666 
L 3525 4666 
L 3525 4397 
L 1831 0 
L 1172 0 
L 2766 4134 
L 525 4134 
L 525 4666 
z
" transform="scale(0.015625)"/>
      </defs>
      <use xlink:href="#DejaVuSans-43"/>
      <use xlink:href="#DejaVuSans-6c" x="69.824219"/>
      <use xlink:href="#DejaVuSans-75" x="97.607422"/>
      <use xlink:href="#DejaVuSans-73" x="160.986328"/>
      <use xlink:href="#DejaVuSans-74" x="213.085938"/>
      <use xlink:href="#DejaVuSans-65" x="252.294922"/>
      <use xlink:href="#DejaVuSans-72" x="313.818359"/>
      <use xlink:href="#DejaVuSans-20" x="354.931641"/>
      <use xlink:href="#DejaVuSans-37" x="386.71875"/>
     </g>
    </g>
    <g id="patch_15">
     <path d="M 521.4505 141.223437 
L 541.4505 141.223437 
L 541.4505 134.223437 
L 521.4505 134.223437 
z
" style="fill: #d62728; stroke: #d62728; stroke-linejoin: miter"/>
    </g>
    <g id="text_53">
     <!-- Cluster 8 -->
     <g transform="translate(549.4505 141.223437) scale(0.1 -0.1)">
      <defs>
       <path id="DejaVuSans-38" d="M 2034 2216 
Q 1584 2216 1326 1975 
Q 1069 1734 1069 1313 
Q 1069 891 1326 650 
Q 1584 409 2034 409 
Q 2484 409 2743 651 
Q 3003 894 3003 1313 
Q 3003 1734 2745 1975 
Q 2488 2216 2034 2216 
z
M 1403 2484 
Q 997 2584 770 2862 
Q 544 3141 544 3541 
Q 544 4100 942 4425 
Q 1341 4750 2034 4750 
Q 2731 4750 3128 4425 
Q 3525 4100 3525 3541 
Q 3525 3141 3298 2862 
Q 3072 2584 2669 2484 
Q 3125 2378 3379 2068 
Q 3634 1759 3634 1313 
Q 3634 634 3220 271 
Q 2806 -91 2034 -91 
Q 1263 -91 848 271 
Q 434 634 434 1313 
Q 434 1759 690 2068 
Q 947 2378 1403 2484 
z
M 1172 3481 
Q 1172 3119 1398 2916 
Q 1625 2713 2034 2713 
Q 2441 2713 2670 2916 
Q 2900 3119 2900 3481 
Q 2900 3844 2670 4047 
Q 2441 4250 2034 4250 
Q 1625 4250 1398 4047 
Q 1172 3844 1172 3481 
z
" transform="scale(0.015625)"/>
      </defs>
      <use xlink:href="#DejaVuSans-43"/>
      <use xlink:href="#DejaVuSans-6c" x="69.824219"/>
      <use xlink:href="#DejaVuSans-75" x="97.607422"/>
      <use xlink:href="#DejaVuSans-73" x="160.986328"/>
      <use xlink:href="#DejaVuSans-74" x="213.085938"/>
      <use xlink:href="#DejaVuSans-65" x="252.294922"/>
      <use xlink:href="#DejaVuSans-72" x="313.818359"/>
      <use xlink:href="#DejaVuSans-20" x="354.931641"/>
      <use xlink:href="#DejaVuSans-38" x="386.71875"/>
     </g>
    </g>
   </g>
  </g>
 </g>
 <defs>
  <clipPath id="pb0e2e99c35">
   <rect x="32.0125" y="7.2" width="457.56" height="55.44"/>
  </clipPath>
 </defs>
</svg>
