<svg width="789" height="230" viewBox="0 0 789 230" fill="none" xmlns="http://www.w3.org/2000/svg">
<path fill-rule="evenodd" clip-rule="evenodd" d="M0 116.964V4H11.258L11.7292 59.1177C12.0158 92.5152 12.0135 145.873 11.7257 177.687L11.2565 229.628H0V116.964ZM395.299 229.628C395.763 215.82 396 177.904 396 116.964C396 64.2702 395.887 19.318 395.733 4H394.178C393.334 34.2044 393.585 196.504 394.506 229.628H395.299ZM380.417 229.628C381.585 205.395 382.307 112.314 381.544 58.2209C381.207 34.3097 380.703 13.5577 380.265 4H378.693C378.264 11.3804 378.402 26.2952 379.088 50.1962C380.071 84.449 379.331 206.78 378.106 212.51C377.586 214.943 377.987 223.647 378.631 229.628H380.417ZM364.808 229.628C364.88 228.135 364.919 226.407 364.919 224.498C364.919 218.429 366.009 198.873 367.341 181.042C369.427 153.11 369.671 142.643 369.105 105.452C368.744 81.7092 367.928 57.6212 367.291 51.9229C366.656 46.2247 365.78 31.8501 365.345 19.9781C365.114 13.6619 364.781 7.95647 364.441 4H362.733C362.353 13.7089 363.063 34.2684 364.593 51.5143C367.327 82.3481 367.319 152.418 364.578 183.564C363.009 201.392 362.346 220.303 362.757 229.628H364.808ZM349.728 229.628C349.927 227.28 350.097 224.065 350.282 219.705C350.65 211 352.643 192.48 354.709 178.551C358.326 154.171 358.466 151.891 358.466 117.539C358.466 83.1689 358.327 80.9195 354.703 56.5276C352.635 42.5985 350.643 23.8207 350.278 14.7979C350.093 10.2119 349.873 6.63082 349.606 4H346.524C346.427 12.7026 348.308 33.8397 351.138 54.3219C358.518 107.76 358.258 128.484 349.4 192.94C348.487 199.588 347.382 211.891 346.944 220.28C346.731 224.38 346.596 227.405 346.557 229.628H349.728ZM334.956 229.628C334.979 228.572 334.988 227.335 334.988 225.888C334.988 215.417 337.316 200.484 342.969 174.682C348.258 150.549 349.911 136.939 349.911 117.539C349.911 97.4997 348.306 84.8784 342.054 55.7333C337.311 33.6275 335.101 18.9087 334.671 6.54292C334.639 5.62341 334.589 4.77391 334.523 4H331.596C331.557 5.21391 331.54 6.66184 331.541 8.37098C331.548 19.4014 334.113 36.3834 339.439 60.6418C345.495 88.2352 345.927 92.0858 345.88 118.115L345.877 119.472C345.861 129.079 345.851 134.962 345.372 140.807C344.616 150.039 342.692 159.177 337.726 182.749L337.277 184.882C333.37 203.431 331.22 220.861 331.451 229.628H334.956ZM319.237 229.628C319.303 229.057 319.367 228.437 319.432 227.763C320.795 213.502 323.482 201.251 331.033 174.883C340.915 140.372 342.321 131.999 341.535 112.359C340.862 95.5405 339.364 88.2605 329.812 55.3764C323.587 33.9521 320.539 19.8055 319.452 7.31535C319.342 6.05085 319.234 4.95191 319.122 4H315.49C315.539 5.21734 315.626 6.68941 315.743 8.46652C316.57 20.9808 319.522 34.3573 327.492 61.7078C336.411 92.3149 337.821 99.9771 337.768 117.539C337.717 134.808 336.327 142.407 327.92 171.366C320.085 198.353 316.696 213.501 315.816 225.461C315.695 227.095 315.603 228.471 315.542 229.628H319.237ZM304.005 229.628C304.772 219.735 309.998 201.456 318.804 177.975C324.384 163.096 329.816 147.419 330.875 143.136C337.197 117.577 334.943 98.2987 321.644 64.154C310.357 35.1741 304.505 15.2854 303.951 4H299.77C299.878 5.47676 300.098 7.31923 300.415 9.60848C302.178 22.3185 305.263 32.6237 315.152 58.8299C319.93 71.4927 325.02 86.3174 326.464 91.775C333.441 118.154 330.931 135.629 313.903 179.233C306.689 197.704 301.928 213.755 300.506 224.392L300.343 225.612C300.132 227.187 299.954 228.513 299.814 229.628H304.005ZM289.158 229.628C289.201 229.225 289.243 228.796 289.286 228.339C290.304 217.514 295.949 201.751 307.52 177.431C313.251 165.384 319.813 150.088 322.101 143.44C325.978 132.176 326.261 130.413 326.261 117.539C326.261 104.686 325.974 102.884 322.12 91.638C319.84 84.9901 315.283 73.8526 311.989 66.888C295.86 32.7768 290.845 19.3519 289.202 5.89137C289.117 5.19935 289.034 4.57078 288.948 4H284.482C284.532 4.67159 284.593 5.42093 284.663 6.25629C285.605 17.4939 291.546 34.3919 303.348 59.4055C315.624 85.4217 318.194 92.0904 320.684 104.381C324.378 122.609 321.237 136.781 306.541 168.19C294.124 194.728 289.077 207.239 286.566 217.69C285.34 222.791 284.623 226.75 284.414 229.628H289.158ZM273.818 229.628C276.296 215.438 281.534 203.11 295.291 178.512C327.154 121.534 326.979 112.236 292.9 51.8389C280.947 30.6559 276.382 19.3708 273.667 4H268.564C268.597 4.2892 268.632 4.59324 268.67 4.91287C270.247 18.3274 276.347 32.4625 295.166 66.3124C319.951 110.894 320.007 123.612 295.613 167.549C290.496 176.765 284.836 186.965 283.035 190.214C277.617 199.991 272.083 213.829 270.095 222.568C269.416 225.551 268.932 227.849 268.647 229.628H273.818ZM258.739 229.628C258.946 228.756 259.17 227.756 259.42 226.612C262.131 214.224 268.087 202.315 284.269 176.931C300.599 151.314 306.693 139.176 309.177 127.324C313.013 109.019 307.803 93.9461 286.096 60.5566C267.644 32.1736 261.362 19.5557 258.825 5.78661C258.706 5.139 258.591 4.54478 258.48 4H252.94C253.221 5.66669 253.71 7.7965 254.398 10.5029C257.694 23.4708 263.65 35.2368 279.842 60.7673C296.986 87.7977 301.324 96.367 303.712 107.919C307.543 126.446 302.844 138.726 276.464 179.126C263.767 198.571 255.796 215.766 253.041 229.628H258.739ZM243.507 229.628C243.645 228.963 243.795 228.233 243.959 227.434L244.049 226.997C246.116 216.937 255.108 200.396 269.447 180.278C276.441 170.464 283.691 160.275 285.557 157.635C287.423 154.996 291.382 147.807 294.355 141.658C299.261 131.511 299.803 129.556 300.238 120.444C301.02 104.111 295.841 91.2271 279.174 68.0392C253.97 32.9713 244.72 16.5028 243.248 4.07943L243.238 4H237.482C237.514 4.27627 237.548 4.56614 237.584 4.87029C239.103 17.7955 247.289 33.2879 267.43 61.3532C290.388 93.3429 295.396 104.248 294.471 120.227C293.674 133.996 289.269 142.614 267.013 173.946C248.622 199.838 242.786 210.011 238.995 222.792C238.174 225.558 237.63 227.813 237.366 229.628H243.507ZM228.026 229.628C230.257 218.877 238.454 203.796 251.104 187.185C257.613 178.637 266.467 166.982 270.779 161.283C285.755 141.494 291.737 124.985 289.232 110.361C286.781 96.0527 281.244 86.9171 251.364 47.8938C237.047 29.1944 230.785 17.6366 227.738 4H221.365C221.728 5.93779 222.416 8.48527 223.423 11.7991C227.531 25.3057 234.925 37.3089 253.814 61.1322C278.705 92.5233 285.86 108.006 282.93 124.127C280.732 136.223 273.606 148.219 252.655 175.097C233.183 200.079 226.259 211.631 222.832 224.855C222.334 226.776 221.944 228.344 221.667 229.628H228.026ZM212.368 229.628C213.748 223.802 217.491 214.609 221.179 208.476C225.851 200.705 229.776 195.573 253.645 166.018C272.302 142.919 279.427 125.516 276.554 110.066C273.865 95.6049 267.29 84.8093 243.822 56.3296C236.609 47.5738 228.818 37.7935 226.509 34.5933C220.432 26.1726 213.305 10.8045 212.388 4.14505L212.368 4H205.715C205.911 5.13888 206.203 6.50107 206.581 8.12807C209.947 22.6431 215.364 31.4403 238.866 60.5566C257.879 84.1106 261.396 89.094 266.099 99.1459C272.378 112.563 271.722 125.555 264.047 139.775C259.295 148.58 254.201 155.471 237.952 175.073C217.484 199.766 208.216 215.447 205.777 229.628H212.368ZM197.236 229.628C198.983 217.264 207.109 204.056 228.523 178.551C257.287 144.291 264.782 128.916 261.647 110.606C259.115 95.8294 252.211 84.4525 228.476 55.952C206.104 29.0884 200.299 19.726 197.518 6.02606C197.365 5.27605 197.224 4.60345 197.088 4H189.925C190.003 4.46764 190.091 4.97252 190.191 5.51724C192.949 20.6953 200.775 33.6989 223.318 60.5566C265.656 111.002 265.766 123.011 224.34 172.824C199.657 202.504 192.769 213.889 190.102 229.628H197.236ZM181.915 229.628C181.925 229.582 181.935 229.535 181.945 229.489C184.848 215.812 191.393 204.819 212.124 178.812C239.664 144.262 246.286 131.191 244.912 114.083C243.812 100.38 237.39 88.3595 217.646 63.0431C190.291 27.9707 185.854 20.8323 182.29 6.16419C182.096 5.36492 181.917 4.64614 181.748 4H174.207C174.263 4.43902 174.334 4.9096 174.42 5.41364C176.456 17.4606 184.533 32.4579 198.54 50.1962C228.566 88.2214 235.269 98.941 237.096 111.859C239.398 128.13 233.297 140.742 207.6 172.836C186.552 199.123 179.079 211.243 175.54 224.831C175.037 226.762 174.645 228.338 174.375 229.628H181.915ZM166.526 229.628C166.574 229.398 166.623 229.158 166.675 228.91C169.399 215.721 176.068 204.328 200.196 171.644C219.642 145.304 225.651 132.254 225.604 116.466C225.559 101.448 219.048 88.1339 197.864 59.7439C176.337 30.8923 169.497 18.9789 166.771 5.58861C166.654 5.01472 166.545 4.48639 166.442 4H158.53C159.411 8.93275 161.635 16.663 163.801 21.5575C168.084 31.2365 174.628 41.3921 190.126 62.4111C210.701 90.3153 215.186 98.3574 217.673 111.814C220.211 125.542 213.308 141.032 191.527 170.493C174.984 192.869 170.699 199.287 165.714 209.163C163.531 213.487 160.211 223.342 158.62 229.628H166.526ZM151.267 229.628C151.379 229.092 151.489 228.534 151.594 227.962C153.619 216.996 161.16 202.51 177.842 177.547C199.544 145.072 204.92 133.163 204.893 117.617C204.866 101.38 200.026 90.5306 178.047 57.4381C161.154 32.0032 155.083 20.6228 152.385 9.32989C151.933 7.43821 151.486 5.57546 151.106 4H142.602C143.764 10.0523 147.16 20.339 150.714 27.7485C153.75 34.0799 163.512 50.271 172.409 63.7292C191.435 92.5152 195.853 101.928 196.583 115.237C197.427 130.616 193.469 139.757 172.358 171.18C152.202 201.183 145.155 215.042 142.97 228.979L142.868 229.628H151.267ZM135.604 229.628C138.01 216.535 143.835 203.406 156.616 182.004C177.479 147.067 183.035 133.544 183.035 117.701C183.035 101.418 179.145 91.2478 161.155 60.4979C143.075 29.5961 137.552 17.5607 135.348 4H126.802C127.642 10.6213 131.397 23.0762 135.119 31.1306C137.326 35.9056 144.6 49.0772 151.286 60.4012C174.15 99.1252 177.72 110.362 173.225 129.433C170.848 139.517 165.74 150.069 152.536 172.173C138.751 195.252 131.932 209.405 128.914 221.208C127.995 224.801 127.363 227.549 127.015 229.628H135.604ZM120.167 229.628L120.253 228.914C121.603 217.71 127.001 203.874 141.358 174.824C157.7 141.757 160.488 133.181 160.359 116.388C160.241 100.892 157.099 91.3387 142.677 62.6115C126.24 29.8701 121.658 18.1478 120.176 5.04526C120.134 4.67681 120.095 4.32876 120.057 4H110.942C111.073 5.30576 111.328 6.90561 111.682 8.86251C114.141 22.4198 118.509 33.6068 131.898 60.6384C149.309 95.7903 151.21 101.319 151.265 116.964C151.303 127.619 150.876 130.301 147.657 139.598C145.65 145.398 138.609 160.939 132.013 174.133C119.233 199.691 114.817 210.611 112.166 223.216C111.603 225.892 111.171 227.987 110.898 229.628H120.167ZM104.743 229.628C104.752 229.304 104.756 228.962 104.756 228.603C104.756 219.795 109.973 203.615 121.47 176.772C137.674 138.937 140.741 121.053 135.213 96.6076C132.992 86.7847 129.548 77.2842 119.229 52.5158C110.41 31.3505 104.756 13.1149 104.756 5.84417C104.756 5.24984 104.73 4.62009 104.685 4H95.2821C95.8587 9.97869 97.6651 19.906 99.6113 26.6434C101.249 32.3163 105.986 44.9872 110.137 54.8008C125.039 90.0252 127.977 100.215 128.063 116.964C128.151 134.209 125.392 143.686 108.789 183.155C100.549 202.747 97.0424 214.569 95.03 229.628H104.743ZM88.922 229.628L89.1115 227.763C90.4607 214.494 93.1567 203.59 101.279 178.551C119.242 123.182 119.191 111.398 100.759 54.8008C92.9921 30.9533 90.3053 19.8768 89.0724 6.61084L88.8299 4H79.4822L79.7952 8.46652C80.6723 20.9774 83.3856 32.192 92.1207 59.4055C103.681 95.4265 103.965 96.7987 104.039 116.964C104.111 137.179 103.495 140.231 92.6686 173.371C84.2409 199.161 80.708 213.496 79.8274 225.461L79.5207 229.628H88.922ZM73.6782 229.628L73.679 228.339C73.6859 218.274 76.3785 202.718 82.2989 178.551C90.2776 145.979 91.4012 138.368 91.392 116.964C91.3839 95.7557 90.7001 91.28 81.7268 53.6497C76.1183 30.1337 73.9058 17.3224 73.3774 5.30082L73.3202 4H63.3071L63.6835 10.1495C64.4847 23.2509 66.5153 34.0879 73.6456 63.3206C80.6021 91.8395 82.071 103.04 81.3584 122.144C80.7345 138.9 78.2802 153.906 72.4933 176.357C67.3131 196.458 64.4248 212.15 63.6662 224.31L63.3346 229.628H73.6782ZM57.5474 229.628L58.4491 218.554C59.2101 209.214 61.6471 190.729 63.8631 177.473C71.7577 130.274 71.7669 105.017 63.908 57.3173C59.8052 32.4107 57.5581 13.557 57.5581 4.02763V4H47.2389C47.2019 11.8282 48.9134 29.3885 51.3844 45.0159C52.9857 55.1462 55.0313 68.0967 55.9304 73.795C61.1498 106.886 60.489 134.756 53.4957 176.364C49.5891 199.609 47.266 219.278 47.2003 229.628H57.5474ZM42.4574 229.628L42.966 215.573C43.3586 204.709 44.4671 189.084 45.4283 180.853C50.0836 141.014 50.0687 96.6847 45.3846 53.0741C44.3647 43.577 43.1893 27.5183 42.7738 17.388L42.224 4H31.5864C31.067 11.8213 32.8095 38.5841 35.3419 60.6671C38.2059 85.6278 38.1864 150.626 35.3096 174.522C33.032 193.432 31.2886 220.632 31.6917 229.628H42.4574ZM27.1872 229.628L27.347 214.429C27.4667 202.927 28.0907 183.155 28.7319 170.493C30.2445 140.648 30.2422 95.5336 28.7296 64.1575C28.0688 50.4644 27.4207 30.1947 27.2906 19.1148L27.1118 4H15.9063L16.7655 34.2975C18.094 81.1717 18.1066 154.582 16.7955 198.256C16.4002 211.406 16.1866 223.25 16.2034 229.628H27.1872Z" fill="white"/>
<path d="M439.562 11.6677L449.462 24.3593C450.037 25.1076 450.469 25.7695 450.469 26.748C450.469 28.9064 448.828 30 446.843 30H440.511C439.418 30 438.468 29.7985 437.605 29.0791C436.828 28.4459 436.252 27.4099 436.252 26.4026C436.252 25.4817 436.77 24.6759 437.777 24.6759C438.612 24.6759 439.13 25.3666 439.13 26.1436C439.13 27.007 439.59 27.1221 440.396 27.1221H446.641C446.872 27.1221 447.591 27.2084 447.591 26.7767C447.591 26.5465 447.188 26.1148 447.073 25.9422L437.202 13.2506C436.597 12.4735 436.252 11.898 436.252 10.8907C436.252 9.73953 436.799 8.76105 437.777 8.12791C438.583 7.60988 439.245 7.60988 440.166 7.60988H446.267C447.361 7.60988 448.282 7.84012 449.116 8.55959C449.865 9.22151 450.469 10.2863 450.469 11.2936C450.469 12.2145 450.008 12.9628 448.972 12.9628C448.109 12.9628 447.591 12.416 447.591 11.6102C447.591 10.6317 447.102 10.4878 446.21 10.4878H440.108C439.792 10.4878 439.13 10.4015 439.13 10.8907C439.13 11.1497 439.447 11.4951 439.562 11.6677ZM471.7 30H466.808C465.369 30 464.246 29.6547 463.239 28.5323C462.289 27.4674 462.145 26.4314 462.145 25.1076V9.04884C462.145 8.12791 462.548 7.60988 463.584 7.60988C464.62 7.60988 465.023 8.12791 465.023 9.04884V25.1076C465.023 26.7192 465.512 27.1221 466.808 27.1221H471.7C472.995 27.1221 473.484 26.7192 473.484 25.1076V9.04884C473.484 8.12791 473.887 7.60988 474.923 7.60988C475.959 7.60988 476.362 8.12791 476.362 9.04884V25.1076C476.362 26.4314 476.218 27.4674 475.269 28.5323C474.261 29.6547 473.139 30 471.7 30ZM491.348 11.6677L501.248 24.3593C501.824 25.1076 502.255 25.7695 502.255 26.748C502.255 28.9064 500.615 30 498.629 30H492.298C491.204 30 490.255 29.7985 489.391 29.0791C488.614 28.4459 488.039 27.4099 488.039 26.4026C488.039 25.4817 488.557 24.6759 489.564 24.6759C490.399 24.6759 490.917 25.3666 490.917 26.1436C490.917 27.007 491.377 27.1221 492.183 27.1221H498.428C498.658 27.1221 499.378 27.2084 499.378 26.7767C499.378 26.5465 498.975 26.1148 498.86 25.9422L488.988 13.2506C488.384 12.4735 488.039 11.898 488.039 10.8907C488.039 9.73953 488.585 8.76105 489.564 8.12791C490.37 7.60988 491.032 7.60988 491.953 7.60988H498.054C499.147 7.60988 500.068 7.84012 500.903 8.55959C501.651 9.22151 502.255 10.2863 502.255 11.2936C502.255 12.2145 501.795 12.9628 500.759 12.9628C499.896 12.9628 499.378 12.416 499.378 11.6102C499.378 10.6317 498.888 10.4878 497.996 10.4878H491.895C491.578 10.4878 490.917 10.4015 490.917 10.8907C490.917 11.1497 491.233 11.4951 491.348 11.6677ZM519.601 10.4878H516.81V11.5238C516.81 12.4448 516.407 12.9628 515.371 12.9628C514.335 12.9628 513.932 12.4448 513.932 11.5238V7.60988H528.149V11.5238C528.149 12.4448 527.746 12.9628 526.71 12.9628C525.674 12.9628 525.271 12.4448 525.271 11.5238V10.4878H522.479V28.561C522.479 29.482 522.076 30 521.04 30C520.004 30 519.601 29.482 519.601 28.561V10.4878ZM539.825 28.561L545.466 9.07762C545.696 8.30058 546.013 7.60988 546.934 7.60988C547.883 7.60988 548.229 8.32936 548.43 9.07762L553.985 28.561C554.186 29.2517 553.409 30 552.603 30C551.711 30 551.25 29.2517 551.049 28.561L549.984 25.1076H543.854L542.761 28.561C542.559 29.2517 542.099 30 541.207 30C540.401 30 539.624 29.2517 539.825 28.561ZM549.178 22.2297L546.962 14.4305H546.905L544.66 22.2297H549.178ZM574.266 10.4878V27.1221H578.496C579.245 27.1221 579.935 27.525 579.935 28.561C579.935 29.5971 579.245 30 578.496 30H567.157C566.409 30 565.718 29.5971 565.718 28.561C565.718 27.525 566.409 27.1221 567.157 27.1221H571.388V10.4878H567.157C566.409 10.4878 565.718 10.0849 565.718 9.04884C565.718 8.01279 566.409 7.60988 567.157 7.60988H578.496C579.245 7.60988 579.935 8.01279 579.935 9.04884C579.935 10.0849 579.245 10.4878 578.496 10.4878H574.266ZM602.951 25.0788L602.98 9.07762C602.98 8.15669 603.382 7.63866 604.418 7.63866C605.455 7.63866 605.857 8.15669 605.857 9.07762V30.0288H602.059L594.547 12.7613V12.7326H594.49V28.561C594.49 29.482 594.087 30 593.051 30C592.015 30 591.612 29.482 591.612 28.561V7.60988H595.411L602.922 25.0788H602.893H602.951ZM617.505 28.561L623.146 9.07762C623.376 8.30058 623.693 7.60988 624.614 7.60988C625.563 7.60988 625.909 8.32936 626.11 9.07762L631.664 28.561C631.866 29.2517 631.089 30 630.283 30C629.391 30 628.93 29.2517 628.729 28.561L627.664 25.1076H621.534L620.441 28.561C620.239 29.2517 619.779 30 618.886 30C618.081 30 617.304 29.2517 617.505 28.561ZM626.858 22.2297L624.642 14.4305H624.585L622.34 22.2297H626.858ZM643.398 30V7.60988H651.457C655.687 7.60988 657.615 10.2 657.615 14.2578C657.615 15.927 657.241 17.4523 655.716 18.8049C657.356 20.359 657.615 21.8843 657.615 24.014C657.615 27.784 655.111 30 651.457 30H643.398ZM646.276 20.2439V27.1221H651.457C653.529 27.1221 654.737 26.2012 654.737 24.014C654.737 21.5965 654.075 20.2439 651.457 20.2439H646.276ZM646.276 10.4878V17.366H651.457C653.529 17.366 654.737 16.4451 654.737 14.2578C654.737 11.8404 654.075 10.4878 651.457 10.4878H646.276ZM672.17 27.1221H682.07C682.818 27.1221 683.509 27.525 683.509 28.561C683.509 29.5971 682.818 30 682.07 30H669.292V9.04884C669.292 8.12791 669.695 7.60988 670.731 7.60988C671.767 7.60988 672.17 8.12791 672.17 9.04884V27.1221ZM698.063 27.1221H707.963C708.711 27.1221 709.402 27.525 709.402 28.561C709.402 29.5971 708.711 30 707.963 30H695.185V7.60988H707.963C708.711 7.60988 709.402 8.01279 709.402 9.04884C709.402 10.0849 708.711 10.4878 707.963 10.4878H698.063V17.366H702.293C703.042 17.366 703.732 17.7689 703.732 18.8049C703.732 19.841 703.042 20.2439 702.293 20.2439H698.063V27.1221ZM445.807 74H440.914C439.475 74 438.353 73.6547 437.346 72.5323C436.396 71.4674 436.252 70.4314 436.252 69.1076V53.0488C436.252 52.1279 436.655 51.6099 437.691 51.6099C438.727 51.6099 439.13 52.1279 439.13 53.0488V69.1076C439.13 70.7192 439.619 71.1221 440.914 71.1221H445.807C447.102 71.1221 447.591 70.7192 447.591 69.1076V53.0488C447.591 52.1279 447.994 51.6099 449.03 51.6099C450.066 51.6099 450.469 52.1279 450.469 53.0488V69.1076C450.469 70.4314 450.325 71.4674 449.375 72.5323C448.368 73.6547 447.246 74 445.807 74ZM465.023 61.8552V72.561C465.023 73.482 464.62 74 463.584 74C462.548 74 462.145 73.482 462.145 72.561V51.6099H471.815C474.089 51.6099 476.362 53.2215 476.362 55.7828V57.7686C476.362 60.4738 474.117 61.8552 471.815 61.8552H469.167L475.643 71.1221C475.959 71.5538 476.362 72.1006 476.362 72.6474C476.362 73.4532 475.7 74 474.894 74C474.319 74 473.945 73.6547 473.628 73.1942L465.685 61.8552H465.023ZM465.023 54.4878V58.9773H471.412C472.218 58.9773 473.484 58.9198 473.484 57.7686V55.7828C473.484 54.6317 472.304 54.4878 471.441 54.4878H465.023ZM488.039 74V51.6099H496.097C500.327 51.6099 502.255 54.2 502.255 58.2578C502.255 59.927 501.881 61.4523 500.356 62.8049C501.996 64.359 502.255 65.8843 502.255 68.014C502.255 71.784 499.752 74 496.097 74H488.039ZM490.917 64.2439V71.1221H496.097C498.169 71.1221 499.378 70.2012 499.378 68.014C499.378 65.5965 498.716 64.2439 496.097 64.2439H490.917ZM490.917 54.4878V61.366H496.097C498.169 61.366 499.378 60.4451 499.378 58.2578C499.378 55.8404 498.716 54.4878 496.097 54.4878H490.917ZM513.932 72.561L519.573 53.0776C519.803 52.3006 520.119 51.6099 521.04 51.6099C521.99 51.6099 522.335 52.3294 522.537 53.0776L528.091 72.561C528.293 73.2517 527.516 74 526.71 74C525.818 74 525.357 73.2517 525.156 72.561L524.091 69.1076H517.961L516.867 72.561C516.666 73.2517 516.205 74 515.313 74C514.507 74 513.73 73.2517 513.932 72.561ZM523.285 66.2297L521.069 58.4305H521.012L518.767 66.2297H523.285ZM551.164 69.0788L551.193 53.0776C551.193 52.1567 551.596 51.6387 552.632 51.6387C553.668 51.6387 554.071 52.1567 554.071 53.0776V74.0288H550.272L542.761 56.7613V56.7326H542.703V72.561C542.703 73.482 542.3 74 541.264 74C540.228 74 539.825 73.482 539.825 72.561V51.6099H543.624L551.135 69.0788H551.107H551.164ZM439.562 98.6677L449.462 111.359C450.037 112.108 450.469 112.769 450.469 113.748C450.469 115.906 448.828 117 446.843 117H440.511C439.418 117 438.468 116.799 437.605 116.079C436.828 115.446 436.252 114.41 436.252 113.403C436.252 112.482 436.77 111.676 437.777 111.676C438.612 111.676 439.13 112.367 439.13 113.144C439.13 114.007 439.59 114.122 440.396 114.122H446.641C446.872 114.122 447.591 114.208 447.591 113.777C447.591 113.547 447.188 113.115 447.073 112.942L437.202 100.251C436.597 99.4735 436.252 98.898 436.252 97.8907C436.252 96.7395 436.799 95.761 437.777 95.1279C438.583 94.6099 439.245 94.6099 440.166 94.6099H446.267C447.361 94.6099 448.282 94.8401 449.116 95.5596C449.865 96.2215 450.469 97.2863 450.469 98.2936C450.469 99.2145 450.008 99.9628 448.972 99.9628C448.109 99.9628 447.591 99.416 447.591 98.6102C447.591 97.6317 447.102 97.4878 446.21 97.4878H440.108C439.792 97.4878 439.13 97.4015 439.13 97.8907C439.13 98.1497 439.447 98.4951 439.562 98.6677ZM470.693 106.352V115.561C470.693 116.482 470.29 117 469.254 117C468.218 117 467.815 116.482 467.815 115.561V106.352L462.145 98.9843V96.0488C462.145 95.1279 462.548 94.6099 463.584 94.6099C464.62 94.6099 465.023 95.1279 465.023 96.0488V98.0058L469.254 103.503L473.484 98.0058V96.0488C473.484 95.1279 473.887 94.6099 474.923 94.6099C475.959 94.6099 476.362 95.1279 476.362 96.0488V98.9843L470.693 106.352ZM491.348 98.6677L501.248 111.359C501.824 112.108 502.255 112.769 502.255 113.748C502.255 115.906 500.615 117 498.629 117H492.298C491.204 117 490.255 116.799 489.391 116.079C488.614 115.446 488.039 114.41 488.039 113.403C488.039 112.482 488.557 111.676 489.564 111.676C490.399 111.676 490.917 112.367 490.917 113.144C490.917 114.007 491.377 114.122 492.183 114.122H498.428C498.658 114.122 499.378 114.208 499.378 113.777C499.378 113.547 498.975 113.115 498.86 112.942L488.988 100.251C488.384 99.4735 488.039 98.898 488.039 97.8907C488.039 96.7395 488.585 95.761 489.564 95.1279C490.37 94.6099 491.032 94.6099 491.953 94.6099H498.054C499.147 94.6099 500.068 94.8401 500.903 95.5596C501.651 96.2215 502.255 97.2863 502.255 98.2936C502.255 99.2145 501.795 99.9628 500.759 99.9628C499.896 99.9628 499.378 99.416 499.378 98.6102C499.378 97.6317 498.888 97.4878 497.996 97.4878H491.895C491.578 97.4878 490.917 97.4015 490.917 97.8907C490.917 98.1497 491.233 98.4951 491.348 98.6677ZM519.601 97.4878H516.81V98.5238C516.81 99.4448 516.407 99.9628 515.371 99.9628C514.335 99.9628 513.932 99.4448 513.932 98.5238V94.6099H528.149V98.5238C528.149 99.4448 527.746 99.9628 526.71 99.9628C525.674 99.9628 525.271 99.4448 525.271 98.5238V97.4878H522.479V115.561C522.479 116.482 522.076 117 521.04 117C520.004 117 519.601 116.482 519.601 115.561V97.4878ZM542.703 114.122H552.603C553.351 114.122 554.042 114.525 554.042 115.561C554.042 116.597 553.351 117 552.603 117H539.825V94.6099H552.603C553.351 94.6099 554.042 95.0128 554.042 96.0488C554.042 97.0849 553.351 97.4878 552.603 97.4878H542.703V104.366H546.934C547.682 104.366 548.373 104.769 548.373 105.805C548.373 106.841 547.682 107.244 546.934 107.244H542.703V114.122ZM572.827 99.675L576.338 94.6099H579.935V115.561C579.935 116.482 579.532 117 578.496 117C577.46 117 577.057 116.482 577.057 115.561V98.5814H577L574.266 102.639V103.1C574.266 103.992 573.921 104.826 572.827 104.826C571.791 104.826 571.388 103.992 571.388 103.1V102.639L568.654 98.5814H568.596V115.561C568.596 116.482 568.193 117 567.157 117C566.121 117 565.718 116.482 565.718 115.561V94.6099H569.316L572.827 99.675ZM594.921 98.6677L604.821 111.359C605.397 112.108 605.829 112.769 605.829 113.748C605.829 115.906 604.188 117 602.202 117H595.871C594.777 117 593.828 116.799 592.964 116.079C592.187 115.446 591.612 114.41 591.612 113.403C591.612 112.482 592.13 111.676 593.137 111.676C593.972 111.676 594.49 112.367 594.49 113.144C594.49 114.007 594.95 114.122 595.756 114.122H602.001C602.231 114.122 602.951 114.208 602.951 113.777C602.951 113.547 602.548 113.115 602.433 112.942L592.562 100.251C591.957 99.4735 591.612 98.898 591.612 97.8907C591.612 96.7395 592.159 95.761 593.137 95.1279C593.943 94.6099 594.605 94.6099 595.526 94.6099H601.627C602.721 94.6099 603.641 94.8401 604.476 95.5596C605.224 96.2215 605.829 97.2863 605.829 98.2936C605.829 99.2145 605.368 99.9628 604.332 99.9628C603.469 99.9628 602.951 99.416 602.951 98.6102C602.951 97.6317 602.462 97.4878 601.569 97.4878H595.468C595.152 97.4878 594.49 97.4015 594.49 97.8907C594.49 98.1497 594.806 98.4951 594.921 98.6677ZM439.13 158.122H449.03C449.778 158.122 450.469 158.525 450.469 159.561C450.469 160.597 449.778 161 449.03 161H436.252V140.049C436.252 139.128 436.655 138.61 437.691 138.61C438.727 138.61 439.13 139.128 439.13 140.049V158.122ZM462.145 159.561L467.786 140.078C468.016 139.301 468.333 138.61 469.254 138.61C470.203 138.61 470.549 139.329 470.75 140.078L476.305 159.561C476.506 160.252 475.729 161 474.923 161C474.031 161 473.571 160.252 473.369 159.561L472.304 156.108H466.174L465.081 159.561C464.879 160.252 464.419 161 463.527 161C462.721 161 461.944 160.252 462.145 159.561ZM471.499 153.23L469.283 145.431H469.225L466.98 153.23H471.499ZM488.039 161V138.61H496.097C500.327 138.61 502.255 141.2 502.255 145.258C502.255 146.927 501.881 148.452 500.356 149.805C501.996 151.359 502.255 152.884 502.255 155.014C502.255 158.784 499.752 161 496.097 161H488.039ZM490.917 151.244V158.122H496.097C498.169 158.122 499.378 157.201 499.378 155.014C499.378 152.597 498.716 151.244 496.097 151.244H490.917ZM490.917 141.488V148.366H496.097C498.169 148.366 499.378 147.445 499.378 145.258C499.378 142.84 498.716 141.488 496.097 141.488H490.917Z" fill="white"/>
</svg>
