<svg width="725" height="196" viewBox="0 0 725 196" fill="none" xmlns="http://www.w3.org/2000/svg">
<path fill-rule="evenodd" clip-rule="evenodd" d="M0 98.13V0H9.77964L10.189 47.88C10.438 76.892 10.436 123.243 10.186 150.88L9.77835 196H0V98.13ZM343.391 196C343.794 184.006 344 151.068 344 98.13C344 52.3559 343.902 13.3066 343.768 0H342.417C341.684 26.2382 341.902 167.225 342.702 196H343.391ZM330.463 196C331.478 174.949 332.105 94.0913 331.442 47.101C331.149 26.3297 330.712 8.30266 330.331 0H328.965C328.593 6.41126 328.713 19.3675 329.309 40.13C330.163 69.885 329.52 176.152 328.456 181.13C328.004 183.243 328.352 190.805 328.912 196H330.463ZM316.904 196C316.966 194.703 317 193.202 317 191.544C317 186.272 317.947 169.284 319.104 153.794C320.916 129.53 321.128 120.437 320.637 88.13C320.323 67.505 319.614 46.58 319.061 41.63C318.509 36.68 317.748 24.193 317.37 13.88C317.169 8.3932 316.881 3.43694 316.585 0H315.101C314.772 8.43396 315.388 26.2937 316.717 41.275C319.092 68.06 319.085 128.929 316.704 155.985C315.341 171.471 314.765 187.9 315.122 196H316.904ZM303.804 196C303.977 193.961 304.125 191.168 304.285 187.38C304.605 179.818 306.336 163.73 308.131 151.63C311.273 130.452 311.395 128.471 311.395 98.63C311.395 68.773 311.274 66.819 308.126 45.63C306.329 33.53 304.599 17.218 304.282 9.38C304.121 5.39624 303.93 2.28536 303.698 0H301.021C300.937 7.55988 302.571 25.9214 305.029 43.714C311.44 90.135 311.214 108.138 303.519 164.13C302.726 169.905 301.766 180.592 301.386 187.88C301.2 191.441 301.083 194.069 301.05 196H303.804ZM290.972 196C290.992 195.083 291 194.008 291 192.751C291 183.655 293.022 170.683 297.933 148.269C302.527 127.305 303.963 115.482 303.963 98.63C303.963 81.222 302.569 70.258 297.138 44.94C293.018 25.737 291.098 12.951 290.724 2.209C290.696 1.41024 290.653 0.672288 290.596 0H288.053C288.019 1.05451 288.004 2.3123 288.005 3.79701C288.011 13.379 290.24 28.131 294.866 49.204C300.127 73.174 300.502 76.519 300.461 99.13L300.459 100.31V100.31V100.311V100.311V100.312V100.312V100.312C300.445 108.656 300.436 113.766 300.02 118.842C299.364 126.862 297.692 134.799 293.379 155.274L292.988 157.13C289.594 173.243 287.727 188.384 287.927 196H290.972ZM277.317 196C277.374 195.504 277.43 194.965 277.486 194.38C278.67 181.992 281.005 171.349 287.564 148.444C296.148 118.465 297.37 111.191 296.687 94.13C296.102 79.52 294.801 73.196 286.503 44.63C281.096 26.019 278.448 13.73 277.504 2.88C277.408 1.78155 277.314 0.826909 277.217 0H274.062C274.105 1.05749 274.18 2.33625 274.282 3.88C275 14.751 277.565 26.371 284.488 50.13C292.236 76.718 293.461 83.374 293.415 98.63C293.37 113.631 292.163 120.232 284.86 145.389C278.054 168.832 275.11 181.991 274.345 192.38C274.24 193.8 274.16 194.995 274.107 196H277.317ZM264.085 196C264.751 187.406 269.291 171.527 276.941 151.13C281.788 138.205 286.507 124.586 287.427 120.866C292.919 98.663 290.961 81.916 279.408 52.255C269.603 27.0805 264.52 9.80345 264.038 0H260.406C260.5 1.28284 260.691 2.88337 260.967 4.87201C262.498 15.913 265.178 24.865 273.768 47.63C277.919 58.63 282.341 71.508 283.595 76.249C289.656 99.164 287.475 114.344 272.683 152.223C266.417 168.268 262.281 182.211 261.046 191.452L260.904 192.512L260.904 192.513V192.513V192.514V192.514V192.514V192.514V192.515V192.515C260.721 193.882 260.567 195.032 260.445 196H264.085ZM251.188 196C251.225 195.65 251.262 195.277 251.299 194.88C252.183 185.477 257.087 171.784 267.139 150.657C272.117 140.192 277.817 126.905 279.805 121.13C283.173 111.345 283.419 109.813 283.419 98.63C283.419 87.465 283.169 85.899 279.821 76.13C277.841 70.355 273.882 60.68 271.021 54.63C257.01 24.998 252.653 13.336 251.226 1.64301C251.153 1.04186 251.08 0.495828 251.006 0H247.126C247.169 0.583399 247.222 1.23434 247.283 1.96001C248.101 11.722 253.262 26.401 263.514 48.13C274.178 70.73 276.411 76.523 278.574 87.2C281.783 103.034 279.054 115.345 266.288 142.63C255.502 165.683 251.117 176.551 248.936 185.63C247.871 190.061 247.249 193.5 247.067 196H251.188ZM237.862 196C240.015 183.673 244.565 172.964 256.515 151.596C284.194 102.1 284.042 94.023 254.438 41.557C244.055 23.1556 240.089 13.3524 237.731 0H233.298C233.327 0.251224 233.357 0.515338 233.39 0.792999C234.76 12.446 240.059 24.725 256.407 54.13C277.937 92.857 277.986 103.905 256.795 142.073C252.35 150.079 247.433 158.939 245.869 161.762C241.162 170.255 236.355 182.276 234.628 189.867C234.038 192.459 233.618 194.455 233.37 196H237.862ZM224.763 196C224.943 195.242 225.137 194.374 225.355 193.38C227.71 182.619 232.884 172.274 246.941 150.223C261.126 127.97 266.42 117.426 268.578 107.13C271.91 91.229 267.384 78.135 248.528 49.13C232.499 24.474 227.042 13.513 224.838 1.552C224.734 0.989432 224.635 0.473242 224.538 0H219.726C219.97 1.44783 220.395 3.29797 220.992 5.649C223.855 16.914 229.029 27.135 243.095 49.313C257.988 72.794 261.756 80.238 263.831 90.273C267.159 106.367 263.077 117.035 240.161 152.13C229.131 169.022 222.207 183.958 219.814 196H224.763ZM211.531 196C211.651 195.422 211.781 194.789 211.924 194.094L211.924 194.094L212.002 193.715C213.798 184.976 221.609 170.607 234.065 153.13C240.141 144.605 246.439 135.754 248.06 133.461C249.681 131.168 253.12 124.923 255.702 119.582C259.964 110.767 260.435 109.069 260.813 101.153C261.492 86.965 256.993 75.773 242.515 55.63C220.62 25.167 212.585 10.861 211.306 0.0690002L211.298 0H206.298C206.325 0.239989 206.355 0.491799 206.386 0.756012C207.706 11.984 214.817 25.442 232.313 49.822C252.256 77.611 256.607 87.084 255.803 100.965C255.111 112.926 251.284 120.412 231.951 147.63C215.975 170.122 210.905 178.959 207.612 190.062C206.899 192.464 206.426 194.424 206.196 196H211.531ZM198.084 196C200.021 186.661 207.142 173.56 218.131 159.13C223.785 151.705 231.476 141.58 235.222 136.63C248.232 119.439 253.428 105.098 251.252 92.394C249.123 79.965 244.313 72.029 218.357 38.13C205.92 21.8861 200.48 11.846 197.833 0H192.296C192.612 1.68334 193.21 3.89629 194.085 6.77501C197.653 18.508 204.076 28.935 220.485 49.63C242.107 76.899 248.323 90.349 245.778 104.353C243.868 114.86 237.678 125.281 219.478 148.63C202.563 170.331 196.548 180.366 193.571 191.854C193.139 193.523 192.8 194.885 192.56 196H198.084ZM184.481 196C185.68 190.939 188.932 182.953 192.135 177.626C196.194 170.875 199.603 166.417 220.338 140.743C236.545 120.677 242.735 105.559 240.239 92.138C237.903 79.576 232.191 70.198 211.805 45.458C205.539 37.852 198.771 29.356 196.765 26.576C191.486 19.261 185.295 5.91101 184.499 0.126007L184.482 0H178.702C178.873 0.98933 179.126 2.17265 179.454 3.586C182.378 16.195 187.084 23.837 207.5 49.13C224.016 69.591 227.071 73.92 231.157 82.652C236.611 94.307 236.041 105.593 229.374 117.946C225.246 125.595 220.821 131.581 206.706 148.609C188.925 170.059 180.875 183.681 178.756 196H184.481ZM171.336 196C172.854 185.259 179.913 173.786 198.515 151.63C223.502 121.869 230.013 108.513 227.289 92.607C225.09 79.771 219.092 69.888 198.474 45.13C179.04 21.794 173.997 13.661 171.581 1.76001C171.449 1.10849 171.326 0.524212 171.208 0H164.985C165.053 0.406236 165.13 0.844814 165.216 1.31801C167.612 14.503 174.411 25.799 193.993 49.13C230.772 92.951 230.867 103.383 194.881 146.655C173.439 172.438 167.456 182.328 165.139 196H171.336ZM158.027 196C158.036 195.96 158.044 195.92 158.053 195.879C160.575 183.998 166.261 174.449 184.269 151.857C208.193 121.844 213.945 110.489 212.752 95.628C211.796 83.724 206.218 73.282 189.066 51.29C165.303 20.823 161.449 14.622 158.353 1.88C158.184 1.18568 158.029 0.561298 157.882 0H151.331C151.38 0.381368 151.442 0.790154 151.516 1.22801C153.285 11.693 160.301 24.721 172.469 40.13C198.552 73.162 204.375 82.474 205.962 93.696C207.962 107.83 202.662 118.786 180.339 146.666C162.055 169.501 155.564 180.029 152.489 191.833C152.052 193.511 151.712 194.879 151.477 196H158.027ZM144.659 196C144.7 195.8 144.743 195.592 144.788 195.376C147.155 183.919 152.948 174.022 173.908 145.63C190.8 122.749 196.02 111.413 195.979 97.698C195.94 84.652 190.284 73.086 171.882 48.424C153.182 23.361 147.24 13.012 144.872 1.38C144.771 0.881478 144.676 0.422517 144.586 0H137.713C138.479 4.28502 140.41 11.0002 142.292 15.252C146.012 23.66 151.697 32.482 165.16 50.741C183.033 74.981 186.929 81.967 189.09 93.657C191.294 105.582 185.298 119.038 166.377 144.63C152.006 164.068 148.284 169.643 143.954 178.222C142.057 181.979 139.173 190.54 137.792 196H144.659ZM131.403 196C131.501 195.534 131.596 195.05 131.688 194.553C133.447 185.027 139.998 172.443 154.489 150.758C173.341 122.547 178.011 112.202 177.988 98.698C177.964 84.593 173.76 75.168 154.667 46.421C139.992 24.326 134.719 14.44 132.375 4.63C131.982 2.98672 131.594 1.36858 131.264 0H123.876C124.886 5.25759 127.836 14.1935 130.923 20.63C133.561 26.13 142.041 40.195 149.769 51.886C166.297 76.892 170.135 85.069 170.769 96.63C171.502 109.99 168.064 117.93 149.725 145.227C132.216 171.29 126.094 183.329 124.196 195.436L124.108 196H131.403ZM117.797 196C119.887 184.626 124.948 173.222 136.05 154.63C154.174 124.28 159 112.533 159 98.771C159 84.626 155.621 75.791 139.993 49.079C124.287 22.235 119.49 11.78 117.575 0H110.151C110.881 5.75188 114.143 16.5713 117.376 23.568C119.293 27.716 125.612 39.158 131.42 48.995C151.282 82.634 154.383 92.395 150.478 108.962C148.413 117.722 143.976 126.888 132.506 146.09C120.531 166.138 114.608 178.433 111.986 188.686C111.188 191.807 110.638 194.194 110.337 196H117.797ZM104.387 196L104.462 195.38C105.635 185.647 110.324 173.628 122.796 148.393C136.992 119.668 139.414 112.218 139.302 97.63C139.199 84.169 136.47 75.87 123.942 50.915C109.663 22.473 105.683 12.29 104.395 0.908005C104.359 0.587934 104.325 0.285593 104.292 0H96.3741C96.4878 1.1343 96.7088 2.52406 97.017 4.224C99.153 16.001 102.947 25.719 114.578 49.201C129.703 79.737 131.354 84.54 131.402 98.13C131.435 107.386 131.064 109.716 128.268 117.792C126.524 122.831 120.408 136.331 114.678 147.792C103.576 169.994 99.74 179.48 97.437 190.43C96.9479 192.755 96.5724 194.575 96.3356 196H104.387ZM90.9889 196C90.9965 195.718 91 195.422 91 195.11C91 187.458 95.532 173.403 105.519 150.085C119.596 117.218 122.26 101.682 117.458 80.447C115.528 71.914 112.537 63.661 103.573 42.145C95.912 23.759 91 7.918 91 1.60201C91 1.08572 90.978 0.538663 90.9389 0H82.7703C83.2712 5.19361 84.8404 13.8173 86.531 19.67C87.954 24.598 92.069 35.605 95.675 44.13C108.62 74.729 111.172 83.581 111.247 98.13C111.323 113.111 108.926 121.343 94.504 155.63C87.3452 172.649 84.2995 182.918 82.5513 196H90.9889ZM77.2454 196L77.41 194.38C78.582 182.853 80.924 173.381 87.98 151.63C103.584 103.532 103.54 93.295 87.528 44.13C80.781 23.414 78.447 13.792 77.376 2.26801L77.1653 0H69.0452L69.317 3.88C70.079 14.748 72.436 24.49 80.024 48.13C90.066 79.421 90.313 80.613 90.377 98.13C90.44 115.691 89.905 118.342 80.5 147.13C73.179 169.534 70.11 181.986 69.345 192.38L69.0786 196H77.2454ZM64.0033 196L64.004 194.88C64.01 186.137 66.349 172.624 71.492 151.63C78.423 123.335 79.399 116.724 79.391 98.13C79.384 79.707 78.79 75.819 70.995 43.13C66.123 22.702 64.201 11.573 63.742 1.13L63.6923 0H54.994L55.321 5.34201C56.017 16.723 57.781 26.137 63.975 51.531C70.018 76.305 71.294 86.035 70.675 102.63C70.133 117.186 68.001 130.221 62.974 149.724C58.474 167.186 55.965 180.817 55.306 191.38L55.0179 196H64.0033ZM49.9907 196L50.774 186.38C51.435 178.267 53.552 162.209 55.477 150.694C62.335 109.693 62.343 87.752 55.516 46.316C51.952 24.68 50 8.302 50 0.0240021V0H41.0358C41.0037 6.80028 42.4904 22.0547 44.637 35.63C46.028 44.43 47.805 55.68 48.586 60.63C53.12 89.376 52.546 113.586 46.471 149.73C43.0774 169.923 41.0593 187.009 41.0023 196H49.9907ZM36.8822 196L37.324 183.791C37.665 174.353 38.628 160.78 39.463 153.63C43.507 119.022 43.494 80.514 39.425 42.63C38.539 34.38 37.518 20.43 37.157 11.63L36.6794 0H27.4387C26.9875 6.79426 28.5012 30.0427 30.701 49.226C33.189 70.909 33.172 127.372 30.673 148.13C28.6944 164.557 27.18 188.186 27.5302 196H36.8822ZM23.6172 196L23.756 182.797C23.86 172.805 24.402 155.63 24.959 144.63C26.273 118.704 26.271 79.514 24.957 52.258C24.383 40.363 23.82 22.755 23.707 13.13L23.5517 0H13.8176L14.564 26.319C15.718 67.038 15.729 130.809 14.59 168.748C14.2466 180.17 14.0611 190.46 14.0757 196H23.6172Z" fill="url(#paint0_linear_35_20)"/>
<path d="M386.7 10.075L395.3 21.1C395.8 21.75 396.175 22.325 396.175 23.175C396.175 25.05 394.75 26 393.025 26H387.525C386.575 26 385.75 25.825 385 25.2C384.325 24.65 383.825 23.75 383.825 22.875C383.825 22.075 384.275 21.375 385.15 21.375C385.875 21.375 386.325 21.975 386.325 22.65C386.325 23.4 386.725 23.5 387.425 23.5H392.85C393.05 23.5 393.675 23.575 393.675 23.2C393.675 23 393.325 22.625 393.225 22.475L384.65 11.45C384.125 10.775 383.825 10.275 383.825 9.4C383.825 8.4 384.3 7.55 385.15 7C385.85 6.55 386.425 6.55 387.225 6.55H392.525C393.475 6.55 394.275 6.75 395 7.375C395.65 7.95 396.175 8.875 396.175 9.75C396.175 10.55 395.775 11.2 394.875 11.2C394.125 11.2 393.675 10.725 393.675 10.025C393.675 9.175 393.25 9.05 392.475 9.05H387.175C386.9 9.05 386.325 8.975 386.325 9.4C386.325 9.625 386.6 9.925 386.7 10.075ZM414.618 26H410.368C409.118 26 408.143 25.7 407.268 24.725C406.443 23.8 406.318 22.9 406.318 21.75V7.8C406.318 7 406.668 6.55 407.568 6.55C408.468 6.55 408.818 7 408.818 7.8V21.75C408.818 23.15 409.243 23.5 410.368 23.5H414.618C415.743 23.5 416.168 23.15 416.168 21.75V7.8C416.168 7 416.518 6.55 417.418 6.55C418.318 6.55 418.668 7 418.668 7.8V21.75C418.668 22.9 418.543 23.8 417.718 24.725C416.843 25.7 415.868 26 414.618 26ZM431.686 10.075L440.286 21.1C440.786 21.75 441.161 22.325 441.161 23.175C441.161 25.05 439.736 26 438.011 26H432.511C431.561 26 430.736 25.825 429.986 25.2C429.311 24.65 428.811 23.75 428.811 22.875C428.811 22.075 429.261 21.375 430.136 21.375C430.861 21.375 431.311 21.975 431.311 22.65C431.311 23.4 431.711 23.5 432.411 23.5H437.836C438.036 23.5 438.661 23.575 438.661 23.2C438.661 23 438.311 22.625 438.211 22.475L429.636 11.45C429.111 10.775 428.811 10.275 428.811 9.4C428.811 8.4 429.286 7.55 430.136 7C430.836 6.55 431.411 6.55 432.211 6.55H437.511C438.461 6.55 439.261 6.75 439.986 7.375C440.636 7.95 441.161 8.875 441.161 9.75C441.161 10.55 440.761 11.2 439.861 11.2C439.111 11.2 438.661 10.725 438.661 10.025C438.661 9.175 438.236 9.05 437.461 9.05H432.161C431.886 9.05 431.311 8.975 431.311 9.4C431.311 9.625 431.586 9.925 431.686 10.075ZM456.229 9.05H453.804V9.95C453.804 10.75 453.454 11.2 452.554 11.2C451.654 11.2 451.304 10.75 451.304 9.95V6.55H463.654V9.95C463.654 10.75 463.304 11.2 462.404 11.2C461.504 11.2 461.154 10.75 461.154 9.95V9.05H458.729V24.75C458.729 25.55 458.379 26 457.479 26C456.579 26 456.229 25.55 456.229 24.75V9.05ZM473.798 24.75L478.698 7.825C478.898 7.15 479.173 6.55 479.973 6.55C480.798 6.55 481.098 7.175 481.273 7.825L486.098 24.75C486.273 25.35 485.598 26 484.898 26C484.123 26 483.723 25.35 483.548 24.75L482.623 21.75H477.298L476.348 24.75C476.173 25.35 475.773 26 474.998 26C474.298 26 473.623 25.35 473.798 24.75ZM481.923 19.25L479.998 12.475H479.948L477.998 19.25H481.923ZM503.716 9.05V23.5H507.391C508.041 23.5 508.641 23.85 508.641 24.75C508.641 25.65 508.041 26 507.391 26H497.541C496.891 26 496.291 25.65 496.291 24.75C496.291 23.85 496.891 23.5 497.541 23.5H501.216V9.05H497.541C496.891 9.05 496.291 8.7 496.291 7.8C496.291 6.9 496.891 6.55 497.541 6.55H507.391C508.041 6.55 508.641 6.9 508.641 7.8C508.641 8.7 508.041 9.05 507.391 9.05H503.716ZM528.634 21.725L528.659 7.825C528.659 7.025 529.009 6.575 529.909 6.575C530.809 6.575 531.159 7.025 531.159 7.825V26.025H527.859L521.334 11.025V11H521.284V24.75C521.284 25.55 520.934 26 520.034 26C519.134 26 518.784 25.55 518.784 24.75V6.55H522.084L528.609 21.725H528.584H528.634ZM541.277 24.75L546.177 7.825C546.377 7.15 546.652 6.55 547.452 6.55C548.277 6.55 548.577 7.175 548.752 7.825L553.577 24.75C553.752 25.35 553.077 26 552.377 26C551.602 26 551.202 25.35 551.027 24.75L550.102 21.75H544.777L543.827 24.75C543.652 25.35 543.252 26 542.477 26C541.777 26 541.102 25.35 541.277 24.75ZM549.402 19.25L547.477 12.475H547.427L545.477 19.25H549.402ZM563.77 26V6.55H570.77C574.445 6.55 576.12 8.8 576.12 12.325C576.12 13.775 575.795 15.1 574.47 16.275C575.895 17.625 576.12 18.95 576.12 20.8C576.12 24.075 573.945 26 570.77 26H563.77ZM566.27 17.525V23.5H570.77C572.57 23.5 573.62 22.7 573.62 20.8C573.62 18.7 573.045 17.525 570.77 17.525H566.27ZM566.27 9.05V15.025H570.77C572.57 15.025 573.62 14.225 573.62 12.325C573.62 10.225 573.045 9.05 570.77 9.05H566.27ZM588.763 23.5H597.363C598.013 23.5 598.613 23.85 598.613 24.75C598.613 25.65 598.013 26 597.363 26H586.263V7.8C586.263 7 586.613 6.55 587.513 6.55C588.413 6.55 588.763 7 588.763 7.8V23.5ZM611.257 23.5H619.857C620.507 23.5 621.107 23.85 621.107 24.75C621.107 25.65 620.507 26 619.857 26H608.757V6.55H619.857C620.507 6.55 621.107 6.9 621.107 7.8C621.107 8.7 620.507 9.05 619.857 9.05H611.257V15.025H614.932C615.582 15.025 616.182 15.375 616.182 16.275C616.182 17.175 615.582 17.525 614.932 17.525H611.257V23.5ZM392.125 64H387.875C386.625 64 385.65 63.7 384.775 62.725C383.95 61.8 383.825 60.9 383.825 59.75V45.8C383.825 45 384.175 44.55 385.075 44.55C385.975 44.55 386.325 45 386.325 45.8V59.75C386.325 61.15 386.75 61.5 387.875 61.5H392.125C393.25 61.5 393.675 61.15 393.675 59.75V45.8C393.675 45 394.025 44.55 394.925 44.55C395.825 44.55 396.175 45 396.175 45.8V59.75C396.175 60.9 396.05 61.8 395.225 62.725C394.35 63.7 393.375 64 392.125 64ZM408.818 53.45V62.75C408.818 63.55 408.468 64 407.568 64C406.668 64 406.318 63.55 406.318 62.75V44.55H414.718C416.693 44.55 418.668 45.95 418.668 48.175V49.9C418.668 52.25 416.718 53.45 414.718 53.45H412.418L418.043 61.5C418.318 61.875 418.668 62.35 418.668 62.825C418.668 63.525 418.093 64 417.393 64C416.893 64 416.568 63.7 416.293 63.3L409.393 53.45H408.818ZM408.818 47.05V50.95H414.368C415.068 50.95 416.168 50.9 416.168 49.9V48.175C416.168 47.175 415.143 47.05 414.393 47.05H408.818ZM428.811 64V44.55H435.811C439.486 44.55 441.161 46.8 441.161 50.325C441.161 51.775 440.836 53.1 439.511 54.275C440.936 55.625 441.161 56.95 441.161 58.8C441.161 62.075 438.986 64 435.811 64H428.811ZM431.311 55.525V61.5H435.811C437.611 61.5 438.661 60.7 438.661 58.8C438.661 56.7 438.086 55.525 435.811 55.525H431.311ZM431.311 47.05V53.025H435.811C437.611 53.025 438.661 52.225 438.661 50.325C438.661 48.225 438.086 47.05 435.811 47.05H431.311ZM451.304 62.75L456.204 45.825C456.404 45.15 456.679 44.55 457.479 44.55C458.304 44.55 458.604 45.175 458.779 45.825L463.604 62.75C463.779 63.35 463.104 64 462.404 64C461.629 64 461.229 63.35 461.054 62.75L460.129 59.75H454.804L453.854 62.75C453.679 63.35 453.279 64 452.504 64C451.804 64 451.129 63.35 451.304 62.75ZM459.429 57.25L457.504 50.475H457.454L455.504 57.25H459.429ZM483.648 59.725L483.673 45.825C483.673 45.025 484.023 44.575 484.923 44.575C485.823 44.575 486.173 45.025 486.173 45.825V64.025H482.873L476.348 49.025V49H476.298V62.75C476.298 63.55 475.948 64 475.048 64C474.148 64 473.798 63.55 473.798 62.75V44.55H477.098L483.623 59.725H483.598H483.648ZM386.7 86.075L395.3 97.1C395.8 97.75 396.175 98.325 396.175 99.175C396.175 101.05 394.75 102 393.025 102H387.525C386.575 102 385.75 101.825 385 101.2C384.325 100.65 383.825 99.75 383.825 98.875C383.825 98.075 384.275 97.375 385.15 97.375C385.875 97.375 386.325 97.975 386.325 98.65C386.325 99.4 386.725 99.5 387.425 99.5H392.85C393.05 99.5 393.675 99.575 393.675 99.2C393.675 99 393.325 98.625 393.225 98.475L384.65 87.45C384.125 86.775 383.825 86.275 383.825 85.4C383.825 84.4 384.3 83.55 385.15 83C385.85 82.55 386.425 82.55 387.225 82.55H392.525C393.475 82.55 394.275 82.75 395 83.375C395.65 83.95 396.175 84.875 396.175 85.75C396.175 86.55 395.775 87.2 394.875 87.2C394.125 87.2 393.675 86.725 393.675 86.025C393.675 85.175 393.25 85.05 392.475 85.05H387.175C386.9 85.05 386.325 84.975 386.325 85.4C386.325 85.625 386.6 85.925 386.7 86.075ZM413.743 92.75V100.75C413.743 101.55 413.393 102 412.493 102C411.593 102 411.243 101.55 411.243 100.75V92.75L406.318 86.35V83.8C406.318 83 406.668 82.55 407.568 82.55C408.468 82.55 408.818 83 408.818 83.8V85.5L412.493 90.275L416.168 85.5V83.8C416.168 83 416.518 82.55 417.418 82.55C418.318 82.55 418.668 83 418.668 83.8V86.35L413.743 92.75ZM431.686 86.075L440.286 97.1C440.786 97.75 441.161 98.325 441.161 99.175C441.161 101.05 439.736 102 438.011 102H432.511C431.561 102 430.736 101.825 429.986 101.2C429.311 100.65 428.811 99.75 428.811 98.875C428.811 98.075 429.261 97.375 430.136 97.375C430.861 97.375 431.311 97.975 431.311 98.65C431.311 99.4 431.711 99.5 432.411 99.5H437.836C438.036 99.5 438.661 99.575 438.661 99.2C438.661 99 438.311 98.625 438.211 98.475L429.636 87.45C429.111 86.775 428.811 86.275 428.811 85.4C428.811 84.4 429.286 83.55 430.136 83C430.836 82.55 431.411 82.55 432.211 82.55H437.511C438.461 82.55 439.261 82.75 439.986 83.375C440.636 83.95 441.161 84.875 441.161 85.75C441.161 86.55 440.761 87.2 439.861 87.2C439.111 87.2 438.661 86.725 438.661 86.025C438.661 85.175 438.236 85.05 437.461 85.05H432.161C431.886 85.05 431.311 84.975 431.311 85.4C431.311 85.625 431.586 85.925 431.686 86.075ZM456.229 85.05H453.804V85.95C453.804 86.75 453.454 87.2 452.554 87.2C451.654 87.2 451.304 86.75 451.304 85.95V82.55H463.654V85.95C463.654 86.75 463.304 87.2 462.404 87.2C461.504 87.2 461.154 86.75 461.154 85.95V85.05H458.729V100.75C458.729 101.55 458.379 102 457.479 102C456.579 102 456.229 101.55 456.229 100.75V85.05ZM476.298 99.5H484.898C485.548 99.5 486.148 99.85 486.148 100.75C486.148 101.65 485.548 102 484.898 102H473.798V82.55H484.898C485.548 82.55 486.148 82.9 486.148 83.8C486.148 84.7 485.548 85.05 484.898 85.05H476.298V91.025H479.973C480.623 91.025 481.223 91.375 481.223 92.275C481.223 93.175 480.623 93.525 479.973 93.525H476.298V99.5ZM502.466 86.95L505.516 82.55H508.641V100.75C508.641 101.55 508.291 102 507.391 102C506.491 102 506.141 101.55 506.141 100.75V86H506.091L503.716 89.525V89.925C503.716 90.7 503.416 91.425 502.466 91.425C501.566 91.425 501.216 90.7 501.216 89.925V89.525L498.841 86H498.791V100.75C498.791 101.55 498.441 102 497.541 102C496.641 102 496.291 101.55 496.291 100.75V82.55H499.416L502.466 86.95ZM521.659 86.075L530.259 97.1C530.759 97.75 531.134 98.325 531.134 99.175C531.134 101.05 529.709 102 527.984 102H522.484C521.534 102 520.709 101.825 519.959 101.2C519.284 100.65 518.784 99.75 518.784 98.875C518.784 98.075 519.234 97.375 520.109 97.375C520.834 97.375 521.284 97.975 521.284 98.65C521.284 99.4 521.684 99.5 522.384 99.5H527.809C528.009 99.5 528.634 99.575 528.634 99.2C528.634 99 528.284 98.625 528.184 98.475L519.609 87.45C519.084 86.775 518.784 86.275 518.784 85.4C518.784 84.4 519.259 83.55 520.109 83C520.809 82.55 521.384 82.55 522.184 82.55H527.484C528.434 82.55 529.234 82.75 529.959 83.375C530.609 83.95 531.134 84.875 531.134 85.75C531.134 86.55 530.734 87.2 529.834 87.2C529.084 87.2 528.634 86.725 528.634 86.025C528.634 85.175 528.209 85.05 527.434 85.05H522.134C521.859 85.05 521.284 84.975 521.284 85.4C521.284 85.625 521.559 85.925 521.659 86.075ZM386.325 137.5H394.925C395.575 137.5 396.175 137.85 396.175 138.75C396.175 139.65 395.575 140 394.925 140H383.825V121.8C383.825 121 384.175 120.55 385.075 120.55C385.975 120.55 386.325 121 386.325 121.8V137.5ZM406.318 138.75L411.218 121.825C411.418 121.15 411.693 120.55 412.493 120.55C413.318 120.55 413.618 121.175 413.793 121.825L418.618 138.75C418.793 139.35 418.118 140 417.418 140C416.643 140 416.243 139.35 416.068 138.75L415.143 135.75H409.818L408.868 138.75C408.693 139.35 408.293 140 407.518 140C406.818 140 406.143 139.35 406.318 138.75ZM414.443 133.25L412.518 126.475H412.468L410.518 133.25H414.443ZM428.811 140V120.55H435.811C439.486 120.55 441.161 122.8 441.161 126.325C441.161 127.775 440.836 129.1 439.511 130.275C440.936 131.625 441.161 132.95 441.161 134.8C441.161 138.075 438.986 140 435.811 140H428.811ZM431.311 131.525V137.5H435.811C437.611 137.5 438.661 136.7 438.661 134.8C438.661 132.7 438.086 131.525 435.811 131.525H431.311ZM431.311 123.05V129.025H435.811C437.611 129.025 438.661 128.225 438.661 126.325C438.661 124.225 438.086 123.05 435.811 123.05H431.311ZM390 173.35L393.675 163.8V159.8C393.675 159 394.025 158.55 394.925 158.55C395.825 158.55 396.175 159 396.175 159.8V163.75C396.175 164.075 396.15 164.425 396.025 164.725L391.25 176.9C391 177.525 390.775 178 390 178C389.225 178 389 177.525 388.75 176.9L383.975 164.725C383.85 164.425 383.825 164.075 383.825 163.75V159.8C383.825 159 384.175 158.55 385.075 158.55C385.975 158.55 386.325 159 386.325 159.8V163.8L390 173.35ZM413.743 161.05V175.5H417.418C418.068 175.5 418.668 175.85 418.668 176.75C418.668 177.65 418.068 178 417.418 178H407.568C406.918 178 406.318 177.65 406.318 176.75C406.318 175.85 406.918 175.5 407.568 175.5H411.243V161.05H407.568C406.918 161.05 406.318 160.7 406.318 159.8C406.318 158.9 406.918 158.55 407.568 158.55H417.418C418.068 158.55 418.668 158.9 418.668 159.8C418.668 160.7 418.068 161.05 417.418 161.05H413.743ZM431.311 170.65V176.75C431.311 177.55 430.961 178 430.061 178C429.161 178 428.811 177.55 428.811 176.75V158.55H437.111C438.261 158.55 439.086 158.725 439.986 159.575C441.061 160.575 441.161 161.5 441.161 162.85V166.25C441.161 167.525 441.061 168.425 440.136 169.45C439.161 170.55 438.136 170.65 436.786 170.65H431.311ZM431.311 161.05V168.15H436.861C438.336 168.15 438.661 167.775 438.661 166.35V162.85C438.661 161.425 438.336 161.05 436.861 161.05H431.311ZM454.554 166.775H460.404C461.429 166.775 461.904 167.175 461.904 168.3C461.904 169.425 461.429 169.825 460.404 169.825H454.554C453.529 169.825 453.054 169.425 453.054 168.3C453.054 167.175 453.529 166.775 454.554 166.775ZM476.673 162.075L485.273 173.1C485.773 173.75 486.148 174.325 486.148 175.175C486.148 177.05 484.723 178 482.998 178H477.498C476.548 178 475.723 177.825 474.973 177.2C474.298 176.65 473.798 175.75 473.798 174.875C473.798 174.075 474.248 173.375 475.123 173.375C475.848 173.375 476.298 173.975 476.298 174.65C476.298 175.4 476.698 175.5 477.398 175.5H482.823C483.023 175.5 483.648 175.575 483.648 175.2C483.648 175 483.298 174.625 483.198 174.475L474.623 163.45C474.098 162.775 473.798 162.275 473.798 161.4C473.798 160.4 474.273 159.55 475.123 159C475.823 158.55 476.398 158.55 477.198 158.55H482.498C483.448 158.55 484.248 158.75 484.973 159.375C485.623 159.95 486.148 160.875 486.148 161.75C486.148 162.55 485.748 163.2 484.848 163.2C484.098 163.2 483.648 162.725 483.648 162.025C483.648 161.175 483.223 161.05 482.448 161.05H477.148C476.873 161.05 476.298 160.975 476.298 161.4C476.298 161.625 476.573 161.925 476.673 162.075ZM502.466 162.95L505.516 158.55H508.641V176.75C508.641 177.55 508.291 178 507.391 178C506.491 178 506.141 177.55 506.141 176.75V162H506.091L503.716 165.525V165.925C503.716 166.7 503.416 167.425 502.466 167.425C501.566 167.425 501.216 166.7 501.216 165.925V165.525L498.841 162H498.791V176.75C498.791 177.55 498.441 178 497.541 178C496.641 178 496.291 177.55 496.291 176.75V158.55H499.416L502.466 162.95ZM527.084 178H522.834C521.584 178 520.609 177.7 519.734 176.725C518.909 175.8 518.784 174.9 518.784 173.75V159.8C518.784 159 519.134 158.55 520.034 158.55C520.934 158.55 521.284 159 521.284 159.8V173.75C521.284 175.15 521.709 175.5 522.834 175.5H527.084C528.209 175.5 528.634 175.15 528.634 173.75V159.8C528.634 159 528.984 158.55 529.884 158.55C530.784 158.55 531.134 159 531.134 159.8V173.75C531.134 174.9 531.009 175.8 530.184 176.725C529.309 177.7 528.334 178 527.084 178ZM543.777 167.45V176.75C543.777 177.55 543.427 178 542.527 178C541.627 178 541.277 177.55 541.277 176.75V158.55H549.677C551.652 158.55 553.627 159.95 553.627 162.175V163.9C553.627 166.25 551.677 167.45 549.677 167.45H547.377L553.002 175.5C553.277 175.875 553.627 176.35 553.627 176.825C553.627 177.525 553.052 178 552.352 178C551.852 178 551.527 177.7 551.252 177.3L544.352 167.45H543.777ZM543.777 161.05V164.95H549.327C550.027 164.95 551.127 164.9 551.127 163.9V162.175C551.127 161.175 550.102 161.05 549.352 161.05H543.777Z" fill="black"/>
<defs>
<linearGradient id="paint0_linear_35_20" x1="0" y1="98" x2="344" y2="98" gradientUnits="userSpaceOnUse">
<stop stop-color="#5433FF"/>
<stop offset="0.5" stop-color="#20BDFF"/>
<stop offset="1" stop-color="#A5FECB"/>
</linearGradient>
</defs>
</svg>
