<svg width="724" height="196" viewBox="0 0 724 196" fill="none" xmlns="http://www.w3.org/2000/svg">
<path fill-rule="evenodd" clip-rule="evenodd" d="M0 98.13V0H9.77964L10.189 47.88C10.438 76.892 10.436 123.243 10.186 150.88L9.77835 196H0V98.13ZM343.391 196C343.794 184.006 344 151.068 344 98.13C344 52.3559 343.902 13.3066 343.768 0H342.417C341.684 26.2382 341.902 167.225 342.702 196H343.391ZM330.463 196C331.478 174.949 332.105 94.0913 331.442 47.101C331.149 26.3297 330.712 8.30266 330.331 0H328.965C328.593 6.41126 328.713 19.3675 329.309 40.13C330.163 69.885 329.52 176.152 328.456 181.13C328.004 183.243 328.352 190.805 328.912 196H330.463ZM316.904 196C316.966 194.703 317 193.202 317 191.544C317 186.272 317.947 169.284 319.104 153.794C320.916 129.53 321.128 120.437 320.637 88.13C320.323 67.505 319.614 46.58 319.061 41.63C318.509 36.68 317.748 24.193 317.37 13.88C317.169 8.3932 316.881 3.43694 316.585 0H315.101C314.772 8.43396 315.388 26.2937 316.717 41.275C319.092 68.06 319.085 128.929 316.704 155.985C315.341 171.471 314.765 187.9 315.122 196H316.904ZM303.804 196C303.977 193.961 304.125 191.168 304.285 187.38C304.605 179.818 306.336 163.73 308.131 151.63C311.273 130.452 311.395 128.471 311.395 98.63C311.395 68.773 311.274 66.819 308.126 45.63C306.329 33.53 304.599 17.218 304.282 9.38C304.121 5.39624 303.93 2.28536 303.698 0H301.021C300.937 7.55988 302.571 25.9214 305.029 43.714C311.44 90.135 311.214 108.138 303.519 164.13C302.726 169.905 301.766 180.592 301.386 187.88C301.2 191.441 301.083 194.069 301.05 196H303.804ZM290.972 196C290.992 195.083 291 194.008 291 192.751C291 183.655 293.022 170.683 297.933 148.269C302.527 127.305 303.963 115.482 303.963 98.63C303.963 81.222 302.569 70.258 297.138 44.94C293.018 25.737 291.098 12.951 290.724 2.209C290.696 1.41024 290.653 0.672288 290.596 0H288.053C288.019 1.05451 288.004 2.3123 288.005 3.79701C288.011 13.379 290.24 28.131 294.866 49.204C300.127 73.174 300.502 76.519 300.461 99.13L300.459 100.31V100.31V100.311V100.311V100.312V100.312V100.312C300.445 108.656 300.436 113.766 300.02 118.842C299.364 126.862 297.692 134.799 293.379 155.274L292.988 157.13C289.594 173.243 287.727 188.384 287.927 196H290.972ZM277.317 196C277.374 195.504 277.43 194.965 277.486 194.38C278.67 181.992 281.005 171.349 287.564 148.444C296.148 118.465 297.37 111.191 296.687 94.13C296.102 79.52 294.801 73.196 286.503 44.63C281.096 26.019 278.448 13.73 277.504 2.88C277.408 1.78155 277.314 0.826909 277.217 0H274.062C274.105 1.05749 274.18 2.33625 274.282 3.88C275 14.751 277.565 26.371 284.488 50.13C292.236 76.718 293.461 83.374 293.415 98.63C293.37 113.631 292.163 120.232 284.86 145.389C278.054 168.832 275.11 181.991 274.345 192.38C274.24 193.8 274.16 194.995 274.107 196H277.317ZM264.085 196C264.751 187.406 269.291 171.527 276.941 151.13C281.788 138.205 286.507 124.586 287.427 120.866C292.919 98.663 290.961 81.916 279.408 52.255C269.603 27.0805 264.52 9.80345 264.038 0H260.406C260.5 1.28284 260.691 2.88337 260.967 4.87201C262.498 15.913 265.178 24.865 273.768 47.63C277.919 58.63 282.341 71.508 283.595 76.249C289.656 99.164 287.475 114.344 272.683 152.223C266.417 168.268 262.281 182.211 261.046 191.452L260.904 192.512L260.904 192.513V192.513V192.514V192.514V192.514V192.514V192.515V192.515C260.721 193.882 260.567 195.032 260.445 196H264.085ZM251.188 196C251.225 195.65 251.262 195.277 251.299 194.88C252.183 185.477 257.087 171.784 267.139 150.657C272.117 140.192 277.817 126.905 279.805 121.13C283.173 111.345 283.419 109.813 283.419 98.63C283.419 87.465 283.169 85.899 279.821 76.13C277.841 70.355 273.882 60.68 271.021 54.63C257.01 24.998 252.653 13.336 251.226 1.64301C251.153 1.04186 251.08 0.495828 251.006 0H247.126C247.169 0.583399 247.222 1.23434 247.283 1.96001C248.101 11.722 253.262 26.401 263.514 48.13C274.178 70.73 276.411 76.523 278.574 87.2C281.783 103.034 279.054 115.345 266.288 142.63C255.502 165.683 251.117 176.551 248.936 185.63C247.871 190.061 247.249 193.5 247.067 196H251.188ZM237.862 196C240.015 183.673 244.565 172.964 256.515 151.596C284.194 102.1 284.042 94.023 254.438 41.557C244.055 23.1556 240.089 13.3524 237.731 0H233.298C233.327 0.251224 233.357 0.515338 233.39 0.792999C234.76 12.446 240.059 24.725 256.407 54.13C277.937 92.857 277.986 103.905 256.795 142.073C252.35 150.079 247.433 158.939 245.869 161.762C241.162 170.255 236.355 182.276 234.628 189.867C234.038 192.459 233.618 194.455 233.37 196H237.862ZM224.763 196C224.943 195.242 225.137 194.374 225.355 193.38C227.71 182.619 232.884 172.274 246.941 150.223C261.126 127.97 266.42 117.426 268.578 107.13C271.91 91.229 267.384 78.135 248.528 49.13C232.499 24.474 227.042 13.513 224.838 1.552C224.734 0.989432 224.635 0.473242 224.538 0H219.726C219.97 1.44783 220.395 3.29797 220.992 5.649C223.855 16.914 229.029 27.135 243.095 49.313C257.988 72.794 261.756 80.238 263.831 90.273C267.159 106.367 263.077 117.035 240.161 152.13C229.131 169.022 222.207 183.958 219.814 196H224.763ZM211.531 196C211.651 195.422 211.781 194.789 211.924 194.094L211.924 194.094L212.002 193.715C213.798 184.976 221.609 170.607 234.065 153.13C240.141 144.605 246.439 135.754 248.06 133.461C249.681 131.168 253.12 124.923 255.702 119.582C259.964 110.767 260.435 109.069 260.813 101.153C261.492 86.965 256.993 75.773 242.515 55.63C220.62 25.167 212.585 10.861 211.306 0.0690002L211.298 0H206.298C206.325 0.239989 206.355 0.491799 206.386 0.756012C207.706 11.984 214.817 25.442 232.313 49.822C252.256 77.611 256.607 87.084 255.803 100.965C255.111 112.926 251.284 120.412 231.951 147.63C215.975 170.122 210.905 178.959 207.612 190.062C206.899 192.464 206.426 194.424 206.196 196H211.531ZM198.084 196C200.021 186.661 207.142 173.56 218.131 159.13C223.785 151.705 231.476 141.58 235.222 136.63C248.232 119.439 253.428 105.098 251.252 92.394C249.123 79.965 244.313 72.029 218.357 38.13C205.92 21.8861 200.48 11.846 197.833 0H192.296C192.612 1.68334 193.21 3.89629 194.085 6.77501C197.653 18.508 204.076 28.935 220.485 49.63C242.107 76.899 248.323 90.349 245.778 104.353C243.868 114.86 237.678 125.281 219.478 148.63C202.563 170.331 196.548 180.366 193.571 191.854C193.139 193.523 192.8 194.885 192.56 196H198.084ZM184.481 196C185.68 190.939 188.932 182.953 192.135 177.626C196.194 170.875 199.603 166.417 220.338 140.743C236.545 120.677 242.735 105.559 240.239 92.138C237.903 79.576 232.191 70.198 211.805 45.458C205.539 37.852 198.771 29.356 196.765 26.576C191.486 19.261 185.295 5.91101 184.499 0.126007L184.482 0H178.702C178.873 0.98933 179.126 2.17265 179.454 3.586C182.378 16.195 187.084 23.837 207.5 49.13C224.016 69.591 227.071 73.92 231.157 82.652C236.611 94.307 236.041 105.593 229.374 117.946C225.246 125.595 220.821 131.581 206.706 148.609C188.925 170.059 180.875 183.681 178.756 196H184.481ZM171.336 196C172.854 185.259 179.913 173.786 198.515 151.63C223.502 121.869 230.013 108.513 227.289 92.607C225.09 79.771 219.092 69.888 198.474 45.13C179.04 21.794 173.997 13.661 171.581 1.76001C171.449 1.10849 171.326 0.524212 171.208 0H164.985C165.053 0.406236 165.13 0.844814 165.216 1.31801C167.612 14.503 174.411 25.799 193.993 49.13C230.772 92.951 230.867 103.383 194.881 146.655C173.439 172.438 167.456 182.328 165.139 196H171.336ZM158.027 196C158.036 195.96 158.044 195.92 158.053 195.879C160.575 183.998 166.261 174.449 184.269 151.857C208.193 121.844 213.945 110.489 212.752 95.628C211.796 83.724 206.218 73.282 189.066 51.29C165.303 20.823 161.449 14.622 158.353 1.88C158.184 1.18568 158.029 0.561298 157.882 0H151.331C151.38 0.381368 151.442 0.790154 151.516 1.22801C153.285 11.693 160.301 24.721 172.469 40.13C198.552 73.162 204.375 82.474 205.962 93.696C207.962 107.83 202.662 118.786 180.339 146.666C162.055 169.501 155.564 180.029 152.489 191.833C152.052 193.511 151.712 194.879 151.477 196H158.027ZM144.659 196C144.7 195.8 144.743 195.592 144.788 195.376C147.155 183.919 152.948 174.022 173.908 145.63C190.8 122.749 196.02 111.413 195.979 97.698C195.94 84.652 190.284 73.086 171.882 48.424C153.182 23.361 147.24 13.012 144.872 1.38C144.771 0.881478 144.676 0.422517 144.586 0H137.713C138.479 4.28502 140.41 11.0002 142.292 15.252C146.012 23.66 151.697 32.482 165.16 50.741C183.033 74.981 186.929 81.967 189.09 93.657C191.294 105.582 185.298 119.038 166.377 144.63C152.006 164.068 148.284 169.643 143.954 178.222C142.057 181.979 139.173 190.54 137.792 196H144.659ZM131.403 196C131.501 195.534 131.596 195.05 131.688 194.553C133.447 185.027 139.998 172.443 154.489 150.758C173.341 122.547 178.011 112.202 177.988 98.698C177.964 84.593 173.76 75.168 154.667 46.421C139.992 24.326 134.719 14.44 132.375 4.63C131.982 2.98672 131.594 1.36858 131.264 0H123.876C124.886 5.25759 127.836 14.1935 130.923 20.63C133.561 26.13 142.041 40.195 149.769 51.886C166.297 76.892 170.135 85.069 170.769 96.63C171.502 109.99 168.064 117.93 149.725 145.227C132.216 171.29 126.094 183.329 124.196 195.436L124.108 196H131.403ZM117.797 196C119.887 184.626 124.948 173.222 136.05 154.63C154.174 124.28 159 112.533 159 98.771C159 84.626 155.621 75.791 139.993 49.079C124.287 22.235 119.49 11.78 117.575 0H110.151C110.881 5.75188 114.143 16.5713 117.376 23.568C119.293 27.716 125.612 39.158 131.42 48.995C151.282 82.634 154.383 92.395 150.478 108.962C148.413 117.722 143.976 126.888 132.506 146.09C120.531 166.138 114.608 178.433 111.986 188.686C111.188 191.807 110.638 194.194 110.337 196H117.797ZM104.387 196L104.462 195.38C105.635 185.647 110.324 173.628 122.796 148.393C136.992 119.668 139.414 112.218 139.302 97.63C139.199 84.169 136.47 75.87 123.942 50.915C109.663 22.473 105.683 12.29 104.395 0.908005C104.359 0.587934 104.325 0.285593 104.292 0H96.3741C96.4878 1.1343 96.7088 2.52406 97.017 4.224C99.153 16.001 102.947 25.719 114.578 49.201C129.703 79.737 131.354 84.54 131.402 98.13C131.435 107.386 131.064 109.716 128.268 117.792C126.524 122.831 120.408 136.331 114.678 147.792C103.576 169.994 99.74 179.48 97.437 190.43C96.9479 192.755 96.5724 194.575 96.3356 196H104.387ZM90.9889 196C90.9965 195.718 91 195.422 91 195.11C91 187.458 95.532 173.403 105.519 150.085C119.596 117.218 122.26 101.682 117.458 80.447C115.528 71.914 112.537 63.661 103.573 42.145C95.912 23.759 91 7.918 91 1.60201C91 1.08572 90.978 0.538663 90.9389 0H82.7703C83.2712 5.19361 84.8404 13.8173 86.531 19.67C87.954 24.598 92.069 35.605 95.675 44.13C108.62 74.729 111.172 83.581 111.247 98.13C111.323 113.111 108.926 121.343 94.504 155.63C87.3452 172.649 84.2995 182.918 82.5513 196H90.9889ZM77.2454 196L77.41 194.38C78.582 182.853 80.924 173.381 87.98 151.63C103.584 103.532 103.54 93.295 87.528 44.13C80.781 23.414 78.447 13.792 77.376 2.26801L77.1653 0H69.0452L69.317 3.88C70.079 14.748 72.436 24.49 80.024 48.13C90.066 79.421 90.313 80.613 90.377 98.13C90.44 115.691 89.905 118.342 80.5 147.13C73.179 169.534 70.11 181.986 69.345 192.38L69.0786 196H77.2454ZM64.0033 196L64.004 194.88C64.01 186.137 66.349 172.624 71.492 151.63C78.423 123.335 79.399 116.724 79.391 98.13C79.384 79.707 78.79 75.819 70.995 43.13C66.123 22.702 64.201 11.573 63.742 1.13L63.6923 0H54.994L55.321 5.34201C56.017 16.723 57.781 26.137 63.975 51.531C70.018 76.305 71.294 86.035 70.675 102.63C70.133 117.186 68.001 130.221 62.974 149.724C58.474 167.186 55.965 180.817 55.306 191.38L55.0179 196H64.0033ZM49.9907 196L50.774 186.38C51.435 178.267 53.552 162.209 55.477 150.694C62.335 109.693 62.343 87.752 55.516 46.316C51.952 24.68 50 8.302 50 0.0240021V0H41.0358C41.0037 6.80028 42.4904 22.0547 44.637 35.63C46.028 44.43 47.805 55.68 48.586 60.63C53.12 89.376 52.546 113.586 46.471 149.73C43.0774 169.923 41.0593 187.009 41.0023 196H49.9907ZM36.8822 196L37.324 183.791C37.665 174.353 38.628 160.78 39.463 153.63C43.507 119.022 43.494 80.514 39.425 42.63C38.539 34.38 37.518 20.43 37.157 11.63L36.6794 0H27.4387C26.9875 6.79426 28.5012 30.0427 30.701 49.226C33.189 70.909 33.172 127.372 30.673 148.13C28.6944 164.557 27.18 188.186 27.5302 196H36.8822ZM23.6172 196L23.756 182.797C23.86 172.805 24.402 155.63 24.959 144.63C26.273 118.704 26.271 79.514 24.957 52.258C24.383 40.363 23.82 22.755 23.707 13.13L23.5517 0H13.8176L14.564 26.319C15.718 67.038 15.729 130.809 14.59 168.748C14.2466 180.17 14.0611 190.46 14.0757 196H23.6172Z" fill="url(#paint0_linear_9_46)"/>
<path d="M385.7 10.075L394.3 21.1C394.8 21.75 395.175 22.325 395.175 23.175C395.175 25.05 393.75 26 392.025 26H386.525C385.575 26 384.75 25.825 384 25.2C383.325 24.65 382.825 23.75 382.825 22.875C382.825 22.075 383.275 21.375 384.15 21.375C384.875 21.375 385.325 21.975 385.325 22.65C385.325 23.4 385.725 23.5 386.425 23.5H391.85C392.05 23.5 392.675 23.575 392.675 23.2C392.675 23 392.325 22.625 392.225 22.475L383.65 11.45C383.125 10.775 382.825 10.275 382.825 9.4C382.825 8.4 383.3 7.55 384.15 7C384.85 6.55 385.425 6.55 386.225 6.55H391.525C392.475 6.55 393.275 6.75 394 7.375C394.65 7.95 395.175 8.875 395.175 9.75C395.175 10.55 394.775 11.2 393.875 11.2C393.125 11.2 392.675 10.725 392.675 10.025C392.675 9.175 392.25 9.05 391.475 9.05H386.175C385.9 9.05 385.325 8.975 385.325 9.4C385.325 9.625 385.6 9.925 385.7 10.075ZM413.618 26H409.368C408.118 26 407.143 25.7 406.268 24.725C405.443 23.8 405.318 22.9 405.318 21.75V7.8C405.318 7 405.668 6.55 406.568 6.55C407.468 6.55 407.818 7 407.818 7.8V21.75C407.818 23.15 408.243 23.5 409.368 23.5H413.618C414.743 23.5 415.168 23.15 415.168 21.75V7.8C415.168 7 415.518 6.55 416.418 6.55C417.318 6.55 417.668 7 417.668 7.8V21.75C417.668 22.9 417.543 23.8 416.718 24.725C415.843 25.7 414.868 26 413.618 26ZM430.686 10.075L439.286 21.1C439.786 21.75 440.161 22.325 440.161 23.175C440.161 25.05 438.736 26 437.011 26H431.511C430.561 26 429.736 25.825 428.986 25.2C428.311 24.65 427.811 23.75 427.811 22.875C427.811 22.075 428.261 21.375 429.136 21.375C429.861 21.375 430.311 21.975 430.311 22.65C430.311 23.4 430.711 23.5 431.411 23.5H436.836C437.036 23.5 437.661 23.575 437.661 23.2C437.661 23 437.311 22.625 437.211 22.475L428.636 11.45C428.111 10.775 427.811 10.275 427.811 9.4C427.811 8.4 428.286 7.55 429.136 7C429.836 6.55 430.411 6.55 431.211 6.55H436.511C437.461 6.55 438.261 6.75 438.986 7.375C439.636 7.95 440.161 8.875 440.161 9.75C440.161 10.55 439.761 11.2 438.861 11.2C438.111 11.2 437.661 10.725 437.661 10.025C437.661 9.175 437.236 9.05 436.461 9.05H431.161C430.886 9.05 430.311 8.975 430.311 9.4C430.311 9.625 430.586 9.925 430.686 10.075ZM455.229 9.05H452.804V9.95C452.804 10.75 452.454 11.2 451.554 11.2C450.654 11.2 450.304 10.75 450.304 9.95V6.55H462.654V9.95C462.654 10.75 462.304 11.2 461.404 11.2C460.504 11.2 460.154 10.75 460.154 9.95V9.05H457.729V24.75C457.729 25.55 457.379 26 456.479 26C455.579 26 455.229 25.55 455.229 24.75V9.05ZM472.798 24.75L477.698 7.825C477.898 7.15 478.173 6.55 478.973 6.55C479.798 6.55 480.098 7.175 480.273 7.825L485.098 24.75C485.273 25.35 484.598 26 483.898 26C483.123 26 482.723 25.35 482.548 24.75L481.623 21.75H476.298L475.348 24.75C475.173 25.35 474.773 26 473.998 26C473.298 26 472.623 25.35 472.798 24.75ZM480.923 19.25L478.998 12.475H478.948L476.998 19.25H480.923ZM502.716 9.05V23.5H506.391C507.041 23.5 507.641 23.85 507.641 24.75C507.641 25.65 507.041 26 506.391 26H496.541C495.891 26 495.291 25.65 495.291 24.75C495.291 23.85 495.891 23.5 496.541 23.5H500.216V9.05H496.541C495.891 9.05 495.291 8.7 495.291 7.8C495.291 6.9 495.891 6.55 496.541 6.55H506.391C507.041 6.55 507.641 6.9 507.641 7.8C507.641 8.7 507.041 9.05 506.391 9.05H502.716ZM527.634 21.725L527.659 7.825C527.659 7.025 528.009 6.575 528.909 6.575C529.809 6.575 530.159 7.025 530.159 7.825V26.025H526.859L520.334 11.025V11H520.284V24.75C520.284 25.55 519.934 26 519.034 26C518.134 26 517.784 25.55 517.784 24.75V6.55H521.084L527.609 21.725H527.584H527.634ZM540.277 24.75L545.177 7.825C545.377 7.15 545.652 6.55 546.452 6.55C547.277 6.55 547.577 7.175 547.752 7.825L552.577 24.75C552.752 25.35 552.077 26 551.377 26C550.602 26 550.202 25.35 550.027 24.75L549.102 21.75H543.777L542.827 24.75C542.652 25.35 542.252 26 541.477 26C540.777 26 540.102 25.35 540.277 24.75ZM548.402 19.25L546.477 12.475H546.427L544.477 19.25H548.402ZM562.77 26V6.55H569.77C573.445 6.55 575.12 8.8 575.12 12.325C575.12 13.775 574.795 15.1 573.47 16.275C574.895 17.625 575.12 18.95 575.12 20.8C575.12 24.075 572.945 26 569.77 26H562.77ZM565.27 17.525V23.5H569.77C571.57 23.5 572.62 22.7 572.62 20.8C572.62 18.7 572.045 17.525 569.77 17.525H565.27ZM565.27 9.05V15.025H569.77C571.57 15.025 572.62 14.225 572.62 12.325C572.62 10.225 572.045 9.05 569.77 9.05H565.27ZM587.763 23.5H596.363C597.013 23.5 597.613 23.85 597.613 24.75C597.613 25.65 597.013 26 596.363 26H585.263V7.8C585.263 7 585.613 6.55 586.513 6.55C587.413 6.55 587.763 7 587.763 7.8V23.5ZM610.257 23.5H618.857C619.507 23.5 620.107 23.85 620.107 24.75C620.107 25.65 619.507 26 618.857 26H607.757V6.55H618.857C619.507 6.55 620.107 6.9 620.107 7.8C620.107 8.7 619.507 9.05 618.857 9.05H610.257V15.025H613.932C614.582 15.025 615.182 15.375 615.182 16.275C615.182 17.175 614.582 17.525 613.932 17.525H610.257V23.5ZM391.125 64H386.875C385.625 64 384.65 63.7 383.775 62.725C382.95 61.8 382.825 60.9 382.825 59.75V45.8C382.825 45 383.175 44.55 384.075 44.55C384.975 44.55 385.325 45 385.325 45.8V59.75C385.325 61.15 385.75 61.5 386.875 61.5H391.125C392.25 61.5 392.675 61.15 392.675 59.75V45.8C392.675 45 393.025 44.55 393.925 44.55C394.825 44.55 395.175 45 395.175 45.8V59.75C395.175 60.9 395.05 61.8 394.225 62.725C393.35 63.7 392.375 64 391.125 64ZM407.818 53.45V62.75C407.818 63.55 407.468 64 406.568 64C405.668 64 405.318 63.55 405.318 62.75V44.55H413.718C415.693 44.55 417.668 45.95 417.668 48.175V49.9C417.668 52.25 415.718 53.45 413.718 53.45H411.418L417.043 61.5C417.318 61.875 417.668 62.35 417.668 62.825C417.668 63.525 417.093 64 416.393 64C415.893 64 415.568 63.7 415.293 63.3L408.393 53.45H407.818ZM407.818 47.05V50.95H413.368C414.068 50.95 415.168 50.9 415.168 49.9V48.175C415.168 47.175 414.143 47.05 413.393 47.05H407.818ZM427.811 64V44.55H434.811C438.486 44.55 440.161 46.8 440.161 50.325C440.161 51.775 439.836 53.1 438.511 54.275C439.936 55.625 440.161 56.95 440.161 58.8C440.161 62.075 437.986 64 434.811 64H427.811ZM430.311 55.525V61.5H434.811C436.611 61.5 437.661 60.7 437.661 58.8C437.661 56.7 437.086 55.525 434.811 55.525H430.311ZM430.311 47.05V53.025H434.811C436.611 53.025 437.661 52.225 437.661 50.325C437.661 48.225 437.086 47.05 434.811 47.05H430.311ZM450.304 62.75L455.204 45.825C455.404 45.15 455.679 44.55 456.479 44.55C457.304 44.55 457.604 45.175 457.779 45.825L462.604 62.75C462.779 63.35 462.104 64 461.404 64C460.629 64 460.229 63.35 460.054 62.75L459.129 59.75H453.804L452.854 62.75C452.679 63.35 452.279 64 451.504 64C450.804 64 450.129 63.35 450.304 62.75ZM458.429 57.25L456.504 50.475H456.454L454.504 57.25H458.429ZM482.648 59.725L482.673 45.825C482.673 45.025 483.023 44.575 483.923 44.575C484.823 44.575 485.173 45.025 485.173 45.825V64.025H481.873L475.348 49.025V49H475.298V62.75C475.298 63.55 474.948 64 474.048 64C473.148 64 472.798 63.55 472.798 62.75V44.55H476.098L482.623 59.725H482.598H482.648ZM385.7 86.075L394.3 97.1C394.8 97.75 395.175 98.325 395.175 99.175C395.175 101.05 393.75 102 392.025 102H386.525C385.575 102 384.75 101.825 384 101.2C383.325 100.65 382.825 99.75 382.825 98.875C382.825 98.075 383.275 97.375 384.15 97.375C384.875 97.375 385.325 97.975 385.325 98.65C385.325 99.4 385.725 99.5 386.425 99.5H391.85C392.05 99.5 392.675 99.575 392.675 99.2C392.675 99 392.325 98.625 392.225 98.475L383.65 87.45C383.125 86.775 382.825 86.275 382.825 85.4C382.825 84.4 383.3 83.55 384.15 83C384.85 82.55 385.425 82.55 386.225 82.55H391.525C392.475 82.55 393.275 82.75 394 83.375C394.65 83.95 395.175 84.875 395.175 85.75C395.175 86.55 394.775 87.2 393.875 87.2C393.125 87.2 392.675 86.725 392.675 86.025C392.675 85.175 392.25 85.05 391.475 85.05H386.175C385.9 85.05 385.325 84.975 385.325 85.4C385.325 85.625 385.6 85.925 385.7 86.075ZM412.743 92.75V100.75C412.743 101.55 412.393 102 411.493 102C410.593 102 410.243 101.55 410.243 100.75V92.75L405.318 86.35V83.8C405.318 83 405.668 82.55 406.568 82.55C407.468 82.55 407.818 83 407.818 83.8V85.5L411.493 90.275L415.168 85.5V83.8C415.168 83 415.518 82.55 416.418 82.55C417.318 82.55 417.668 83 417.668 83.8V86.35L412.743 92.75ZM430.686 86.075L439.286 97.1C439.786 97.75 440.161 98.325 440.161 99.175C440.161 101.05 438.736 102 437.011 102H431.511C430.561 102 429.736 101.825 428.986 101.2C428.311 100.65 427.811 99.75 427.811 98.875C427.811 98.075 428.261 97.375 429.136 97.375C429.861 97.375 430.311 97.975 430.311 98.65C430.311 99.4 430.711 99.5 431.411 99.5H436.836C437.036 99.5 437.661 99.575 437.661 99.2C437.661 99 437.311 98.625 437.211 98.475L428.636 87.45C428.111 86.775 427.811 86.275 427.811 85.4C427.811 84.4 428.286 83.55 429.136 83C429.836 82.55 430.411 82.55 431.211 82.55H436.511C437.461 82.55 438.261 82.75 438.986 83.375C439.636 83.95 440.161 84.875 440.161 85.75C440.161 86.55 439.761 87.2 438.861 87.2C438.111 87.2 437.661 86.725 437.661 86.025C437.661 85.175 437.236 85.05 436.461 85.05H431.161C430.886 85.05 430.311 84.975 430.311 85.4C430.311 85.625 430.586 85.925 430.686 86.075ZM455.229 85.05H452.804V85.95C452.804 86.75 452.454 87.2 451.554 87.2C450.654 87.2 450.304 86.75 450.304 85.95V82.55H462.654V85.95C462.654 86.75 462.304 87.2 461.404 87.2C460.504 87.2 460.154 86.75 460.154 85.95V85.05H457.729V100.75C457.729 101.55 457.379 102 456.479 102C455.579 102 455.229 101.55 455.229 100.75V85.05ZM475.298 99.5H483.898C484.548 99.5 485.148 99.85 485.148 100.75C485.148 101.65 484.548 102 483.898 102H472.798V82.55H483.898C484.548 82.55 485.148 82.9 485.148 83.8C485.148 84.7 484.548 85.05 483.898 85.05H475.298V91.025H478.973C479.623 91.025 480.223 91.375 480.223 92.275C480.223 93.175 479.623 93.525 478.973 93.525H475.298V99.5ZM501.466 86.95L504.516 82.55H507.641V100.75C507.641 101.55 507.291 102 506.391 102C505.491 102 505.141 101.55 505.141 100.75V86H505.091L502.716 89.525V89.925C502.716 90.7 502.416 91.425 501.466 91.425C500.566 91.425 500.216 90.7 500.216 89.925V89.525L497.841 86H497.791V100.75C497.791 101.55 497.441 102 496.541 102C495.641 102 495.291 101.55 495.291 100.75V82.55H498.416L501.466 86.95ZM520.659 86.075L529.259 97.1C529.759 97.75 530.134 98.325 530.134 99.175C530.134 101.05 528.709 102 526.984 102H521.484C520.534 102 519.709 101.825 518.959 101.2C518.284 100.65 517.784 99.75 517.784 98.875C517.784 98.075 518.234 97.375 519.109 97.375C519.834 97.375 520.284 97.975 520.284 98.65C520.284 99.4 520.684 99.5 521.384 99.5H526.809C527.009 99.5 527.634 99.575 527.634 99.2C527.634 99 527.284 98.625 527.184 98.475L518.609 87.45C518.084 86.775 517.784 86.275 517.784 85.4C517.784 84.4 518.259 83.55 519.109 83C519.809 82.55 520.384 82.55 521.184 82.55H526.484C527.434 82.55 528.234 82.75 528.959 83.375C529.609 83.95 530.134 84.875 530.134 85.75C530.134 86.55 529.734 87.2 528.834 87.2C528.084 87.2 527.634 86.725 527.634 86.025C527.634 85.175 527.209 85.05 526.434 85.05H521.134C520.859 85.05 520.284 84.975 520.284 85.4C520.284 85.625 520.559 85.925 520.659 86.075ZM385.325 137.5H393.925C394.575 137.5 395.175 137.85 395.175 138.75C395.175 139.65 394.575 140 393.925 140H382.825V121.8C382.825 121 383.175 120.55 384.075 120.55C384.975 120.55 385.325 121 385.325 121.8V137.5ZM405.318 138.75L410.218 121.825C410.418 121.15 410.693 120.55 411.493 120.55C412.318 120.55 412.618 121.175 412.793 121.825L417.618 138.75C417.793 139.35 417.118 140 416.418 140C415.643 140 415.243 139.35 415.068 138.75L414.143 135.75H408.818L407.868 138.75C407.693 139.35 407.293 140 406.518 140C405.818 140 405.143 139.35 405.318 138.75ZM413.443 133.25L411.518 126.475H411.468L409.518 133.25H413.443ZM427.811 140V120.55H434.811C438.486 120.55 440.161 122.8 440.161 126.325C440.161 127.775 439.836 129.1 438.511 130.275C439.936 131.625 440.161 132.95 440.161 134.8C440.161 138.075 437.986 140 434.811 140H427.811ZM430.311 131.525V137.5H434.811C436.611 137.5 437.661 136.7 437.661 134.8C437.661 132.7 437.086 131.525 434.811 131.525H430.311ZM430.311 123.05V129.025H434.811C436.611 129.025 437.661 128.225 437.661 126.325C437.661 124.225 437.086 123.05 434.811 123.05H430.311Z" fill="black"/>
<defs>
<linearGradient id="paint0_linear_9_46" x1="0" y1="98" x2="344" y2="98" gradientUnits="userSpaceOnUse">
<stop stop-color="#E55D87"/>
<stop offset="1" stop-color="#5FC3E4"/>
</linearGradient>
</defs>
</svg>
