<?xml version="1.0" encoding="UTF-8"?>
<svg id="Layer_1" data-name="Layer 1" xmlns="http://www.w3.org/2000/svg" viewBox="0 0 417.67 216.47">
  <defs>
    <style>
      .cls-1 {
        stroke: #d9d9d9;
      }

      .cls-1, .cls-2, .cls-3, .cls-4 {
        stroke-miterlimit: 10;
      }

      .cls-1, .cls-2, .cls-3, .cls-4, .cls-5 {
        fill: none;
      }

      .cls-1, .cls-4 {
        stroke-width: .4px;
      }

      .cls-6 {
        letter-spacing: -.02em;
      }

      .cls-7 {
        letter-spacing: 0em;
      }

      .cls-8 {
        fill: red;
      }

      .cls-8, .cls-9 {
        font-size: 9.96px;
      }

      .cls-8, .cls-9, .cls-10, .cls-11 {
        font-family: HelveticaNeue-Light, 'Helvetica Neue';
        font-weight: 300;
      }

      .cls-2 {
        stroke: red;
      }

      .cls-2, .cls-3 {
        stroke-width: .8px;
      }

      .cls-12 {
        letter-spacing: .28em;
      }

      .cls-13 {
        letter-spacing: -.01em;
      }

      .cls-14 {
        letter-spacing: .28em;
      }

      .cls-15 {
        letter-spacing: 0em;
      }

      .cls-16 {
        letter-spacing: .28em;
      }

      .cls-3, .cls-4, .cls-5 {
        stroke: #000;
      }

      .cls-17 {
        letter-spacing: .28em;
      }

      .cls-18 {
        letter-spacing: -.04em;
      }

      .cls-10 {
        font-size: 10px;
      }

      .cls-11 {
        font-size: 9.96px;
      }

      .cls-5 {
        stroke-linecap: round;
        stroke-linejoin: round;
        stroke-width: .32px;
      }

      .cls-19 {
        letter-spacing: 0em;
      }
    </style>
  </defs>
  <line class="cls-4" x1="38.75" y1="176.92" x2="378.46" y2="176.92"/>
  <path class="cls-5" d="M377.26,175.32c.1.6,1.2,1.49,1.49,1.59-.3.1-1.39,1-1.49,1.59"/>
  <line class="cls-4" x1="38.75" y1="176.92" x2="38.75" y2="7.3"/>
  <path class="cls-5" d="M37.16,8.49c.6-.1,1.49-1.2,1.59-1.49.1.3,1,1.39,1.59,1.49"/>
  <line class="cls-4" x1="38.75" y1="179.75" x2="38.75" y2="176.92"/>
  <line class="cls-1" x1="38.75" y1="176.92" x2="38.75" y2="35.18"/>
  <line class="cls-4" x1="123.79" y1="179.75" x2="123.79" y2="176.92"/>
  <line class="cls-1" x1="123.79" y1="176.92" x2="123.79" y2="35.18"/>
  <line class="cls-4" x1="208.83" y1="179.75" x2="208.83" y2="176.92"/>
  <line class="cls-1" x1="208.83" y1="176.92" x2="208.83" y2="35.18"/>
  <line class="cls-4" x1="293.88" y1="179.75" x2="293.88" y2="176.92"/>
  <line class="cls-1" x1="293.88" y1="176.92" x2="293.88" y2="35.18"/>
  <line class="cls-4" x1="378.92" y1="179.75" x2="378.92" y2="176.92"/>
  <line class="cls-1" x1="378.92" y1="176.92" x2="378.92" y2="35.18"/>
  <path class="cls-3" d="M38.75,35.18c113.39,56.69,226.77,99.21,340.16,120.47"/>
  <path class="cls-2" d="M38.75,155.66c113.39-21.26,226.77-85.04,340.16-120.47"/>
  <text class="cls-9" transform="translate(61.39 24.57)"><tspan x="0" y="0">Majo</tspan><tspan class="cls-16" x="20.85" y="0">r</tspan><tspan x="26.76" y="0">Inﬂuence</tspan></text>
  <text class="cls-9" transform="translate(291.56 24.57)"><tspan x="0" y="0">L</tspan><tspan class="cls-13" x="5.35" y="0">o</tspan><tspan class="cls-14" x="10.74" y="0">w</tspan><tspan class="cls-15" x="20.89" y="0">Inﬂuence</tspan></text>
  <text class="cls-11" transform="translate(55.78 40.75) rotate(23.5)"><tspan x="0" y="0">ABILIT</tspan><tspan class="cls-12" x="28.23" y="0">Y</tspan><tspan class="cls-18" x="37.09" y="0">T</tspan><tspan class="cls-17" x="42.23" y="0">O</tspan><tspan x="52.38" y="0">INFLUENC</tspan><tspan class="cls-17" x="99.06" y="0">E</tspan><tspan class="cls-7" x="107.74" y="0">COST</tspan></text>
  <text class="cls-8" transform="translate(220.9 109.65) rotate(-22)"><tspan x="0" y="0">CONST</tspan><tspan class="cls-6" x="33.22" y="0">R</tspan><tspan x="39.68" y="0">UCTIO</tspan><tspan class="cls-16" x="68.65" y="0">N</tspan><tspan class="cls-19" x="78.43" y="0">EXPENDITURES</tspan></text>
  <text class="cls-10" transform="translate(99.62 193.53)"><tspan x="0" y="0">Schematic</tspan><tspan x="7.97" y="12">Design</tspan></text>
  <text class="cls-9" transform="translate(143.51 24.57)"><tspan x="0" y="0" xml:space="preserve">        Decreasing Inﬂuence</tspan></text>
  <text class="cls-10" transform="translate(13.68 193.68)"><tspan x="0" y="0">Conceptual</tspan><tspan x="9.91" y="12">Design</tspan></text>
  <text class="cls-10" transform="translate(194.32 193.53)"><tspan x="0" y="0">Design</tspan></text>
  <text class="cls-10" transform="translate(180.76 205.49)"><tspan x="0" y="0">Development</tspan></text>
  <text class="cls-10" transform="translate(265.69 193.68)"><tspan x="0" y="0">Construction</tspan></text>
  <text class="cls-10" transform="translate(367.39 193.53)"><tspan x="0" y="0">Post-</tspan></text>
  <text class="cls-10" transform="translate(353.85 205.49)"><tspan x="0" y="0">Occupancy</tspan></text>
</svg>