<?xml version="1.0" encoding="UTF-8"?>
<svg id="Layer_1" data-name="Layer 1" xmlns="http://www.w3.org/2000/svg" viewBox="0 0 417.67 216.47">
  <defs>
    <style>
      .cls-1 {
        letter-spacing: -.02em;
      }

      .cls-2 {
        letter-spacing: 0em;
      }

      .cls-3 {
        letter-spacing: -.04em;
      }

      .cls-4 {
        font-size: 9.96px;
      }

      .cls-4, .cls-5, .cls-6 {
        font-family: HelveticaNeue-Light, 'Helvetica Neue';
        font-weight: 300;
      }

      .cls-4, .cls-6, .cls-7 {
        fill: #dcdcdc;
      }

      .cls-8 {
        letter-spacing: 0em;
      }

      .cls-9 {
        stroke: #dcdcdc;
      }

      .cls-9, .cls-10 {
        fill: #fff;
      }

      .cls-9, .cls-10, .cls-11, .cls-12 {
        stroke-width: .4px;
      }

      .cls-9, .cls-10, .cls-11, .cls-12, .cls-13, .cls-14 {
        stroke-miterlimit: 10;
      }

      .cls-10 {
        stroke: #ddd;
      }

      .cls-15 {
        stroke: #d3d3d3;
      }

      .cls-15, .cls-16 {
        stroke-linecap: round;
        stroke-linejoin: round;
        stroke-width: .32px;
      }

      .cls-15, .cls-16, .cls-11, .cls-12, .cls-13, .cls-14 {
        fill: none;
      }

      .cls-16, .cls-11, .cls-13 {
        stroke: #dadada;
      }

      .cls-5 {
        fill: red;
      }

      .cls-5, .cls-6 {
        font-size: 9.96px;
      }

      .cls-17 {
        letter-spacing: -.05em;
      }

      .cls-12 {
        stroke: #d9d9d9;
      }

      .cls-18 {
        letter-spacing: .01em;
      }

      .cls-19 {
        letter-spacing: 0em;
      }

      .cls-20 {
        letter-spacing: -.01em;
      }

      .cls-13, .cls-14 {
        stroke-width: .8px;
      }

      .cls-14 {
        stroke: red;
      }

      .cls-7 {
        stroke-width: 0px;
      }

      .cls-21 {
        letter-spacing: .28em;
      }

      .cls-22 {
        letter-spacing: .28em;
      }

      .cls-23 {
        letter-spacing: .28em;
      }

      .cls-24 {
        letter-spacing: .28em;
      }
    </style>
  </defs>
  <line class="cls-10" x1="38.75" y1="176.92" x2="378.46" y2="176.92"/>
  <path class="cls-16" d="M377.26,175.32c.1.6,1.2,1.49,1.49,1.59-.3.1-1.39,1-1.49,1.59"/>
  <line class="cls-9" x1="38.75" y1="176.92" x2="38.75" y2="7.3"/>
  <path class="cls-15" d="M37.16,8.49c.6-.1,1.49-1.2,1.59-1.49.1.3,1,1.39,1.59,1.49"/>
  <line class="cls-11" x1="38.75" y1="179.75" x2="38.75" y2="176.92"/>
  <text class="cls-6" transform="translate(13.92 194.12)"><tspan x="0" y="0">Conceptual</tspan><tspan x="9.88" y="11.96">Design</tspan></text>
  <line class="cls-12" x1="38.75" y1="176.92" x2="38.75" y2="35.18"/>
  <line class="cls-11" x1="123.79" y1="179.75" x2="123.79" y2="176.92"/>
  <g>
    <path class="cls-7" d="M102.64,192.69c.12.25.28.44.49.59.21.15.46.25.74.31.29.06.59.09.92.09.19,0,.39-.03.61-.08.22-.05.42-.14.61-.25.19-.12.35-.27.47-.45.13-.18.19-.4.19-.66,0-.2-.04-.37-.13-.52-.09-.15-.21-.27-.35-.37s-.3-.18-.47-.24c-.17-.06-.34-.11-.51-.15l-1.58-.39c-.21-.05-.41-.12-.6-.2-.2-.08-.37-.19-.51-.32-.15-.13-.26-.3-.35-.49-.09-.19-.13-.43-.13-.71,0-.17.03-.38.1-.61s.19-.45.37-.66.43-.38.75-.52c.32-.14.73-.21,1.23-.21.35,0,.69.05,1.01.14.32.09.6.23.84.42.24.19.43.42.57.69.14.28.21.6.21.96h-.68c-.01-.27-.08-.51-.18-.71-.11-.2-.25-.37-.43-.51-.18-.14-.38-.24-.61-.31-.23-.07-.47-.1-.72-.1-.23,0-.46.02-.67.07s-.41.13-.57.24c-.16.11-.29.25-.39.43-.1.18-.15.4-.15.67,0,.17.03.31.08.43s.13.23.23.31c.1.09.21.16.34.21.13.05.27.1.41.13l1.73.43c.25.07.49.15.71.24.22.1.42.22.59.36.17.14.3.32.4.52.1.21.14.46.14.75,0,.08,0,.19-.03.32s-.06.27-.12.42c-.06.15-.15.3-.27.45-.12.15-.28.29-.48.41-.2.12-.45.22-.75.3-.3.08-.66.11-1.08.11s-.81-.05-1.17-.14c-.36-.1-.66-.24-.92-.44-.25-.2-.45-.46-.58-.77-.14-.31-.19-.69-.17-1.12h.68c0,.37.05.67.17.92Z"/>
    <path class="cls-7" d="M111.46,189.69c-.23-.22-.56-.33-.98-.33-.3,0-.56.06-.79.19-.23.13-.41.29-.56.5-.15.21-.26.44-.34.7-.08.26-.12.53-.12.8s.04.54.12.8c.08.26.19.5.34.7.15.21.34.37.56.5.23.13.49.19.79.19.19,0,.38-.04.55-.11s.33-.17.46-.3.24-.28.33-.46c.09-.18.14-.38.16-.59h.63c-.09.62-.32,1.11-.69,1.46s-.85.52-1.43.52c-.39,0-.74-.07-1.04-.21-.3-.14-.56-.34-.76-.58-.21-.25-.36-.53-.47-.86-.11-.33-.16-.68-.16-1.05s.05-.72.16-1.05c.11-.33.26-.62.47-.86.21-.25.46-.44.76-.59.3-.15.65-.22,1.04-.22.55,0,1.02.15,1.4.44s.61.73.68,1.33h-.63c-.09-.39-.25-.69-.48-.91Z"/>
    <path class="cls-7" d="M114.1,187.01v2.86h.02c.12-.31.33-.56.64-.75.31-.19.64-.28,1.01-.28s.66.05.9.14c.24.09.44.22.58.39.15.17.25.38.31.62.06.25.09.52.09.83v3.31h-.63v-3.21c0-.22-.02-.42-.06-.61-.04-.19-.11-.35-.21-.49-.1-.14-.23-.25-.4-.33-.17-.08-.38-.12-.63-.12s-.48.04-.67.13c-.2.09-.36.21-.5.37-.14.16-.24.34-.32.56s-.12.45-.12.7v3h-.63v-7.11h.63Z"/>
    <path class="cls-7" d="M119.29,192.42c.06.24.17.46.3.65.14.19.32.35.53.48.21.13.47.19.77.19.46,0,.82-.12,1.08-.36.26-.24.44-.56.54-.96h.63c-.13.58-.38,1.04-.73,1.35-.36.32-.86.48-1.51.48-.41,0-.76-.07-1.05-.21-.29-.14-.54-.34-.72-.59-.19-.25-.32-.54-.41-.87-.09-.33-.13-.68-.13-1.04,0-.34.04-.67.13-1,.09-.33.23-.62.41-.87.19-.26.43-.46.72-.62.3-.16.65-.23,1.05-.23s.76.08,1.06.25.53.38.71.65c.18.27.31.58.39.93.08.35.11.7.1,1.06h-3.96c0,.23.03.46.09.7ZM122.4,190.5c-.08-.22-.18-.41-.32-.58-.14-.17-.31-.31-.51-.41-.2-.1-.42-.15-.68-.15s-.49.05-.69.15c-.2.1-.37.24-.51.41-.14.17-.25.37-.33.59s-.14.45-.17.68h3.33c0-.24-.05-.47-.12-.69Z"/>
    <path class="cls-7" d="M124.58,188.98v.87h.03c.17-.32.38-.57.65-.75.27-.18.61-.27,1.03-.27.34,0,.65.08.92.25.28.17.46.42.55.76.15-.34.38-.59.68-.76s.62-.25.96-.25c1.14,0,1.7.6,1.7,1.8v3.49h-.63v-3.46c0-.42-.09-.75-.27-.97-.18-.22-.5-.33-.95-.33-.27,0-.5.05-.68.15-.18.1-.32.24-.43.41-.11.17-.18.37-.22.59s-.06.45-.06.69v2.91h-.63v-3.49c0-.17-.02-.34-.05-.49-.04-.16-.1-.29-.18-.41s-.19-.21-.33-.27c-.14-.07-.31-.1-.51-.1-.27,0-.5.05-.69.14-.2.1-.36.23-.48.4-.12.17-.21.37-.27.6-.06.23-.09.48-.09.75v2.87h-.63v-5.14h.58Z"/>
    <path class="cls-7" d="M132.43,189.78c.11-.22.25-.4.43-.54s.4-.24.64-.31c.25-.07.52-.1.82-.1.23,0,.45.02.68.06.23.04.43.12.61.24.18.12.33.29.44.5s.17.5.17.84v2.73c0,.25.12.38.37.38.07,0,.14-.01.2-.04v.53c-.07.01-.14.02-.19.03s-.13,0-.21,0c-.16,0-.29-.02-.38-.06s-.17-.1-.22-.18c-.05-.08-.09-.17-.11-.28s-.02-.23-.02-.36h-.02c-.11.17-.23.31-.34.44-.12.13-.25.24-.39.32-.14.09-.31.15-.49.2-.18.05-.4.07-.65.07s-.46-.03-.67-.08-.39-.15-.55-.27-.28-.28-.37-.47c-.09-.19-.13-.41-.13-.67,0-.36.08-.64.24-.84.16-.2.37-.36.63-.46.26-.11.56-.18.89-.22.33-.04.66-.08,1-.12.13-.01.25-.03.35-.05s.18-.05.25-.1.12-.12.15-.2c.04-.09.05-.2.05-.34,0-.21-.04-.39-.1-.52-.07-.14-.17-.24-.29-.32-.12-.08-.27-.13-.43-.17-.16-.03-.34-.04-.52-.04-.4,0-.72.09-.98.28-.25.19-.39.49-.4.91h-.63c.02-.3.08-.56.19-.78ZM135.57,191.31c-.04.07-.12.13-.23.16-.11.03-.21.06-.3.07-.27.05-.54.09-.82.12-.28.04-.54.09-.77.17-.23.07-.42.18-.57.31s-.22.33-.22.58c0,.16.03.3.09.42.06.12.15.23.25.32.11.09.23.16.37.2s.28.07.43.07c.24,0,.47-.04.69-.11.22-.07.41-.18.57-.32.16-.14.29-.31.39-.51.1-.2.14-.42.14-.68v-.82h-.02Z"/>
    <path class="cls-7" d="M139.51,188.98v.53h-1.05v3.47c0,.21.03.37.08.48.06.12.2.18.42.19.18,0,.36-.01.54-.03v.53c-.09,0-.19,0-.28,0-.09,0-.19,0-.28,0-.42,0-.71-.08-.88-.24s-.25-.46-.24-.9v-3.52h-.9v-.53h.9v-1.54h.63v1.54h1.05Z"/>
    <path class="cls-7" d="M141.05,187.01v1.01h-.63v-1.01h.63ZM141.05,188.98v5.14h-.63v-5.14h.63Z"/>
    <path class="cls-7" d="M145.41,189.69c-.23-.22-.56-.33-.98-.33-.3,0-.56.06-.79.19-.23.13-.41.29-.56.5-.15.21-.26.44-.34.7-.08.26-.12.53-.12.8s.04.54.12.8c.08.26.19.5.34.7.15.21.34.37.56.5.23.13.49.19.79.19.19,0,.38-.04.55-.11s.33-.17.46-.3.24-.28.33-.46c.09-.18.14-.38.16-.59h.63c-.09.62-.32,1.11-.69,1.46s-.85.52-1.43.52c-.39,0-.74-.07-1.04-.21-.3-.14-.56-.34-.76-.58-.21-.25-.36-.53-.47-.86-.11-.33-.16-.68-.16-1.05s.05-.72.16-1.05c.11-.33.26-.62.47-.86.21-.25.46-.44.76-.59.3-.15.65-.22,1.04-.22.55,0,1.02.15,1.4.44s.61.73.68,1.33h-.63c-.09-.39-.25-.69-.48-.91Z"/>
    <path class="cls-7" d="M112.55,198.96c1.08.03,1.9.33,2.45.91.55.58.82,1.46.82,2.65s-.27,2.06-.82,2.65c-.55.58-1.36.88-2.45.91h-2.46v-7.11h2.46ZM112.21,205.5c.51,0,.95-.05,1.32-.16.37-.11.67-.28.91-.52.24-.24.42-.55.53-.93.11-.38.17-.83.17-1.37s-.06-.99-.17-1.37c-.11-.38-.29-.69-.53-.93-.24-.24-.54-.41-.91-.52-.37-.11-.81-.16-1.32-.16h-1.45v5.96h1.45Z"/>
    <path class="cls-7" d="M117.26,204.38c.06.24.16.46.3.65s.32.35.53.48c.21.13.47.19.77.19.46,0,.82-.12,1.08-.36s.44-.56.54-.96h.63c-.13.58-.38,1.04-.73,1.35-.36.32-.86.48-1.51.48-.41,0-.76-.07-1.05-.21-.3-.14-.54-.34-.72-.59-.19-.25-.32-.54-.41-.87s-.13-.68-.13-1.04c0-.34.04-.67.13-1s.23-.62.41-.87c.19-.26.43-.46.72-.62.29-.16.65-.23,1.05-.23s.76.08,1.06.25c.29.17.53.38.71.65.18.27.31.58.39.93.08.35.11.7.1,1.06h-3.96c0,.23.03.46.09.7ZM120.37,202.46c-.08-.22-.18-.41-.32-.58s-.31-.31-.51-.41c-.2-.1-.43-.15-.68-.15s-.49.05-.69.15c-.2.1-.37.24-.51.41s-.25.37-.33.59-.14.45-.16.68h3.33c0-.24-.05-.47-.12-.69Z"/>
    <path class="cls-7" d="M124.93,201.93c-.07-.14-.17-.26-.29-.35s-.26-.16-.42-.2-.33-.06-.51-.06c-.14,0-.28.01-.42.04-.14.03-.27.08-.39.15-.12.07-.22.16-.29.27-.07.11-.11.25-.11.42,0,.14.04.26.1.35.07.1.16.18.26.24s.22.12.35.16.24.08.35.1l.84.19c.18.03.36.07.53.14.18.07.33.16.47.27.14.11.25.25.33.42.09.17.13.36.13.59,0,.28-.06.52-.19.71-.13.2-.29.36-.48.48-.2.12-.42.21-.66.26-.25.05-.49.08-.73.08-.6,0-1.09-.14-1.47-.43-.38-.29-.59-.74-.64-1.38h.63c.03.43.18.75.46.96.28.22.63.32,1.05.32.15,0,.31-.02.47-.05.16-.03.31-.09.45-.17.14-.08.25-.18.34-.3.09-.12.13-.27.13-.45,0-.15-.03-.28-.09-.38-.06-.1-.15-.19-.25-.26-.11-.07-.23-.13-.36-.17-.14-.05-.27-.09-.41-.12l-.81-.18c-.21-.05-.4-.11-.57-.18-.17-.07-.32-.16-.45-.26-.13-.1-.23-.23-.3-.38s-.11-.33-.11-.55c0-.26.06-.48.17-.67.12-.19.27-.34.45-.45.19-.11.39-.2.62-.25.23-.05.46-.08.68-.08.26,0,.5.03.72.1s.42.17.59.31c.17.14.3.31.4.52s.16.45.17.73h-.63c0-.19-.05-.36-.12-.5Z"/>
    <path class="cls-7" d="M127.4,198.96v1.01h-.63v-1.01h.63ZM127.4,200.93v5.14h-.63v-5.14h.63Z"/>
    <path class="cls-7" d="M132.82,206.68c-.08.31-.21.56-.39.78-.18.21-.41.38-.7.49-.29.11-.64.17-1.06.17-.26,0-.51-.03-.76-.09-.25-.06-.47-.15-.66-.28-.2-.13-.36-.29-.49-.48-.13-.2-.2-.43-.22-.7h.63c.03.19.1.35.19.48.1.13.21.23.35.31.14.08.29.14.45.17.17.04.33.05.51.05.58,0,1.01-.17,1.27-.5.26-.33.39-.81.39-1.43v-.7h-.02c-.15.32-.36.58-.64.77s-.61.29-.99.29c-.41,0-.76-.07-1.06-.2-.29-.14-.53-.32-.72-.56s-.33-.52-.41-.84c-.09-.32-.13-.67-.13-1.03s.05-.69.15-1c.1-.32.25-.59.45-.83.2-.24.44-.42.73-.56.29-.14.62-.2.99-.2.19,0,.37.03.54.08.17.05.32.13.46.22.14.1.26.21.37.33s.19.26.25.4h.02v-.89h.63v4.72c0,.38-.04.72-.12,1.03ZM131.38,205.31c.21-.12.38-.27.52-.46s.24-.41.31-.65c.07-.25.11-.5.11-.76s-.03-.5-.09-.76c-.06-.25-.16-.48-.29-.69-.13-.21-.3-.37-.51-.5-.21-.13-.46-.19-.76-.19s-.55.06-.77.18c-.21.12-.39.28-.53.48s-.24.43-.3.68c-.06.26-.09.52-.09.78s.03.51.1.76c.07.25.17.46.31.65s.32.34.53.46c.21.12.46.17.76.17.27,0,.51-.06.72-.17Z"/>
    <path class="cls-7" d="M134.76,200.93v.89h.02c.12-.31.33-.56.64-.75.31-.19.64-.28,1.01-.28s.66.05.9.14c.24.09.44.22.58.39.15.17.25.38.31.62.06.25.09.52.09.83v3.31h-.63v-3.21c0-.22-.02-.42-.06-.61-.04-.19-.11-.35-.21-.49-.1-.14-.23-.25-.4-.33-.17-.08-.38-.12-.63-.12s-.48.04-.67.13c-.2.09-.36.21-.5.37-.14.16-.24.34-.32.56s-.12.45-.12.7v3h-.63v-5.14h.63Z"/>
  </g>
  <line class="cls-12" x1="123.79" y1="176.92" x2="123.79" y2="35.18"/>
  <line class="cls-11" x1="208.83" y1="179.75" x2="208.83" y2="176.92"/>
  <text class="cls-6" transform="translate(194.47 193.97)"><tspan x="0" y="0">Design</tspan></text>
  <text class="cls-6" transform="translate(180.9 205.93)"><tspan x="0" y="0">Development</tspan></text>
  <line class="cls-12" x1="208.83" y1="176.92" x2="208.83" y2="35.18"/>
  <line class="cls-11" x1="293.88" y1="179.75" x2="293.88" y2="176.92"/>
  <text class="cls-6" transform="translate(265.84 194.12)"><tspan x="0" y="0">Const</tspan><tspan class="cls-18" x="25.64" y="0">r</tspan><tspan x="28.93" y="0">uction</tspan></text>
  <line class="cls-12" x1="293.88" y1="176.92" x2="293.88" y2="35.18"/>
  <line class="cls-11" x1="378.92" y1="179.75" x2="378.92" y2="176.92"/>
  <text class="cls-6" transform="translate(367.53 193.97)"><tspan class="cls-17" x="0" y="0">P</tspan><tspan x="5.79" y="0">ost-</tspan></text>
  <text class="cls-6" transform="translate(354 205.93)"><tspan x="0" y="0">Occupancy</tspan></text>
  <line class="cls-12" x1="378.92" y1="176.92" x2="378.92" y2="35.18"/>
  <path class="cls-13" d="M38.75,35.18c113.39,56.69,226.77,99.21,340.16,120.47"/>
  <path class="cls-14" d="M38.75,155.66c113.39-21.26,226.77-85.04,340.16-120.47"/>
  <text class="cls-6" transform="translate(61.4 24.57)"><tspan x="0" y="0">Majo</tspan><tspan class="cls-21" x="20.73" y="0">r</tspan><tspan x="26.64" y="0">Inﬂuence</tspan></text>
  <text class="cls-6" transform="translate(143.05 24.57)"><tspan x="0" y="0" xml:space="preserve">        Decreasin</tspan><tspan class="cls-21" x="64.79" y="0">g</tspan><tspan x="73.09" y="0">Inﬂuence</tspan></text>
  <text class="cls-6" transform="translate(291.56 24.57)"><tspan x="0" y="0">L</tspan><tspan class="cls-20" x="5.35" y="0">o</tspan><tspan class="cls-24" x="10.74" y="0">w</tspan><tspan class="cls-19" x="20.89" y="0">Inﬂuence</tspan></text>
  <text class="cls-4" transform="translate(55.78 40.75) rotate(23.5)"><tspan x="0" y="0">ABILIT</tspan><tspan class="cls-23" x="28.23" y="0">Y</tspan><tspan class="cls-3" x="37.09" y="0">T</tspan><tspan class="cls-22" x="42.23" y="0">O</tspan><tspan x="52.38" y="0">INFLUENC</tspan><tspan class="cls-22" x="99.06" y="0">E</tspan><tspan class="cls-8" x="107.74" y="0">COST</tspan></text>
  <text class="cls-5" transform="translate(220.9 109.65) rotate(-22)"><tspan x="0" y="0">CONST</tspan><tspan class="cls-1" x="33.22" y="0">R</tspan><tspan x="39.68" y="0">UCTIO</tspan><tspan class="cls-21" x="68.65" y="0">N</tspan><tspan class="cls-2" x="78.43" y="0">EXPENDITURES</tspan></text>
</svg>