<svg width="364" height="364" viewBox="0 0 364 364" fill="none" xmlns="http://www.w3.org/2000/svg">
<path fill-rule="evenodd" clip-rule="evenodd" d="M276.504 337.572C328.966 305.635 364 247.909 364 182C364 115.204 328.016 56.8118 274.375 25.1521C309.77 86.6432 322.595 131.264 322.739 179.226C322.893 230.749 310.643 276.664 276.504 337.572ZM212.722 2.58208C258.046 70.2308 272.364 105.609 281.501 155.036C291.513 209.208 273.257 268.658 214.37 361.13C203.865 363.016 193.048 364 182 364C174.21 364 166.535 363.511 159.003 362.561C202.341 286.045 215.137 239.966 215.044 185.212C214.944 126.571 202.775 81.443 157.06 1.69471C165.213 0.577318 173.539 0 182 0C192.471 0 202.735 0.884227 212.722 2.58208ZM114.516 12.9213C97.9698 19.5314 82.6205 28.5 68.8842 39.4117C94.2519 96.3158 101.381 135.381 101.381 185.649C101.381 229.354 93.2498 269.664 69.415 325.008C83.8319 336.374 100.009 345.606 117.47 352.229C165.061 271.773 175.013 230.836 171.831 172.833C169.138 123.735 156.792 84.8332 114.516 12.9213ZM36.492 291.34C42.5556 275.48 46.9913 260.975 50.3677 246.652C64.2711 187.667 63.338 143.095 35.2815 74.2869C13.1029 104.446 0 141.693 0 182C0 223.035 13.5804 260.898 36.492 291.34Z" fill="white"/>
</svg>
