<svg width="396" height="226" viewBox="0 0 396 226" fill="none" xmlns="http://www.w3.org/2000/svg">
<path fill-rule="evenodd" clip-rule="evenodd" d="M0 112.964V0H11.258L11.7292 55.1177C12.0158 88.5152 12.0135 141.873 11.7257 173.687L11.2565 225.628H0V112.964ZM395.299 225.628C395.763 211.82 396 173.904 396 112.964C396 60.2702 395.887 15.318 395.733 0H394.178C393.334 30.2044 393.585 192.504 394.506 225.628H395.299ZM380.417 225.628C381.585 201.395 382.307 108.314 381.544 54.2209C381.207 30.3097 380.703 9.55771 380.265 0H378.693C378.264 7.38041 378.402 22.2952 379.088 46.1962C380.071 80.449 379.331 202.78 378.106 208.51C377.586 210.943 377.987 219.647 378.631 225.628H380.417ZM364.808 225.628C364.88 224.135 364.919 222.407 364.919 220.498C364.919 214.429 366.009 194.873 367.341 177.042C369.427 149.11 369.671 138.643 369.105 101.452C368.744 77.7092 367.928 53.6212 367.291 47.9229C366.656 42.2247 365.78 27.8501 365.345 15.9781C365.114 9.66194 364.781 3.95647 364.441 0H362.733C362.353 9.70886 363.063 30.2684 364.593 47.5143C367.327 78.3481 367.319 148.418 364.578 179.564C363.009 197.392 362.346 216.303 362.757 225.628H364.808ZM349.728 225.628C349.927 223.28 350.097 220.065 350.282 215.705C350.65 207 352.643 188.48 354.709 174.551C358.326 150.171 358.466 147.891 358.466 113.539C358.466 79.1689 358.327 76.9195 354.703 52.5276C352.635 38.5985 350.643 19.8207 350.278 10.7979C350.093 6.21195 349.873 2.63082 349.606 0H346.524C346.427 8.70265 348.308 29.8397 351.138 50.3219C358.518 103.76 358.258 124.484 349.4 188.94C348.487 195.588 347.382 207.891 346.944 216.28C346.731 220.38 346.596 223.405 346.557 225.628H349.728ZM334.956 225.628C334.979 224.572 334.988 223.335 334.988 221.888C334.988 211.417 337.316 196.484 342.969 170.682C348.258 146.549 349.911 132.939 349.911 113.539C349.911 93.4997 348.306 80.8784 342.054 51.7333C337.311 29.6275 335.101 14.9087 334.671 2.54292C334.639 1.62341 334.589 0.773912 334.523 0H331.596C331.557 1.21391 331.54 2.66184 331.541 4.37098C331.548 15.4014 334.113 32.3834 339.439 56.6418C345.495 84.2352 345.927 88.0858 345.88 114.115L345.877 115.472C345.861 125.079 345.851 130.962 345.372 136.807C344.616 146.039 342.692 155.177 337.726 178.749L337.277 180.882C333.37 199.431 331.22 216.861 331.451 225.628H334.956ZM319.237 225.628C319.303 225.057 319.367 224.437 319.432 223.763C320.795 209.502 323.482 197.251 331.033 170.883C340.915 136.372 342.321 127.999 341.535 108.359C340.862 91.5405 339.364 84.2605 329.812 51.3764C323.587 29.9521 320.539 15.8055 319.452 3.31535C319.342 2.05085 319.234 0.951906 319.122 0H315.49C315.539 1.21734 315.626 2.68941 315.743 4.46652C316.57 16.9808 319.522 30.3573 327.492 57.7078C336.411 88.3149 337.821 95.9771 337.768 113.539C337.717 130.808 336.327 138.407 327.92 167.366C320.085 194.353 316.696 209.501 315.816 221.461C315.695 223.095 315.603 224.471 315.542 225.628H319.237ZM304.005 225.628C304.772 215.735 309.998 197.456 318.804 173.975C324.384 159.096 329.816 143.419 330.875 139.136C337.197 113.577 334.943 94.2987 321.644 60.154C310.357 31.1741 304.505 11.2854 303.951 0H299.77C299.878 1.47676 300.098 3.31923 300.415 5.60848C302.178 18.3185 305.263 28.6237 315.152 54.8299C319.93 67.4927 325.02 82.3174 326.464 87.775C333.441 114.154 330.931 131.629 313.903 175.233C306.689 193.704 301.928 209.755 300.506 220.392L300.343 221.612C300.132 223.187 299.954 224.513 299.814 225.628H304.005ZM289.158 225.628C289.201 225.225 289.243 224.796 289.286 224.339C290.304 213.514 295.949 197.751 307.52 173.431C313.251 161.384 319.813 146.088 322.101 139.44C325.978 128.176 326.261 126.413 326.261 113.539C326.261 100.686 325.974 98.8837 322.12 87.638C319.84 80.9901 315.283 69.8526 311.989 62.888C295.86 28.7768 290.845 15.3519 289.202 1.89137C289.117 1.19935 289.034 0.570778 288.948 0H284.482C284.532 0.671587 284.593 1.42093 284.663 2.25629C285.605 13.4939 291.546 30.3919 303.348 55.4055C315.624 81.4217 318.194 88.0904 320.684 100.381C324.378 118.609 321.237 132.781 306.541 164.19C294.124 190.728 289.077 203.239 286.566 213.69C285.34 218.791 284.623 222.75 284.414 225.628H289.158ZM273.818 225.628C276.296 211.438 281.534 199.11 295.291 174.512C327.154 117.534 326.979 108.236 292.9 47.8389C280.947 26.6559 276.382 15.3708 273.667 0H268.564C268.597 0.2892 268.632 0.593238 268.67 0.912871C270.247 14.3274 276.347 28.4625 295.166 62.3124C319.951 106.894 320.007 119.612 295.613 163.549C290.496 172.765 284.836 182.965 283.035 186.214C277.617 195.991 272.083 209.829 270.095 218.568C269.416 221.551 268.932 223.849 268.647 225.628H273.818ZM258.739 225.628C258.946 224.756 259.17 223.756 259.42 222.612C262.131 210.224 268.087 198.315 284.269 172.931C300.599 147.314 306.693 135.176 309.177 123.324C313.013 105.019 307.803 89.9461 286.096 56.5566C267.644 28.1736 261.362 15.5557 258.825 1.78661C258.706 1.139 258.591 0.544778 258.48 0H252.94C253.221 1.66669 253.71 3.7965 254.398 6.50292C257.694 19.4708 263.65 31.2368 279.842 56.7673C296.986 83.7977 301.324 92.367 303.712 103.919C307.543 122.446 302.844 134.726 276.464 175.126C263.767 194.571 255.796 211.766 253.041 225.628H258.739ZM243.507 225.628C243.645 224.963 243.795 224.233 243.959 223.434L244.049 222.997C246.116 212.937 255.108 196.396 269.447 176.278C276.441 166.464 283.691 156.275 285.557 153.635C287.423 150.996 291.382 143.807 294.355 137.658C299.261 127.511 299.803 125.556 300.238 116.444C301.02 100.111 295.841 87.2271 279.174 64.0392C253.97 28.9713 244.72 12.5028 243.248 0.0794301L243.238 0H237.482C237.514 0.276267 237.548 0.566141 237.584 0.870293C239.103 13.7955 247.289 29.2879 267.43 57.3532C290.388 89.3429 295.396 100.248 294.471 116.227C293.674 129.996 289.269 138.614 267.013 169.946C248.622 195.838 242.786 206.011 238.995 218.792C238.174 221.558 237.63 223.813 237.366 225.628H243.507ZM228.026 225.628C230.257 214.877 238.454 199.796 251.104 183.185C257.613 174.637 266.467 162.982 270.779 157.283C285.755 137.494 291.737 120.985 289.232 106.361C286.781 92.0527 281.244 82.9171 251.364 43.8938C237.047 25.1944 230.785 13.6366 227.738 0H221.365C221.728 1.93779 222.416 4.48527 223.423 7.79914C227.531 21.3057 234.925 33.3089 253.814 57.1322C278.705 88.5233 285.86 104.006 282.93 120.127C280.732 132.223 273.606 144.219 252.655 171.097C233.183 196.079 226.259 207.631 222.832 220.855C222.334 222.776 221.944 224.344 221.667 225.628H228.026ZM212.368 225.628C213.748 219.802 217.491 210.609 221.179 204.476C225.851 196.705 229.776 191.573 253.645 162.018C272.302 138.919 279.427 121.516 276.554 106.066C273.865 91.6049 267.29 80.8093 243.822 52.3296C236.609 43.5738 228.818 33.7935 226.509 30.5933C220.432 22.1726 213.305 6.80453 212.388 0.145054L212.368 0H205.715C205.911 1.13888 206.203 2.50107 206.581 4.12807C209.947 18.6431 215.364 27.4403 238.866 56.5566C257.879 80.1106 261.396 85.094 266.099 95.1459C272.378 108.563 271.722 121.555 264.047 135.775C259.295 144.58 254.201 151.471 237.952 171.073C217.484 195.766 208.216 211.447 205.777 225.628H212.368ZM197.236 225.628C198.983 213.264 207.109 200.056 228.523 174.551C257.287 140.291 264.782 124.916 261.647 106.606C259.115 91.8294 252.211 80.4525 228.476 51.952C206.104 25.0884 200.299 15.726 197.518 2.02606C197.365 1.27605 197.224 0.603453 197.088 0H189.925C190.003 0.467643 190.091 0.972518 190.191 1.51724C192.949 16.6953 200.775 29.6989 223.318 56.5566C265.656 107.002 265.766 119.011 224.34 168.824C199.657 198.504 192.769 209.889 190.102 225.628H197.236ZM181.915 225.628C181.925 225.582 181.935 225.535 181.945 225.489C184.848 211.812 191.393 200.819 212.124 174.812C239.664 140.262 246.286 127.191 244.912 110.083C243.812 96.3799 237.39 84.3595 217.646 59.0431C190.291 23.9707 185.854 16.8323 182.29 2.16419C182.096 1.36492 181.917 0.646145 181.748 0H174.207C174.263 0.439016 174.334 0.909595 174.42 1.41364C176.456 13.4606 184.533 28.4579 198.54 46.1962C228.566 84.2214 235.269 94.941 237.096 107.859C239.398 124.13 233.297 136.742 207.6 168.836C186.552 195.123 179.079 207.243 175.54 220.831C175.037 222.762 174.645 224.338 174.375 225.628H181.915ZM166.526 225.628C166.574 225.398 166.623 225.158 166.675 224.91C169.399 211.721 176.068 200.328 200.196 167.644C219.642 141.304 225.651 128.254 225.604 112.466C225.559 97.4482 219.048 84.1339 197.864 55.7439C176.337 26.8923 169.497 14.9789 166.771 1.58861C166.654 1.01472 166.545 0.486386 166.442 0H158.53C159.411 4.93275 161.635 12.663 163.801 17.5575C168.084 27.2365 174.628 37.3921 190.126 58.4111C210.701 86.3153 215.186 94.3574 217.673 107.814C220.211 121.542 213.308 137.032 191.527 166.493C174.984 188.869 170.699 195.287 165.714 205.163C163.531 209.487 160.211 219.342 158.62 225.628H166.526ZM151.267 225.628C151.379 225.092 151.489 224.534 151.594 223.962C153.619 212.996 161.16 198.51 177.842 173.547C199.544 141.072 204.92 129.163 204.893 113.617C204.866 97.3803 200.026 86.5306 178.047 53.4381C161.154 28.0032 155.083 16.6228 152.385 5.32989C151.933 3.43821 151.486 1.57546 151.106 0H142.602C143.764 6.05234 147.16 16.339 150.714 23.7485C153.75 30.0799 163.512 46.271 172.409 59.7292C191.435 88.5152 195.853 97.9283 196.583 111.237C197.427 126.616 193.469 135.757 172.358 167.18C152.202 197.183 145.155 211.042 142.97 224.979L142.868 225.628H151.267ZM135.604 225.628C138.01 212.535 143.835 199.406 156.616 178.004C177.479 143.067 183.035 129.544 183.035 113.701C183.035 97.4183 179.145 87.2478 161.155 56.4979C143.075 25.5961 137.552 13.5607 135.348 0H126.802C127.642 6.62135 131.397 19.0762 135.119 27.1306C137.326 31.9056 144.6 45.0772 151.286 56.4012C174.15 95.1252 177.72 106.362 173.225 125.433C170.848 135.517 165.74 146.069 152.536 168.173C138.751 191.252 131.932 205.405 128.914 217.208C127.995 220.801 127.363 223.549 127.015 225.628H135.604ZM120.167 225.628L120.253 224.914C121.603 213.71 127.001 199.874 141.358 170.824C157.7 137.757 160.488 129.181 160.359 112.388C160.241 96.8922 157.099 87.3387 142.677 58.6115C126.24 25.8701 121.658 14.1478 120.176 1.04526C120.134 0.676807 120.095 0.328764 120.057 0H110.942C111.073 1.30576 111.328 2.90561 111.682 4.86251C114.141 18.4198 118.509 29.6068 131.898 56.6384C149.309 91.7903 151.21 97.3193 151.265 112.964C151.303 123.619 150.876 126.301 147.657 135.598C145.65 141.398 138.609 156.939 132.013 170.133C119.233 195.691 114.817 206.611 112.166 219.216C111.603 221.892 111.171 223.987 110.898 225.628H120.167ZM104.743 225.628C104.752 225.304 104.756 224.962 104.756 224.603C104.756 215.795 109.973 199.615 121.47 172.772C137.674 134.937 140.741 117.053 135.213 92.6076C132.992 82.7847 129.548 73.2842 119.229 48.5158C110.41 27.3505 104.756 9.11491 104.756 1.84417C104.756 1.24984 104.73 0.620089 104.685 0H95.2821C95.8587 5.97869 97.6651 15.906 99.6113 22.6434C101.249 28.3163 105.986 40.9872 110.137 50.8008C125.039 86.0252 127.977 96.2153 128.063 112.964C128.151 130.209 125.392 139.686 108.789 179.155C100.549 198.747 97.0424 210.569 95.03 225.628H104.743ZM88.922 225.628L89.1115 223.763C90.4607 210.494 93.1567 199.59 101.279 174.551C119.242 119.182 119.191 107.398 100.759 50.8008C92.9921 26.9533 90.3053 15.8768 89.0724 2.61084L88.8299 0H79.4822L79.7952 4.46652C80.6723 16.9774 83.3856 28.192 92.1207 55.4055C103.681 91.4265 103.965 92.7987 104.039 112.964C104.111 133.179 103.495 136.231 92.6686 169.371C84.2409 195.161 80.708 209.496 79.8274 221.461L79.5207 225.628H88.922ZM73.6782 225.628L73.679 224.339C73.6859 214.274 76.3785 198.718 82.2989 174.551C90.2776 141.979 91.4012 134.368 91.392 112.964C91.3839 91.7557 90.7001 87.28 81.7268 49.6497C76.1183 26.1337 73.9058 13.3224 73.3774 1.30082L73.3202 0H63.3071L63.6835 6.14952C64.4847 19.2509 66.5153 30.0879 73.6456 59.3206C80.6021 87.8395 82.071 99.0403 81.3584 118.144C80.7345 134.9 78.2802 149.906 72.4933 172.357C67.3131 192.458 64.4248 208.15 63.6662 220.31L63.3346 225.628H73.6782ZM57.5474 225.628L58.4491 214.554C59.2101 205.214 61.6471 186.729 63.8631 173.473C71.7577 126.274 71.7669 101.017 63.908 53.3173C59.8052 28.4107 57.5581 9.55696 57.5581 0.0276299V0H47.2389C47.2019 7.82823 48.9134 25.3885 51.3844 41.0159C52.9857 51.1462 55.0313 64.0967 55.9304 69.795C61.1498 102.886 60.489 130.756 53.4957 172.364C49.5891 195.609 47.266 215.278 47.2003 225.628H57.5474ZM42.4574 225.628L42.966 211.573C43.3586 200.709 44.4671 185.084 45.4283 176.853C50.0836 137.014 50.0687 92.6847 45.3846 49.0741C44.3647 39.577 43.1893 23.5183 42.7738 13.388L42.224 0H31.5864C31.067 7.8213 32.8095 34.5841 35.3419 56.6671C38.2059 81.6278 38.1864 146.626 35.3096 170.522C33.032 189.432 31.2886 216.632 31.6917 225.628H42.4574ZM27.1872 225.628L27.347 210.429C27.4667 198.927 28.0907 179.155 28.7319 166.493C30.2445 136.648 30.2422 91.5336 28.7296 60.1575C28.0688 46.4644 27.4207 26.1947 27.2906 15.1148L27.1118 0H15.9063L16.7655 30.2975C18.094 77.1717 18.1066 150.582 16.7955 194.256C16.4002 207.406 16.1866 219.25 16.2034 225.628H27.1872Z" fill="black"/>
</svg>
