<svg xmlns="http://www.w3.org/2000/svg" viewBox="0 0 300 104">
<defs><clipPath id="emerald-publishing-logo-svg-clip-path"><path fill="none" d="M0 0h300v104H0z"/></clipPath></defs>
<path fill="#00a291" d="M36.22 64.32l7.8 3.43 1.29-2.06.57-21.75-1.86-.71-7.8-3.28v24.37z"/>
<path fill="#008872" d="M0 81.86l2.06.14 23.19-9.5.95-1.84-.7-2.03L2.38 45.44 0 45.27v36.59z"/>
<path fill="#cfc600" d="M43.44 104l.81-2.06.13-21.81-.94-.65-17.25-8.82-.75 1.22 16.44 30.62 1.56 1.5z"/>
<path fill="#9fc63b" d="M0 81.86L43.44 104 26.2 70.66 0 81.86z"/>
<path fill="#cad200" d="M43.44 104L87 81.83l-.04-.24L72.48 65.2l-.57-.2-.55.36-27.75 38.2-.17.44z"/>
<path fill="#00a8b5" d="M87 21.22l-16.1-7.94-2.21 2.16-6.56 15.94.58 2.28 2.35-.1L86 23.38l1-2.16z"/>
<path fill="#009982" d="M87 45.58L44.02 67.75V43.23L87 21.22v24.36z"/>
<path fill="#00a685" d="M0 45.27l1.84.04 22.88-9.34 1.57-2.22-1.6-2.62L3.5 21.94l-3.5.89v22.44z"/>
<path fill="#e8e349" d="M87 81.83V57.31l-15.09 7.68L87 81.83z"/>
<path fill="#dcdd2c" d="M43.44 79.48V104l28.47-39-28.47 14.48z"/>
<path fill="#4fbaad" d="M44.02 24.52l2.98.23 22-9.56 1.9-1.91L44.02 0l-1.46 1.56-.12 21 1.58 1.96z"/>
<path fill="#68c3cd" d="M62.71 33.66l8.19-20.38-26.88 11.25 18.69 9.13z"/>
<g clip-path="url(#emerald-publishing-logo-svg-clip-path)">
<path d="M105.21 57.28h9.55c4.63 0 7.87 3.24 7.87 8s-3.24 8.15-7.87 8.15h-5.05V82h-4.5zm8.71 12.29a3.89 3.89 0 0 0 4.15-4.25 3.84 3.84 0 0 0-4.07-4.18h-4.28v8.43zm11.32-12.29h4.5v15.84c0 3.31 2.16 5.19 5.47 5.19s5.5-1.88 5.5-5.22V57.28h4.5v15.84c0 5.54-4 9.3-10 9.3s-10-3.76-10-9.3zm24.46 0h8.85c4.46 0 7.63 2.3 7.63 6.37a5.85 5.85 0 0 1-3 5.29V69a5.79 5.79 0 0 1 4 5.82c0 4.94-4 7.17-8.54 7.17h-9zm8.85 10.1a3 3 0 0 0 3.07-3.17 2.86 2.86 0 0 0-3.14-3.07h-4.28v6.24zm.45 10.76a3.57 3.57 0 1 0 0-7.14h-4.8v7.14zm12.06-20.86h4.49v20.86h10.7V82h-15.19V57.28zm18.6 0h4.49V82h-4.49zM200 75.66a9.88 9.88 0 0 0 6.16 2.62c1.88 0 3.59-1 3.59-3 0-4.42-11.67-3.65-11.67-11.25 0-4.1 3.55-7.17 8.29-7.17a10.52 10.52 0 0 1 7.39 2.65l-2 3.65a9 9 0 0 0-5.45-2.16c-2.08 0-3.72 1.22-3.72 3 0 4.38 11.63 3.3 11.63 11.21 0 3.93-3 7.24-8.15 7.24a12 12 0 0 1-8.53-3.45zm17.71-18.38h4.49v10.48h11.32V57.28h4.5V82h-4.5V71.62H222.2V82h-4.49V57.28zm25.57 0h4.49V82h-4.49zm9.72 0h4.49l9.37 14.27a38.31 38.31 0 0 1 2.14 3.83s-.24-2.36-.24-3.83V57.28h4.46V82h-4.46l-9.37-14.24a38.31 38.31 0 0 1-2.06-3.83h-.07s.25 2.37.25 3.83V82H253zm36.58-.42c6.06 0 9.2 3.14 9.2 3.14l-2.23 3.34A10.66 10.66 0 0 0 290 61c-5.54 0-8.51 3.83-8.51 8.49 0 5.37 3.66 8.85 8.29 8.85a9.34 9.34 0 0 0 6.22-2.61v-2.89h-3.8V69h7.8v13h-3.83v-2.18h-.07a10.49 10.49 0 0 1-7.1 2.6c-6.51 0-12.12-5-12.12-12.82a12.47 12.47 0 0 1 12.75-12.74M117 18.19c8.4 0 12.6 6.61 12.6 14.07 0 .68-.12 1.67-.12 1.67h-24.77c0 9 6.05 14.08 13.22 14.08a14 14 0 0 0 9.57-3.89l1.42 2.16a16.82 16.82 0 0 1-11 4.26c-8.71 0-15.94-6.3-15.94-16.11 0-10.44 7.1-16.24 15-16.24m9.88 13.33c-.31-7.53-4.82-10.92-9.94-10.92-5.68 0-10.93 3.7-12 10.92zm8.36-12.59h2.6v5.43a12.78 12.78 0 0 1-.25 2.53h.13c1.54-4.63 7-8.7 11.85-8.7 6.18 0 9.08 2.9 9.76 8.39h.13c1.73-4.32 6.42-8.39 11.73-8.39 8 0 10.32 4.69 10.32 12V49.8h-2.6V31.15c0-5.8-1.17-10.55-7.72-10.55-5.12 0-9.51 4.57-10.87 9.38a16.18 16.18 0 0 0-.62 4.75V49.8h-2.59V31.15c0-5.31-.74-10.55-7.54-10.55-5.49 0-9.82 4.81-11.24 9.94a15.29 15.29 0 0 0-.49 4.19V49.8h-2.6zm66.47-.74c8.4 0 12.6 6.61 12.6 14.07 0 .68-.12 1.67-.12 1.67H189.4c0 9 6 14.08 13.22 14.08a14 14 0 0 0 9.57-3.89l1.42 2.16a16.82 16.82 0 0 1-11 4.26c-8.71 0-15.94-6.3-15.94-16.11 0-10.44 7.1-16.24 15-16.24m9.88 13.33c-.31-7.53-4.81-10.92-9.94-10.92-5.68 0-10.93 3.7-12 10.92zm8.36-12.59h2.6v5.86a13 13 0 0 1-.25 2.54h.13c1.54-4.76 5-8.65 9.88-8.65a9.53 9.53 0 0 1 1.79.19v2.59a10.33 10.33 0 0 0-1.42-.12c-4.82 0-7.85 4.07-9.21 8.64a21.91 21.91 0 0 0-.92 6.48V49.8h-2.6zM254.32 31h2v-1c0-6.85-3.52-9.2-8.46-9.2a14.55 14.55 0 0 0-8.84 3l-1.48-2.1A16.2 16.2 0 0 1 248 18.19c7.1 0 10.93 3.95 10.93 11.67V49.8h-2.59v-4.08a14.44 14.44 0 0 1 .26-2.72h-.12c.06 0-2.78 7.59-10.81 7.59-5 0-10.5-2.78-10.5-8.95 0-10.5 13.65-10.62 19.15-10.62m-8.53 17.16c6.74 0 10.57-7 10.57-13.09v-1.71h-2c-5.25 0-16.49 0-16.49 8 0 3.27 2.65 6.73 7.9 6.73m19.61 1.68V6.44h2.6v43.35m18.6-31.6c7.78 0 10.68 7 10.68 7h.12a13.3 13.3 0 0 1-.24-2.53V6h2.59v43.8h-2.59v-3.89a10.34 10.34 0 0 1 .24-2.35h-.12a11.81 11.81 0 0 1-11.18 7c-8.28 0-13.34-6.61-13.34-16.18 0-9.81 5.74-16.17 13.84-16.17M286.2 48c5.69 0 11-4 11-13.71 0-6.85-3.52-13.58-10.75-13.58-6.05 0-11 5-11 13.64C275.46 42.7 279.9 48 286.2 48" fill="#005156"/></g><path fill="#00a685" d="M0 45.27l26.2 25.39.09-36.91L0 45.27z"/>
<path fill="#007179" d="M44.02 0L0 22.83l26.29 10.92 17.73-9.22V0z"/>
</svg>